M48
; DRILL file {KiCad 6.0.4-6f826c9f35~116~ubuntu21.10.1} date Thu 05 Jan 2023 04:01:10 PM
; FORMAT={-:-/ absolute / metric / decimal}
; #@! TF.CreationDate,2023-01-05T16:01:10-05:00
; #@! TF.GenerationSoftware,Kicad,Pcbnew,6.0.4-6f826c9f35~116~ubuntu21.10.1
; #@! TF.FileFunction,Plated,1,2,PTH
FMAT,2
METRIC
; #@! TA.AperFunction,Plated,PTH,ViaDrill
T1C0.400
; #@! TA.AperFunction,Plated,PTH,ComponentDrill
T2C0.400
; #@! TA.AperFunction,Plated,PTH,ComponentDrill
T3C1.000
%
G90
G05
T1
X12.62Y2.43
X13.65Y2.13
X25.64Y3.81
X25.79Y2.01
X28.4Y2.6
X28.5Y3.8
T2
X0.8Y22.1
X0.8Y18.7
X2.7Y28.3
X2.7Y19.9
X2.8Y15.0
X2.9Y11.4
X3.75Y24.7
X4.4Y31.2
X5.5Y7.7
X6.25Y19.5
X6.5Y11.6
X7.0Y24.25
X7.3Y32.7
X7.5Y14.5
X8.5Y27.5
X9.5Y5.5
X10.0Y10.5
X11.0Y30.5
X12.9Y34.7
X13.0Y5.6
X14.0Y7.5
X15.01Y33.1
X15.79Y2.13
X17.6Y4.95
X19.25Y6.25
X21.3Y2.1
X24.25Y7.0
X24.5Y1.3
X27.05Y5.9
X28.5Y9.25
X31.2Y5.8
X31.75Y13.0
X33.26Y16.36
X33.5Y7.9
X37.7Y16.5
T3
X33.923Y10.38
X35.869Y12.013
T0
M30
