G04 #@! TF.GenerationSoftware,KiCad,Pcbnew,6.0.4-6f826c9f35~116~ubuntu21.10.1*
G04 #@! TF.CreationDate,2023-01-05T16:01:05-05:00*
G04 #@! TF.ProjectId,T36VAIllumination,54333656-4149-46c6-9c75-6d696e617469,rev?*
G04 #@! TF.SameCoordinates,PX1c9c380PYa21fe80*
G04 #@! TF.FileFunction,Legend,Bot*
G04 #@! TF.FilePolarity,Positive*
%FSLAX46Y46*%
G04 Gerber Fmt 4.6, Leading zero omitted, Abs format (unit mm)*
G04 Created by KiCad (PCBNEW 6.0.4-6f826c9f35~116~ubuntu21.10.1) date 2023-01-05 16:01:05*
%MOMM*%
%LPD*%
G01*
G04 APERTURE LIST*
%ADD10C,0.150000*%
%ADD11C,0.120000*%
%ADD12C,0.010000*%
G04 APERTURE END LIST*
D10*
X38376550Y13030611D02*
X37396243Y12643171D01*
X37948025Y13541307D01*
X36673368Y13652825D02*
X36667498Y13585738D01*
X36722847Y13445694D01*
X36784065Y13372737D01*
X36912370Y13293911D01*
X37046544Y13282173D01*
X37150110Y13306912D01*
X37326632Y13392870D01*
X37436067Y13484696D01*
X37551371Y13643610D01*
X37593719Y13741307D01*
X37605457Y13875481D01*
X37550109Y14015525D01*
X37488891Y14088482D01*
X37360586Y14167308D01*
X37293499Y14173177D01*
X36030580Y14418869D02*
X36024711Y14351782D01*
X36080059Y14211738D01*
X36141277Y14138782D01*
X36269582Y14059956D01*
X36403756Y14048217D01*
X36507322Y14072957D01*
X36683844Y14158914D01*
X36793279Y14250741D01*
X36908583Y14409655D01*
X36950931Y14507351D01*
X36962670Y14641526D01*
X36907321Y14781569D01*
X36846103Y14854526D01*
X36717798Y14933352D01*
X36650711Y14939221D01*
X32972765Y9037741D02*
X33070461Y8995394D01*
X33162288Y8885959D01*
X33217636Y8745915D01*
X33205897Y8611740D01*
X33163550Y8514044D01*
X33048245Y8355130D01*
X32938810Y8263303D01*
X32762288Y8177346D01*
X32658723Y8152606D01*
X32524548Y8164345D01*
X32396243Y8243171D01*
X32335025Y8316128D01*
X32279677Y8456172D01*
X32285546Y8523259D01*
X32540894Y8737521D01*
X32663330Y8591608D01*
X31937109Y8790346D02*
X32703154Y9433133D01*
X31569802Y9228085D01*
X32335846Y9870873D01*
X31263713Y9592869D02*
X32029757Y10235656D01*
X31876712Y10418048D01*
X31748407Y10496874D01*
X31614233Y10508612D01*
X31510667Y10483873D01*
X31334145Y10397915D01*
X31224710Y10306089D01*
X31109406Y10147175D01*
X31067058Y10049478D01*
X31055319Y9915304D01*
X31110668Y9775260D01*
X31263713Y9592869D01*
D11*
G04 #@! TO.C,J1*
X34041263Y12215625D02*
X36032978Y13886873D01*
X32049547Y10544378D02*
X32904455Y9525538D01*
X35751078Y10177947D02*
X37742794Y11849195D01*
X33068386Y11399285D02*
X32049547Y10544378D01*
X36032978Y13886873D02*
X37742794Y11849195D01*
X34041263Y12215625D02*
X35751078Y10177947D01*
G04 #@! TO.C,G\u002A\u002A\u002A*
G36*
X5079752Y24575113D02*
G01*
X4997886Y24626866D01*
X4918003Y24689688D01*
X4840817Y24763089D01*
X4767043Y24846582D01*
X4752223Y24865632D01*
X4728997Y24897513D01*
X4703088Y24934773D01*
X4676206Y24974815D01*
X4650058Y25015044D01*
X4626354Y25052863D01*
X4606801Y25085677D01*
X4593108Y25110889D01*
X4571156Y25147483D01*
X4540914Y25179745D01*
X4505763Y25200468D01*
X4484035Y25207700D01*
X4449519Y25216763D01*
X4405518Y25226635D01*
X4353674Y25236972D01*
X4295626Y25247429D01*
X4233019Y25257663D01*
X4130754Y25273569D01*
X4109311Y25308186D01*
X4098784Y25327882D01*
X4082541Y25371419D01*
X4072101Y25413592D01*
X4874364Y25413592D01*
X4874578Y25351641D01*
X4882939Y25284123D01*
X4899031Y25212621D01*
X4922431Y25138717D01*
X4952717Y25063992D01*
X4989469Y24990028D01*
X5032266Y24918409D01*
X5055043Y24884708D01*
X5094334Y24832818D01*
X5131882Y24791985D01*
X5168581Y24761403D01*
X5205323Y24740264D01*
X5242997Y24727762D01*
X5244816Y24727368D01*
X5256571Y24725453D01*
X5267762Y24725663D01*
X5280758Y24728740D01*
X5297929Y24735425D01*
X5321643Y24746459D01*
X5354268Y24762583D01*
X5365192Y24767979D01*
X5395071Y24782122D01*
X5421152Y24793604D01*
X5440943Y24801362D01*
X5451954Y24804331D01*
X5452871Y24804311D01*
X5465486Y24801137D01*
X5486367Y24793392D01*
X5512833Y24782144D01*
X5542201Y24768459D01*
X5560314Y24759705D01*
X5586695Y24747407D01*
X5605640Y24739610D01*
X5619664Y24735475D01*
X5631285Y24734161D01*
X5643017Y24734830D01*
X5652267Y24736446D01*
X5679137Y24748901D01*
X5699774Y24770632D01*
X5711679Y24799300D01*
X5716988Y24819207D01*
X5730352Y24848377D01*
X5750455Y24872700D01*
X5778788Y24893431D01*
X5816839Y24911820D01*
X5866101Y24929120D01*
X5881232Y24933990D01*
X5910277Y24944223D01*
X5935469Y24954171D01*
X5952628Y24962235D01*
X5977665Y24976276D01*
X5984858Y25031103D01*
X5987060Y25047179D01*
X5990682Y25067158D01*
X5995891Y25083759D01*
X6004056Y25098892D01*
X6016542Y25114467D01*
X6034720Y25132393D01*
X6059958Y25154584D01*
X6093623Y25182946D01*
X6104106Y25191765D01*
X6138295Y25221534D01*
X6163705Y25245914D01*
X6181574Y25266479D01*
X6193142Y25284804D01*
X6199648Y25302463D01*
X6202332Y25321031D01*
X6202460Y25328099D01*
X6199704Y25351517D01*
X6193346Y25370743D01*
X6185968Y25388017D01*
X6182570Y25411086D01*
X6187103Y25435524D01*
X6200144Y25462870D01*
X6222271Y25494658D01*
X6254058Y25532423D01*
X6259886Y25538975D01*
X6279879Y25562110D01*
X6293539Y25579928D01*
X6302810Y25595584D01*
X6309634Y25612240D01*
X6315956Y25633055D01*
X6328742Y25678628D01*
X6299448Y25725805D01*
X6290128Y25741477D01*
X6274865Y25773274D01*
X6266991Y25803365D01*
X6266270Y25834912D01*
X6272466Y25871078D01*
X6285344Y25915025D01*
X6289919Y25929001D01*
X6302027Y25968080D01*
X6310309Y25999667D01*
X6315427Y26027065D01*
X6318041Y26053575D01*
X6318809Y26082499D01*
X6318481Y26099266D01*
X6314191Y26151022D01*
X6305577Y26208872D01*
X6293455Y26269056D01*
X6278640Y26327820D01*
X6261949Y26381402D01*
X6244200Y26426043D01*
X6237696Y26439067D01*
X6211775Y26480528D01*
X6178240Y26523327D01*
X6139858Y26564147D01*
X6099398Y26599668D01*
X6072654Y26619135D01*
X6013125Y26652403D01*
X5951454Y26673354D01*
X5887489Y26681989D01*
X5821078Y26678304D01*
X5752069Y26662297D01*
X5680309Y26633967D01*
X5605649Y26593311D01*
X5573544Y26572291D01*
X5514865Y26525163D01*
X5468173Y26474102D01*
X5433508Y26419167D01*
X5410912Y26360416D01*
X5400425Y26297908D01*
X5400175Y26294142D01*
X5399224Y26271145D01*
X5399611Y26248726D01*
X5401635Y26224738D01*
X5405594Y26197032D01*
X5411786Y26163460D01*
X5420509Y26121876D01*
X5432062Y26070130D01*
X5440339Y26032889D01*
X5447333Y25998530D01*
X5451699Y25971868D01*
X5453759Y25950424D01*
X5453830Y25931721D01*
X5452232Y25913284D01*
X5451712Y25909263D01*
X5437596Y25851647D01*
X5411130Y25793700D01*
X5372601Y25736065D01*
X5355945Y25716053D01*
X5313992Y25676803D01*
X5266574Y25647301D01*
X5212557Y25627071D01*
X5150812Y25615632D01*
X5080203Y25612507D01*
X5060093Y25612512D01*
X5031510Y25611745D01*
X5008260Y25610213D01*
X4994024Y25608105D01*
X4990463Y25607015D01*
X4964595Y25593758D01*
X4938089Y25572334D01*
X4914798Y25545773D01*
X4905058Y25528980D01*
X4893792Y25502955D01*
X4884304Y25474352D01*
X4882723Y25468395D01*
X4874364Y25413592D01*
X4072101Y25413592D01*
X4069232Y25425182D01*
X4058947Y25487792D01*
X4051777Y25557873D01*
X4047811Y25634044D01*
X4047141Y25714929D01*
X4049857Y25799149D01*
X4056049Y25885325D01*
X4065806Y25972080D01*
X4066320Y25975888D01*
X4083286Y26078526D01*
X4105418Y26175985D01*
X4132282Y26267216D01*
X4163445Y26351171D01*
X4198474Y26426801D01*
X4236934Y26493058D01*
X4278394Y26548892D01*
X4322421Y26593256D01*
X4334399Y26602806D01*
X4346146Y26608581D01*
X4359818Y26609080D01*
X4380610Y26605387D01*
X4397451Y26602283D01*
X4442378Y26599146D01*
X4479582Y26605608D01*
X4509968Y26622093D01*
X4534440Y26649027D01*
X4553904Y26686835D01*
X4556712Y26694412D01*
X4564224Y26716885D01*
X4574032Y26748098D01*
X4585437Y26785762D01*
X4597738Y26827586D01*
X4610238Y26871279D01*
X4622311Y26913589D01*
X4636300Y26960477D01*
X4648492Y26997920D01*
X4659581Y27027570D01*
X4670261Y27051082D01*
X4681227Y27070109D01*
X4693172Y27086306D01*
X4706791Y27101323D01*
X4715648Y27110037D01*
X4740452Y27129653D01*
X4765089Y27139867D01*
X4793315Y27141759D01*
X4828890Y27136412D01*
X4831897Y27135751D01*
X4865113Y27126522D01*
X4902986Y27113292D01*
X4939713Y27098069D01*
X4951371Y27092957D01*
X4989174Y27078019D01*
X5029849Y27063775D01*
X5066404Y27052727D01*
X5082936Y27048395D01*
X5112196Y27041704D01*
X5137027Y27038133D01*
X5162634Y27037081D01*
X5194226Y27037946D01*
X5195190Y27037988D01*
X5235328Y27040206D01*
X5265275Y27043169D01*
X5287486Y27047561D01*
X5304421Y27054057D01*
X5318534Y27063337D01*
X5332284Y27076080D01*
X5343861Y27089872D01*
X5360431Y27113069D01*
X5378568Y27141149D01*
X5395995Y27170732D01*
X5415138Y27203641D01*
X5434544Y27232577D01*
X5451635Y27251696D01*
X5467681Y27262082D01*
X5483949Y27264817D01*
X5501711Y27260984D01*
X5502867Y27260559D01*
X5524433Y27248335D01*
X5547005Y27227172D01*
X5571224Y27196259D01*
X5597730Y27154784D01*
X5627164Y27101932D01*
X5651982Y27055750D01*
X5675445Y27014091D01*
X5695130Y26981811D01*
X5711791Y26957748D01*
X5726186Y26940737D01*
X5739068Y26929616D01*
X5762068Y26917648D01*
X5800950Y26907283D01*
X5848619Y26903012D01*
X5903630Y26905050D01*
X5919324Y26906266D01*
X5952646Y26907746D01*
X5983564Y26907835D01*
X6006974Y26906461D01*
X6043003Y26899016D01*
X6093845Y26878569D01*
X6145109Y26847054D01*
X6195694Y26805297D01*
X6244503Y26754119D01*
X6290436Y26694343D01*
X6294070Y26688995D01*
X6319253Y26647614D01*
X6345818Y26597499D01*
X6372395Y26541787D01*
X6397612Y26483614D01*
X6420103Y26426119D01*
X6438495Y26372438D01*
X6451418Y26325708D01*
X6455362Y26307579D01*
X6467919Y26229599D01*
X6475761Y26142214D01*
X6478812Y26047359D01*
X6476996Y25946964D01*
X6470240Y25842966D01*
X6469827Y25838440D01*
X6464513Y25793117D01*
X6456554Y25739926D01*
X6446432Y25681139D01*
X6434630Y25619030D01*
X6421632Y25555870D01*
X6407921Y25493932D01*
X6393980Y25435489D01*
X6380292Y25382814D01*
X6367342Y25338179D01*
X6355611Y25303856D01*
X6317784Y25213732D01*
X6270419Y25117495D01*
X6218346Y25026642D01*
X6162703Y24943004D01*
X6104626Y24868406D01*
X6045252Y24804679D01*
X5981135Y24745830D01*
X5891548Y24673934D01*
X5801570Y24613512D01*
X5711576Y24564709D01*
X5621936Y24527674D01*
X5533025Y24502552D01*
X5445215Y24489494D01*
X5358881Y24488645D01*
X5274394Y24500153D01*
X5246573Y24506761D01*
X5201171Y24522035D01*
X5162886Y24534915D01*
X5079752Y24575113D01*
G37*
D12*
X5079752Y24575113D02*
X4997886Y24626866D01*
X4918003Y24689688D01*
X4840817Y24763089D01*
X4767043Y24846582D01*
X4752223Y24865632D01*
X4728997Y24897513D01*
X4703088Y24934773D01*
X4676206Y24974815D01*
X4650058Y25015044D01*
X4626354Y25052863D01*
X4606801Y25085677D01*
X4593108Y25110889D01*
X4571156Y25147483D01*
X4540914Y25179745D01*
X4505763Y25200468D01*
X4484035Y25207700D01*
X4449519Y25216763D01*
X4405518Y25226635D01*
X4353674Y25236972D01*
X4295626Y25247429D01*
X4233019Y25257663D01*
X4130754Y25273569D01*
X4109311Y25308186D01*
X4098784Y25327882D01*
X4082541Y25371419D01*
X4072101Y25413592D01*
X4874364Y25413592D01*
X4874578Y25351641D01*
X4882939Y25284123D01*
X4899031Y25212621D01*
X4922431Y25138717D01*
X4952717Y25063992D01*
X4989469Y24990028D01*
X5032266Y24918409D01*
X5055043Y24884708D01*
X5094334Y24832818D01*
X5131882Y24791985D01*
X5168581Y24761403D01*
X5205323Y24740264D01*
X5242997Y24727762D01*
X5244816Y24727368D01*
X5256571Y24725453D01*
X5267762Y24725663D01*
X5280758Y24728740D01*
X5297929Y24735425D01*
X5321643Y24746459D01*
X5354268Y24762583D01*
X5365192Y24767979D01*
X5395071Y24782122D01*
X5421152Y24793604D01*
X5440943Y24801362D01*
X5451954Y24804331D01*
X5452871Y24804311D01*
X5465486Y24801137D01*
X5486367Y24793392D01*
X5512833Y24782144D01*
X5542201Y24768459D01*
X5560314Y24759705D01*
X5586695Y24747407D01*
X5605640Y24739610D01*
X5619664Y24735475D01*
X5631285Y24734161D01*
X5643017Y24734830D01*
X5652267Y24736446D01*
X5679137Y24748901D01*
X5699774Y24770632D01*
X5711679Y24799300D01*
X5716988Y24819207D01*
X5730352Y24848377D01*
X5750455Y24872700D01*
X5778788Y24893431D01*
X5816839Y24911820D01*
X5866101Y24929120D01*
X5881232Y24933990D01*
X5910277Y24944223D01*
X5935469Y24954171D01*
X5952628Y24962235D01*
X5977665Y24976276D01*
X5984858Y25031103D01*
X5987060Y25047179D01*
X5990682Y25067158D01*
X5995891Y25083759D01*
X6004056Y25098892D01*
X6016542Y25114467D01*
X6034720Y25132393D01*
X6059958Y25154584D01*
X6093623Y25182946D01*
X6104106Y25191765D01*
X6138295Y25221534D01*
X6163705Y25245914D01*
X6181574Y25266479D01*
X6193142Y25284804D01*
X6199648Y25302463D01*
X6202332Y25321031D01*
X6202460Y25328099D01*
X6199704Y25351517D01*
X6193346Y25370743D01*
X6185968Y25388017D01*
X6182570Y25411086D01*
X6187103Y25435524D01*
X6200144Y25462870D01*
X6222271Y25494658D01*
X6254058Y25532423D01*
X6259886Y25538975D01*
X6279879Y25562110D01*
X6293539Y25579928D01*
X6302810Y25595584D01*
X6309634Y25612240D01*
X6315956Y25633055D01*
X6328742Y25678628D01*
X6299448Y25725805D01*
X6290128Y25741477D01*
X6274865Y25773274D01*
X6266991Y25803365D01*
X6266270Y25834912D01*
X6272466Y25871078D01*
X6285344Y25915025D01*
X6289919Y25929001D01*
X6302027Y25968080D01*
X6310309Y25999667D01*
X6315427Y26027065D01*
X6318041Y26053575D01*
X6318809Y26082499D01*
X6318481Y26099266D01*
X6314191Y26151022D01*
X6305577Y26208872D01*
X6293455Y26269056D01*
X6278640Y26327820D01*
X6261949Y26381402D01*
X6244200Y26426043D01*
X6237696Y26439067D01*
X6211775Y26480528D01*
X6178240Y26523327D01*
X6139858Y26564147D01*
X6099398Y26599668D01*
X6072654Y26619135D01*
X6013125Y26652403D01*
X5951454Y26673354D01*
X5887489Y26681989D01*
X5821078Y26678304D01*
X5752069Y26662297D01*
X5680309Y26633967D01*
X5605649Y26593311D01*
X5573544Y26572291D01*
X5514865Y26525163D01*
X5468173Y26474102D01*
X5433508Y26419167D01*
X5410912Y26360416D01*
X5400425Y26297908D01*
X5400175Y26294142D01*
X5399224Y26271145D01*
X5399611Y26248726D01*
X5401635Y26224738D01*
X5405594Y26197032D01*
X5411786Y26163460D01*
X5420509Y26121876D01*
X5432062Y26070130D01*
X5440339Y26032889D01*
X5447333Y25998530D01*
X5451699Y25971868D01*
X5453759Y25950424D01*
X5453830Y25931721D01*
X5452232Y25913284D01*
X5451712Y25909263D01*
X5437596Y25851647D01*
X5411130Y25793700D01*
X5372601Y25736065D01*
X5355945Y25716053D01*
X5313992Y25676803D01*
X5266574Y25647301D01*
X5212557Y25627071D01*
X5150812Y25615632D01*
X5080203Y25612507D01*
X5060093Y25612512D01*
X5031510Y25611745D01*
X5008260Y25610213D01*
X4994024Y25608105D01*
X4990463Y25607015D01*
X4964595Y25593758D01*
X4938089Y25572334D01*
X4914798Y25545773D01*
X4905058Y25528980D01*
X4893792Y25502955D01*
X4884304Y25474352D01*
X4882723Y25468395D01*
X4874364Y25413592D01*
X4072101Y25413592D01*
X4069232Y25425182D01*
X4058947Y25487792D01*
X4051777Y25557873D01*
X4047811Y25634044D01*
X4047141Y25714929D01*
X4049857Y25799149D01*
X4056049Y25885325D01*
X4065806Y25972080D01*
X4066320Y25975888D01*
X4083286Y26078526D01*
X4105418Y26175985D01*
X4132282Y26267216D01*
X4163445Y26351171D01*
X4198474Y26426801D01*
X4236934Y26493058D01*
X4278394Y26548892D01*
X4322421Y26593256D01*
X4334399Y26602806D01*
X4346146Y26608581D01*
X4359818Y26609080D01*
X4380610Y26605387D01*
X4397451Y26602283D01*
X4442378Y26599146D01*
X4479582Y26605608D01*
X4509968Y26622093D01*
X4534440Y26649027D01*
X4553904Y26686835D01*
X4556712Y26694412D01*
X4564224Y26716885D01*
X4574032Y26748098D01*
X4585437Y26785762D01*
X4597738Y26827586D01*
X4610238Y26871279D01*
X4622311Y26913589D01*
X4636300Y26960477D01*
X4648492Y26997920D01*
X4659581Y27027570D01*
X4670261Y27051082D01*
X4681227Y27070109D01*
X4693172Y27086306D01*
X4706791Y27101323D01*
X4715648Y27110037D01*
X4740452Y27129653D01*
X4765089Y27139867D01*
X4793315Y27141759D01*
X4828890Y27136412D01*
X4831897Y27135751D01*
X4865113Y27126522D01*
X4902986Y27113292D01*
X4939713Y27098069D01*
X4951371Y27092957D01*
X4989174Y27078019D01*
X5029849Y27063775D01*
X5066404Y27052727D01*
X5082936Y27048395D01*
X5112196Y27041704D01*
X5137027Y27038133D01*
X5162634Y27037081D01*
X5194226Y27037946D01*
X5195190Y27037988D01*
X5235328Y27040206D01*
X5265275Y27043169D01*
X5287486Y27047561D01*
X5304421Y27054057D01*
X5318534Y27063337D01*
X5332284Y27076080D01*
X5343861Y27089872D01*
X5360431Y27113069D01*
X5378568Y27141149D01*
X5395995Y27170732D01*
X5415138Y27203641D01*
X5434544Y27232577D01*
X5451635Y27251696D01*
X5467681Y27262082D01*
X5483949Y27264817D01*
X5501711Y27260984D01*
X5502867Y27260559D01*
X5524433Y27248335D01*
X5547005Y27227172D01*
X5571224Y27196259D01*
X5597730Y27154784D01*
X5627164Y27101932D01*
X5651982Y27055750D01*
X5675445Y27014091D01*
X5695130Y26981811D01*
X5711791Y26957748D01*
X5726186Y26940737D01*
X5739068Y26929616D01*
X5762068Y26917648D01*
X5800950Y26907283D01*
X5848619Y26903012D01*
X5903630Y26905050D01*
X5919324Y26906266D01*
X5952646Y26907746D01*
X5983564Y26907835D01*
X6006974Y26906461D01*
X6043003Y26899016D01*
X6093845Y26878569D01*
X6145109Y26847054D01*
X6195694Y26805297D01*
X6244503Y26754119D01*
X6290436Y26694343D01*
X6294070Y26688995D01*
X6319253Y26647614D01*
X6345818Y26597499D01*
X6372395Y26541787D01*
X6397612Y26483614D01*
X6420103Y26426119D01*
X6438495Y26372438D01*
X6451418Y26325708D01*
X6455362Y26307579D01*
X6467919Y26229599D01*
X6475761Y26142214D01*
X6478812Y26047359D01*
X6476996Y25946964D01*
X6470240Y25842966D01*
X6469827Y25838440D01*
X6464513Y25793117D01*
X6456554Y25739926D01*
X6446432Y25681139D01*
X6434630Y25619030D01*
X6421632Y25555870D01*
X6407921Y25493932D01*
X6393980Y25435489D01*
X6380292Y25382814D01*
X6367342Y25338179D01*
X6355611Y25303856D01*
X6317784Y25213732D01*
X6270419Y25117495D01*
X6218346Y25026642D01*
X6162703Y24943004D01*
X6104626Y24868406D01*
X6045252Y24804679D01*
X5981135Y24745830D01*
X5891548Y24673934D01*
X5801570Y24613512D01*
X5711576Y24564709D01*
X5621936Y24527674D01*
X5533025Y24502552D01*
X5445215Y24489494D01*
X5358881Y24488645D01*
X5274394Y24500153D01*
X5246573Y24506761D01*
X5201171Y24522035D01*
X5162886Y24534915D01*
X5079752Y24575113D01*
G36*
X2307118Y27247580D02*
G01*
X2338529Y27245066D01*
X2375856Y27240220D01*
X2420181Y27232976D01*
X2472582Y27223266D01*
X2534142Y27211020D01*
X2605942Y27196171D01*
X2689061Y27178649D01*
X2805003Y27153744D01*
X2934836Y27124883D01*
X3052275Y27097611D01*
X3157425Y27071897D01*
X3250397Y27047710D01*
X3331299Y27025020D01*
X3400240Y27003794D01*
X3457327Y26984005D01*
X3502670Y26965620D01*
X3536376Y26948608D01*
X3558555Y26932939D01*
X3574403Y26917454D01*
X3589348Y26897547D01*
X3593627Y26879930D01*
X3586941Y26862896D01*
X3568993Y26844735D01*
X3539483Y26823739D01*
X3538938Y26823386D01*
X3516069Y26809499D01*
X3493695Y26798343D01*
X3470525Y26789897D01*
X3445262Y26784146D01*
X3416615Y26781071D01*
X3383290Y26780655D01*
X3343992Y26782882D01*
X3297429Y26787733D01*
X3242306Y26795192D01*
X3177330Y26805241D01*
X3101207Y26817863D01*
X3058076Y26825322D01*
X3007019Y26834637D01*
X2955716Y26844599D01*
X2902160Y26855637D01*
X2844344Y26868178D01*
X2780261Y26882647D01*
X2707904Y26899472D01*
X2625266Y26919080D01*
X2607772Y26923263D01*
X2541886Y26939054D01*
X2486842Y26952353D01*
X2441412Y26963503D01*
X2404370Y26972846D01*
X2374491Y26980724D01*
X2350549Y26987481D01*
X2331315Y26993459D01*
X2315565Y26999001D01*
X2302073Y27004450D01*
X2289612Y27010150D01*
X2276956Y27016441D01*
X2272400Y27018767D01*
X2227961Y27042346D01*
X2193809Y27062617D01*
X2168507Y27080732D01*
X2150620Y27097849D01*
X2138713Y27115123D01*
X2131353Y27133711D01*
X2127508Y27149282D01*
X2126455Y27167514D01*
X2132471Y27181998D01*
X2147084Y27195671D01*
X2171819Y27211466D01*
X2182375Y27217588D01*
X2200983Y27227611D01*
X2219024Y27235716D01*
X2237576Y27241834D01*
X2257723Y27245896D01*
X2280544Y27247835D01*
X2307118Y27247580D01*
G37*
X2307118Y27247580D02*
X2338529Y27245066D01*
X2375856Y27240220D01*
X2420181Y27232976D01*
X2472582Y27223266D01*
X2534142Y27211020D01*
X2605942Y27196171D01*
X2689061Y27178649D01*
X2805003Y27153744D01*
X2934836Y27124883D01*
X3052275Y27097611D01*
X3157425Y27071897D01*
X3250397Y27047710D01*
X3331299Y27025020D01*
X3400240Y27003794D01*
X3457327Y26984005D01*
X3502670Y26965620D01*
X3536376Y26948608D01*
X3558555Y26932939D01*
X3574403Y26917454D01*
X3589348Y26897547D01*
X3593627Y26879930D01*
X3586941Y26862896D01*
X3568993Y26844735D01*
X3539483Y26823739D01*
X3538938Y26823386D01*
X3516069Y26809499D01*
X3493695Y26798343D01*
X3470525Y26789897D01*
X3445262Y26784146D01*
X3416615Y26781071D01*
X3383290Y26780655D01*
X3343992Y26782882D01*
X3297429Y26787733D01*
X3242306Y26795192D01*
X3177330Y26805241D01*
X3101207Y26817863D01*
X3058076Y26825322D01*
X3007019Y26834637D01*
X2955716Y26844599D01*
X2902160Y26855637D01*
X2844344Y26868178D01*
X2780261Y26882647D01*
X2707904Y26899472D01*
X2625266Y26919080D01*
X2607772Y26923263D01*
X2541886Y26939054D01*
X2486842Y26952353D01*
X2441412Y26963503D01*
X2404370Y26972846D01*
X2374491Y26980724D01*
X2350549Y26987481D01*
X2331315Y26993459D01*
X2315565Y26999001D01*
X2302073Y27004450D01*
X2289612Y27010150D01*
X2276956Y27016441D01*
X2272400Y27018767D01*
X2227961Y27042346D01*
X2193809Y27062617D01*
X2168507Y27080732D01*
X2150620Y27097849D01*
X2138713Y27115123D01*
X2131353Y27133711D01*
X2127508Y27149282D01*
X2126455Y27167514D01*
X2132471Y27181998D01*
X2147084Y27195671D01*
X2171819Y27211466D01*
X2182375Y27217588D01*
X2200983Y27227611D01*
X2219024Y27235716D01*
X2237576Y27241834D01*
X2257723Y27245896D01*
X2280544Y27247835D01*
X2307118Y27247580D01*
G36*
X2581208Y26857373D02*
G01*
X2584870Y26857086D01*
X2618168Y26853057D01*
X2660928Y26846005D01*
X2710759Y26836433D01*
X2765266Y26824849D01*
X2822058Y26811757D01*
X2878744Y26797664D01*
X2932930Y26783074D01*
X2936694Y26782016D01*
X2963772Y26774476D01*
X3001198Y26764128D01*
X3047365Y26751415D01*
X3100663Y26736777D01*
X3159485Y26720657D01*
X3222223Y26703494D01*
X3287267Y26685731D01*
X3353011Y26667810D01*
X3362295Y26665279D01*
X3445134Y26642524D01*
X3517839Y26622214D01*
X3580044Y26604455D01*
X3631385Y26589356D01*
X3671500Y26577022D01*
X3700023Y26567561D01*
X3716590Y26561080D01*
X3725129Y26556846D01*
X3758882Y26536979D01*
X3793812Y26512224D01*
X3827882Y26484438D01*
X3859054Y26455484D01*
X3885291Y26427218D01*
X3904557Y26401499D01*
X3914814Y26380189D01*
X3916874Y26370726D01*
X3915856Y26339419D01*
X3902593Y26308290D01*
X3876939Y26277077D01*
X3838745Y26245522D01*
X3799182Y26217246D01*
X3835390Y26189883D01*
X3842294Y26184545D01*
X3861824Y26166470D01*
X3871290Y26149674D01*
X3871833Y26130910D01*
X3864600Y26106932D01*
X3854290Y26085115D01*
X3841068Y26066432D01*
X3824355Y26051011D01*
X3803534Y26038892D01*
X3777992Y26030119D01*
X3747112Y26024736D01*
X3710281Y26022785D01*
X3666884Y26024309D01*
X3616305Y26029351D01*
X3557931Y26037953D01*
X3491148Y26050161D01*
X3415339Y26066016D01*
X3329890Y26085561D01*
X3234186Y26108839D01*
X3127615Y26135894D01*
X3009558Y26166768D01*
X2947842Y26183196D01*
X2875194Y26202790D01*
X2803892Y26222279D01*
X2735151Y26241318D01*
X2670186Y26259559D01*
X2610214Y26276655D01*
X2556448Y26292260D01*
X2510104Y26306027D01*
X2472398Y26317609D01*
X2444545Y26326657D01*
X2427759Y26332828D01*
X2396055Y26348820D01*
X2369388Y26367501D01*
X2351040Y26386631D01*
X2343024Y26404504D01*
X2343827Y26422491D01*
X2354564Y26446888D01*
X2374893Y26468286D01*
X2403029Y26484311D01*
X2408442Y26486441D01*
X2424187Y26492080D01*
X2439740Y26496359D01*
X2456242Y26499154D01*
X2474841Y26500339D01*
X2496682Y26499787D01*
X2522907Y26497374D01*
X2554665Y26492976D01*
X2593098Y26486464D01*
X2639352Y26477714D01*
X2694572Y26466601D01*
X2759904Y26452998D01*
X2836490Y26436782D01*
X2890964Y26425097D01*
X2970711Y26407626D01*
X3045836Y26390728D01*
X3114768Y26374773D01*
X3175937Y26360122D01*
X3227775Y26347142D01*
X3268713Y26336199D01*
X3396591Y26300342D01*
X3433230Y26323742D01*
X3451879Y26336577D01*
X3465664Y26347816D01*
X3471535Y26354981D01*
X3470465Y26361103D01*
X3459295Y26373594D01*
X3437041Y26388645D01*
X3404417Y26405719D01*
X3397090Y26409023D01*
X3383651Y26414375D01*
X3366503Y26420429D01*
X3344862Y26427401D01*
X3317945Y26435509D01*
X3284970Y26444966D01*
X3245154Y26455990D01*
X3197713Y26468794D01*
X3141866Y26483596D01*
X3076829Y26500610D01*
X3001818Y26520054D01*
X2916051Y26542143D01*
X2818745Y26567091D01*
X2760873Y26581951D01*
X2703309Y26596829D01*
X2649913Y26610727D01*
X2602041Y26623287D01*
X2561051Y26634151D01*
X2528298Y26642961D01*
X2505141Y26649360D01*
X2492934Y26652989D01*
X2460311Y26665430D01*
X2436006Y26679093D01*
X2420528Y26695223D01*
X2411934Y26715893D01*
X2408274Y26743178D01*
X2407159Y26763127D01*
X2407644Y26777238D01*
X2411372Y26788197D01*
X2419886Y26800376D01*
X2434728Y26818149D01*
X2448017Y26833220D01*
X2461770Y26845104D01*
X2476487Y26851656D01*
X2496804Y26855679D01*
X2520943Y26857815D01*
X2551370Y26858437D01*
X2581208Y26857373D01*
G37*
X2581208Y26857373D02*
X2584870Y26857086D01*
X2618168Y26853057D01*
X2660928Y26846005D01*
X2710759Y26836433D01*
X2765266Y26824849D01*
X2822058Y26811757D01*
X2878744Y26797664D01*
X2932930Y26783074D01*
X2936694Y26782016D01*
X2963772Y26774476D01*
X3001198Y26764128D01*
X3047365Y26751415D01*
X3100663Y26736777D01*
X3159485Y26720657D01*
X3222223Y26703494D01*
X3287267Y26685731D01*
X3353011Y26667810D01*
X3362295Y26665279D01*
X3445134Y26642524D01*
X3517839Y26622214D01*
X3580044Y26604455D01*
X3631385Y26589356D01*
X3671500Y26577022D01*
X3700023Y26567561D01*
X3716590Y26561080D01*
X3725129Y26556846D01*
X3758882Y26536979D01*
X3793812Y26512224D01*
X3827882Y26484438D01*
X3859054Y26455484D01*
X3885291Y26427218D01*
X3904557Y26401499D01*
X3914814Y26380189D01*
X3916874Y26370726D01*
X3915856Y26339419D01*
X3902593Y26308290D01*
X3876939Y26277077D01*
X3838745Y26245522D01*
X3799182Y26217246D01*
X3835390Y26189883D01*
X3842294Y26184545D01*
X3861824Y26166470D01*
X3871290Y26149674D01*
X3871833Y26130910D01*
X3864600Y26106932D01*
X3854290Y26085115D01*
X3841068Y26066432D01*
X3824355Y26051011D01*
X3803534Y26038892D01*
X3777992Y26030119D01*
X3747112Y26024736D01*
X3710281Y26022785D01*
X3666884Y26024309D01*
X3616305Y26029351D01*
X3557931Y26037953D01*
X3491148Y26050161D01*
X3415339Y26066016D01*
X3329890Y26085561D01*
X3234186Y26108839D01*
X3127615Y26135894D01*
X3009558Y26166768D01*
X2947842Y26183196D01*
X2875194Y26202790D01*
X2803892Y26222279D01*
X2735151Y26241318D01*
X2670186Y26259559D01*
X2610214Y26276655D01*
X2556448Y26292260D01*
X2510104Y26306027D01*
X2472398Y26317609D01*
X2444545Y26326657D01*
X2427759Y26332828D01*
X2396055Y26348820D01*
X2369388Y26367501D01*
X2351040Y26386631D01*
X2343024Y26404504D01*
X2343827Y26422491D01*
X2354564Y26446888D01*
X2374893Y26468286D01*
X2403029Y26484311D01*
X2408442Y26486441D01*
X2424187Y26492080D01*
X2439740Y26496359D01*
X2456242Y26499154D01*
X2474841Y26500339D01*
X2496682Y26499787D01*
X2522907Y26497374D01*
X2554665Y26492976D01*
X2593098Y26486464D01*
X2639352Y26477714D01*
X2694572Y26466601D01*
X2759904Y26452998D01*
X2836490Y26436782D01*
X2890964Y26425097D01*
X2970711Y26407626D01*
X3045836Y26390728D01*
X3114768Y26374773D01*
X3175937Y26360122D01*
X3227775Y26347142D01*
X3268713Y26336199D01*
X3396591Y26300342D01*
X3433230Y26323742D01*
X3451879Y26336577D01*
X3465664Y26347816D01*
X3471535Y26354981D01*
X3470465Y26361103D01*
X3459295Y26373594D01*
X3437041Y26388645D01*
X3404417Y26405719D01*
X3397090Y26409023D01*
X3383651Y26414375D01*
X3366503Y26420429D01*
X3344862Y26427401D01*
X3317945Y26435509D01*
X3284970Y26444966D01*
X3245154Y26455990D01*
X3197713Y26468794D01*
X3141866Y26483596D01*
X3076829Y26500610D01*
X3001818Y26520054D01*
X2916051Y26542143D01*
X2818745Y26567091D01*
X2760873Y26581951D01*
X2703309Y26596829D01*
X2649913Y26610727D01*
X2602041Y26623287D01*
X2561051Y26634151D01*
X2528298Y26642961D01*
X2505141Y26649360D01*
X2492934Y26652989D01*
X2460311Y26665430D01*
X2436006Y26679093D01*
X2420528Y26695223D01*
X2411934Y26715893D01*
X2408274Y26743178D01*
X2407159Y26763127D01*
X2407644Y26777238D01*
X2411372Y26788197D01*
X2419886Y26800376D01*
X2434728Y26818149D01*
X2448017Y26833220D01*
X2461770Y26845104D01*
X2476487Y26851656D01*
X2496804Y26855679D01*
X2520943Y26857815D01*
X2551370Y26858437D01*
X2581208Y26857373D01*
G36*
X2576285Y27799950D02*
G01*
X2593125Y27799690D01*
X2669081Y27794859D01*
X2737982Y27784314D01*
X2798625Y27768353D01*
X2849806Y27747280D01*
X2890318Y27721393D01*
X2903760Y27708455D01*
X2920050Y27687775D01*
X2933599Y27665553D01*
X2942329Y27645298D01*
X2944159Y27630516D01*
X2942173Y27623441D01*
X2935533Y27611464D01*
X2924077Y27601196D01*
X2906503Y27592153D01*
X2881504Y27583856D01*
X2847775Y27575824D01*
X2804010Y27567578D01*
X2748906Y27558636D01*
X2747139Y27558362D01*
X2716687Y27553334D01*
X2690677Y27548486D01*
X2671817Y27544362D01*
X2662820Y27541497D01*
X2658272Y27534150D01*
X2662051Y27520862D01*
X2674770Y27503933D01*
X2695206Y27484667D01*
X2722134Y27464363D01*
X2754330Y27444319D01*
X2763268Y27439449D01*
X2777622Y27432654D01*
X2794015Y27426470D01*
X2814532Y27420291D01*
X2841262Y27413512D01*
X2876287Y27405527D01*
X2921696Y27395732D01*
X2962177Y27387368D01*
X3022501Y27376222D01*
X3076000Y27368504D01*
X3125981Y27363950D01*
X3175756Y27362298D01*
X3228632Y27363284D01*
X3287918Y27366646D01*
X3307522Y27368119D01*
X3359242Y27373139D01*
X3401059Y27379045D01*
X3432272Y27385700D01*
X3452187Y27392965D01*
X3460103Y27400703D01*
X3460719Y27404486D01*
X3460118Y27411493D01*
X3455928Y27417743D01*
X3446887Y27423701D01*
X3431726Y27429837D01*
X3409181Y27436616D01*
X3377985Y27444508D01*
X3336871Y27453978D01*
X3284576Y27465494D01*
X3124182Y27500416D01*
X3092604Y27525775D01*
X3077749Y27538633D01*
X3063945Y27552747D01*
X3057123Y27562625D01*
X3056826Y27571160D01*
X3063379Y27588754D01*
X3076608Y27609348D01*
X3094525Y27630016D01*
X3115138Y27647835D01*
X3128344Y27656552D01*
X3165300Y27675725D01*
X3208206Y27692699D01*
X3252379Y27705755D01*
X3293141Y27713174D01*
X3298408Y27713723D01*
X3317312Y27715185D01*
X3335023Y27715274D01*
X3354253Y27713688D01*
X3377716Y27710124D01*
X3408121Y27704278D01*
X3448181Y27695847D01*
X3477171Y27689524D01*
X3512276Y27681324D01*
X3539620Y27673933D01*
X3562045Y27666471D01*
X3582395Y27658060D01*
X3603515Y27647820D01*
X3607518Y27645762D01*
X3666743Y27610698D01*
X3717260Y27571782D01*
X3758071Y27530023D01*
X3788181Y27486434D01*
X3806590Y27442024D01*
X3811712Y27424203D01*
X3819295Y27399961D01*
X3825683Y27381766D01*
X3834158Y27360146D01*
X3804855Y27331808D01*
X3790273Y27317123D01*
X3767622Y27292850D01*
X3747385Y27269711D01*
X3736461Y27257169D01*
X3723946Y27245240D01*
X3709999Y27235822D01*
X3692408Y27227959D01*
X3668958Y27220694D01*
X3637439Y27213073D01*
X3595637Y27204139D01*
X3551493Y27195536D01*
X3490543Y27185733D01*
X3427169Y27178121D01*
X3357959Y27172307D01*
X3279501Y27167904D01*
X3269955Y27167487D01*
X3183370Y27165528D01*
X3100307Y27167299D01*
X3017738Y27173077D01*
X2932635Y27183141D01*
X2841968Y27197769D01*
X2742707Y27217242D01*
X2697653Y27227129D01*
X2645070Y27240290D01*
X2599971Y27254033D01*
X2559385Y27269396D01*
X2520334Y27287421D01*
X2479846Y27309147D01*
X2456375Y27323439D01*
X2423081Y27346010D01*
X2387783Y27371925D01*
X2353036Y27399170D01*
X2321393Y27425728D01*
X2295409Y27449584D01*
X2277639Y27468722D01*
X2277163Y27469322D01*
X2266959Y27483362D01*
X2259343Y27497557D01*
X2253661Y27514411D01*
X2249255Y27536428D01*
X2245465Y27566115D01*
X2241637Y27605979D01*
X2239331Y27634781D01*
X2237658Y27662101D01*
X2236950Y27682851D01*
X2237353Y27693996D01*
X2240548Y27700273D01*
X2254631Y27713828D01*
X2278733Y27730804D01*
X2311737Y27750443D01*
X2352525Y27771988D01*
X2371902Y27780849D01*
X2392973Y27788116D01*
X2416520Y27793410D01*
X2444584Y27796985D01*
X2479206Y27799097D01*
X2522426Y27800001D01*
X2576285Y27799950D01*
G37*
X2576285Y27799950D02*
X2593125Y27799690D01*
X2669081Y27794859D01*
X2737982Y27784314D01*
X2798625Y27768353D01*
X2849806Y27747280D01*
X2890318Y27721393D01*
X2903760Y27708455D01*
X2920050Y27687775D01*
X2933599Y27665553D01*
X2942329Y27645298D01*
X2944159Y27630516D01*
X2942173Y27623441D01*
X2935533Y27611464D01*
X2924077Y27601196D01*
X2906503Y27592153D01*
X2881504Y27583856D01*
X2847775Y27575824D01*
X2804010Y27567578D01*
X2748906Y27558636D01*
X2747139Y27558362D01*
X2716687Y27553334D01*
X2690677Y27548486D01*
X2671817Y27544362D01*
X2662820Y27541497D01*
X2658272Y27534150D01*
X2662051Y27520862D01*
X2674770Y27503933D01*
X2695206Y27484667D01*
X2722134Y27464363D01*
X2754330Y27444319D01*
X2763268Y27439449D01*
X2777622Y27432654D01*
X2794015Y27426470D01*
X2814532Y27420291D01*
X2841262Y27413512D01*
X2876287Y27405527D01*
X2921696Y27395732D01*
X2962177Y27387368D01*
X3022501Y27376222D01*
X3076000Y27368504D01*
X3125981Y27363950D01*
X3175756Y27362298D01*
X3228632Y27363284D01*
X3287918Y27366646D01*
X3307522Y27368119D01*
X3359242Y27373139D01*
X3401059Y27379045D01*
X3432272Y27385700D01*
X3452187Y27392965D01*
X3460103Y27400703D01*
X3460719Y27404486D01*
X3460118Y27411493D01*
X3455928Y27417743D01*
X3446887Y27423701D01*
X3431726Y27429837D01*
X3409181Y27436616D01*
X3377985Y27444508D01*
X3336871Y27453978D01*
X3284576Y27465494D01*
X3124182Y27500416D01*
X3092604Y27525775D01*
X3077749Y27538633D01*
X3063945Y27552747D01*
X3057123Y27562625D01*
X3056826Y27571160D01*
X3063379Y27588754D01*
X3076608Y27609348D01*
X3094525Y27630016D01*
X3115138Y27647835D01*
X3128344Y27656552D01*
X3165300Y27675725D01*
X3208206Y27692699D01*
X3252379Y27705755D01*
X3293141Y27713174D01*
X3298408Y27713723D01*
X3317312Y27715185D01*
X3335023Y27715274D01*
X3354253Y27713688D01*
X3377716Y27710124D01*
X3408121Y27704278D01*
X3448181Y27695847D01*
X3477171Y27689524D01*
X3512276Y27681324D01*
X3539620Y27673933D01*
X3562045Y27666471D01*
X3582395Y27658060D01*
X3603515Y27647820D01*
X3607518Y27645762D01*
X3666743Y27610698D01*
X3717260Y27571782D01*
X3758071Y27530023D01*
X3788181Y27486434D01*
X3806590Y27442024D01*
X3811712Y27424203D01*
X3819295Y27399961D01*
X3825683Y27381766D01*
X3834158Y27360146D01*
X3804855Y27331808D01*
X3790273Y27317123D01*
X3767622Y27292850D01*
X3747385Y27269711D01*
X3736461Y27257169D01*
X3723946Y27245240D01*
X3709999Y27235822D01*
X3692408Y27227959D01*
X3668958Y27220694D01*
X3637439Y27213073D01*
X3595637Y27204139D01*
X3551493Y27195536D01*
X3490543Y27185733D01*
X3427169Y27178121D01*
X3357959Y27172307D01*
X3279501Y27167904D01*
X3269955Y27167487D01*
X3183370Y27165528D01*
X3100307Y27167299D01*
X3017738Y27173077D01*
X2932635Y27183141D01*
X2841968Y27197769D01*
X2742707Y27217242D01*
X2697653Y27227129D01*
X2645070Y27240290D01*
X2599971Y27254033D01*
X2559385Y27269396D01*
X2520334Y27287421D01*
X2479846Y27309147D01*
X2456375Y27323439D01*
X2423081Y27346010D01*
X2387783Y27371925D01*
X2353036Y27399170D01*
X2321393Y27425728D01*
X2295409Y27449584D01*
X2277639Y27468722D01*
X2277163Y27469322D01*
X2266959Y27483362D01*
X2259343Y27497557D01*
X2253661Y27514411D01*
X2249255Y27536428D01*
X2245465Y27566115D01*
X2241637Y27605979D01*
X2239331Y27634781D01*
X2237658Y27662101D01*
X2236950Y27682851D01*
X2237353Y27693996D01*
X2240548Y27700273D01*
X2254631Y27713828D01*
X2278733Y27730804D01*
X2311737Y27750443D01*
X2352525Y27771988D01*
X2371902Y27780849D01*
X2392973Y27788116D01*
X2416520Y27793410D01*
X2444584Y27796985D01*
X2479206Y27799097D01*
X2522426Y27800001D01*
X2576285Y27799950D01*
G36*
X4759424Y23517977D02*
G01*
X4761042Y23507859D01*
X4760923Y23491071D01*
X4760390Y23471932D01*
X4763190Y23432560D01*
X4770781Y23397442D01*
X4782425Y23368656D01*
X4797389Y23348281D01*
X4814937Y23338392D01*
X4823417Y23337587D01*
X4848947Y23341985D01*
X4881390Y23354661D01*
X4919459Y23374966D01*
X4961868Y23402249D01*
X5007334Y23435857D01*
X5025638Y23450227D01*
X5012836Y23389997D01*
X5011810Y23385155D01*
X5006467Y23358762D01*
X5003955Y23341390D01*
X5004310Y23330104D01*
X5007569Y23321969D01*
X5013766Y23314050D01*
X5020276Y23307596D01*
X5036783Y23300134D01*
X5053687Y23305259D01*
X5071248Y23323010D01*
X5075729Y23328842D01*
X5085461Y23340202D01*
X5090798Y23344462D01*
X5092117Y23343244D01*
X5097529Y23333670D01*
X5104608Y23317809D01*
X5106920Y23312627D01*
X5121592Y23289051D01*
X5140985Y23267061D01*
X5161791Y23249991D01*
X5180701Y23241171D01*
X5184668Y23240663D01*
X5196334Y23242276D01*
X5212365Y23248655D01*
X5234738Y23260689D01*
X5265430Y23279268D01*
X5268391Y23281112D01*
X5293351Y23296494D01*
X5313599Y23308679D01*
X5327122Y23316477D01*
X5331914Y23318693D01*
X5331307Y23317357D01*
X5325968Y23307982D01*
X5317071Y23293333D01*
X5308289Y23277410D01*
X5297056Y23245544D01*
X5294617Y23216212D01*
X5300683Y23191319D01*
X5314960Y23172770D01*
X5337157Y23162472D01*
X5348919Y23161307D01*
X5378802Y23165386D01*
X5416450Y23177705D01*
X5460909Y23197918D01*
X5511226Y23225680D01*
X5575003Y23263540D01*
X5564700Y23236984D01*
X5561719Y23229648D01*
X5543286Y23195660D01*
X5517636Y23165268D01*
X5482184Y23135280D01*
X5475304Y23130082D01*
X5451578Y23110592D01*
X5437745Y23094962D01*
X5432938Y23081102D01*
X5436290Y23066929D01*
X5446934Y23050351D01*
X5460934Y23034774D01*
X5481321Y23019527D01*
X5500970Y23011996D01*
X5516921Y23013730D01*
X5517478Y23014057D01*
X5526096Y23022974D01*
X5537992Y23039519D01*
X5550763Y23060382D01*
X5557990Y23072688D01*
X5586433Y23112175D01*
X5617063Y23139938D01*
X5651304Y23156748D01*
X5690582Y23163374D01*
X5736324Y23160586D01*
X5768940Y23154103D01*
X5823037Y23134340D01*
X5839133Y23125776D01*
X5862625Y23111343D01*
X5886674Y23094892D01*
X5909002Y23078150D01*
X5927329Y23062845D01*
X5939379Y23050706D01*
X5942869Y23043462D01*
X5939639Y23041454D01*
X5926030Y23037765D01*
X5904422Y23033830D01*
X5877622Y23030218D01*
X5862013Y23028317D01*
X5801547Y23018526D01*
X5749286Y23006007D01*
X5706122Y22991114D01*
X5672944Y22974201D01*
X5650648Y22955626D01*
X5640125Y22935740D01*
X5639167Y22930042D01*
X5639025Y22905438D01*
X5643739Y22881109D01*
X5652292Y22863107D01*
X5656177Y22859362D01*
X5664798Y22856546D01*
X5679419Y22857170D01*
X5703186Y22861110D01*
X5717823Y22863513D01*
X5744041Y22865454D01*
X5772939Y22864022D01*
X5809273Y22859130D01*
X5832255Y22855131D01*
X5873848Y22845170D01*
X5909621Y22831559D01*
X5944236Y22812313D01*
X5982353Y22785447D01*
X5993112Y22777050D01*
X6016008Y22757945D01*
X6040358Y22736366D01*
X6064307Y22714099D01*
X6086003Y22692928D01*
X6103590Y22674639D01*
X6115217Y22661015D01*
X6119029Y22653841D01*
X6116537Y22652340D01*
X6103895Y22649431D01*
X6083059Y22646395D01*
X6056821Y22643688D01*
X6005648Y22637867D01*
X5948037Y22626673D01*
X5901660Y22611552D01*
X5866833Y22592613D01*
X5843870Y22569964D01*
X5838085Y22560499D01*
X5833476Y22544297D01*
X5837042Y22526564D01*
X5849082Y22503474D01*
X5853187Y22497342D01*
X5870998Y22481139D01*
X5894514Y22473642D01*
X5924621Y22474851D01*
X5962207Y22484764D01*
X6008153Y22503381D01*
X6014136Y22506081D01*
X6034558Y22514869D01*
X6049161Y22520481D01*
X6055109Y22521805D01*
X6056673Y22517034D01*
X6060663Y22502897D01*
X6065956Y22483110D01*
X6073621Y22458370D01*
X6086315Y22429784D01*
X6104124Y22400792D01*
X6128638Y22368871D01*
X6161444Y22331497D01*
X6162297Y22330566D01*
X6182196Y22308378D01*
X6198317Y22289598D01*
X6209028Y22276182D01*
X6212695Y22270086D01*
X6211797Y22268794D01*
X6202744Y22262914D01*
X6187353Y22255748D01*
X6170408Y22247413D01*
X6147543Y22234162D01*
X6124447Y22219195D01*
X6101958Y22201464D01*
X6084173Y22179656D01*
X6078943Y22158690D01*
X6086304Y22138271D01*
X6106289Y22118104D01*
X6138935Y22097895D01*
X6154279Y22089588D01*
X6165561Y22081785D01*
X6168865Y22075353D01*
X6166215Y22068087D01*
X6164815Y22065527D01*
X6157820Y22049887D01*
X6150704Y22030707D01*
X6147117Y22012424D01*
X6151599Y21989311D01*
X6166934Y21971871D01*
X6192293Y21961485D01*
X6198075Y21960155D01*
X6211617Y21955984D01*
X6216667Y21952604D01*
X6214870Y21949890D01*
X6206090Y21940223D01*
X6192612Y21926882D01*
X6176056Y21910390D01*
X6141646Y21868907D01*
X6117849Y21827258D01*
X6108306Y21800212D01*
X6105719Y21769306D01*
X6114561Y21743911D01*
X6134841Y21724015D01*
X6166570Y21709602D01*
X6209756Y21700663D01*
X6228404Y21698093D01*
X6246631Y21694569D01*
X6255621Y21690808D01*
X6257417Y21686189D01*
X6257102Y21685316D01*
X6250552Y21675976D01*
X6237096Y21660053D01*
X6218545Y21639486D01*
X6196715Y21616214D01*
X6173418Y21592177D01*
X6150468Y21569315D01*
X6129678Y21549567D01*
X6117792Y21538312D01*
X6082501Y21498814D01*
X6058656Y21460036D01*
X6045494Y21420484D01*
X6042247Y21378661D01*
X6042897Y21366844D01*
X6048046Y21336826D01*
X6059408Y21310992D01*
X6078739Y21286140D01*
X6107797Y21259066D01*
X6113886Y21253863D01*
X6138046Y21231761D01*
X6155941Y21211543D01*
X6167275Y21191998D01*
X6171755Y21171907D01*
X6169085Y21150059D01*
X6158972Y21125238D01*
X6141122Y21096230D01*
X6115240Y21061821D01*
X6081032Y21020794D01*
X6038202Y20971938D01*
X6001162Y20929192D01*
X5967808Y20887745D01*
X5942615Y20852283D01*
X5924801Y20821590D01*
X5913589Y20794455D01*
X5908197Y20769662D01*
X5907249Y20735904D01*
X5914099Y20706982D01*
X5930232Y20680565D01*
X5957023Y20653371D01*
X5982188Y20630116D01*
X5997855Y20611252D01*
X6003852Y20594344D01*
X6000374Y20576636D01*
X5987611Y20555377D01*
X5965754Y20527814D01*
X5960162Y20520985D01*
X5944745Y20500864D01*
X5933427Y20484166D01*
X5928339Y20473959D01*
X5928882Y20463024D01*
X5936759Y20444257D01*
X5950672Y20424990D01*
X5968139Y20409257D01*
X5977428Y20403501D01*
X5998143Y20392385D01*
X6020718Y20381720D01*
X6033899Y20375406D01*
X6048601Y20365912D01*
X6053143Y20358653D01*
X6053035Y20358221D01*
X6045064Y20348523D01*
X6027678Y20336914D01*
X6003577Y20324764D01*
X5975450Y20313439D01*
X5945998Y20304307D01*
X5892784Y20292535D01*
X5834184Y20285246D01*
X5775200Y20284677D01*
X5712363Y20290820D01*
X5642205Y20303668D01*
X5570795Y20321534D01*
X5504931Y20343938D01*
X5442135Y20372280D01*
X5377614Y20408456D01*
X5375647Y20409656D01*
X5329920Y20439974D01*
X5286560Y20473087D01*
X5247037Y20507528D01*
X5212819Y20541827D01*
X5185377Y20574517D01*
X5166180Y20604128D01*
X5156700Y20629193D01*
X5155479Y20635839D01*
X5155047Y20642327D01*
X5156573Y20648988D01*
X5161056Y20657086D01*
X5169495Y20667882D01*
X5182887Y20682640D01*
X5202232Y20702622D01*
X5228528Y20729091D01*
X5262774Y20763310D01*
X5289481Y20790377D01*
X5319910Y20822063D01*
X5348070Y20852226D01*
X5371683Y20878420D01*
X5388472Y20898202D01*
X5416188Y20934070D01*
X5487736Y21040216D01*
X5550622Y21155172D01*
X5604908Y21279089D01*
X5650656Y21412119D01*
X5687926Y21554412D01*
X5716780Y21706119D01*
X5724995Y21761689D01*
X5737848Y21869932D01*
X5746129Y21974397D01*
X5749741Y22073106D01*
X5748592Y22164079D01*
X5742584Y22245338D01*
X5732202Y22310565D01*
X5715041Y22383944D01*
X5692170Y22462090D01*
X5664581Y22542310D01*
X5633267Y22621916D01*
X5599219Y22698219D01*
X5563430Y22768528D01*
X5526891Y22830154D01*
X5508879Y22856441D01*
X5456419Y22921461D01*
X5394918Y22984481D01*
X5326859Y23043453D01*
X5254725Y23096329D01*
X5180999Y23141057D01*
X5108166Y23175593D01*
X5090751Y23182070D01*
X5051512Y23194307D01*
X5006699Y23206009D01*
X4959817Y23216426D01*
X4914374Y23224809D01*
X4873876Y23230411D01*
X4841828Y23232481D01*
X4816497Y23231930D01*
X4754658Y23226840D01*
X4686015Y23216993D01*
X4613648Y23203085D01*
X4540642Y23185815D01*
X4470082Y23165882D01*
X4405050Y23143982D01*
X4348631Y23120816D01*
X4288648Y23091264D01*
X4179352Y23027792D01*
X4070516Y22952173D01*
X4050056Y22937161D01*
X4018621Y22915896D01*
X3993596Y22901464D01*
X3976439Y22894756D01*
X3968707Y22893891D01*
X3946894Y22894310D01*
X3918372Y22897067D01*
X3885906Y22901653D01*
X3852260Y22907562D01*
X3820198Y22914286D01*
X3792486Y22921319D01*
X3771886Y22928151D01*
X3761164Y22934276D01*
X3756229Y22940809D01*
X3755060Y22947807D01*
X3759073Y22958191D01*
X3768971Y22975694D01*
X3778834Y22994413D01*
X3784893Y23015475D01*
X3783153Y23036816D01*
X3773899Y23063519D01*
X3769365Y23075731D01*
X3761418Y23102213D01*
X3755279Y23128675D01*
X3752611Y23145258D01*
X3750597Y23165630D01*
X3750863Y23178746D01*
X3751523Y23181554D01*
X3759620Y23202203D01*
X3772733Y23226235D01*
X3787813Y23248546D01*
X3801808Y23264028D01*
X3818243Y23277726D01*
X3849177Y23234845D01*
X3878834Y23196625D01*
X3913927Y23157816D01*
X3948995Y23125213D01*
X3982540Y23100062D01*
X4013065Y23083608D01*
X4039071Y23077093D01*
X4061202Y23078949D01*
X4090959Y23091245D01*
X4116639Y23113456D01*
X4136539Y23143971D01*
X4148958Y23181178D01*
X4152084Y23209247D01*
X4146847Y23251115D01*
X4129472Y23294132D01*
X4117731Y23316142D01*
X4204497Y23300575D01*
X4227632Y23296522D01*
X4261522Y23291463D01*
X4286882Y23289746D01*
X4306217Y23291767D01*
X4322026Y23297926D01*
X4336813Y23308621D01*
X4353082Y23324251D01*
X4362523Y23334047D01*
X4374249Y23346731D01*
X4380038Y23353728D01*
X4385431Y23354333D01*
X4399545Y23350945D01*
X4418791Y23343997D01*
X4429418Y23339997D01*
X4465895Y23332253D01*
X4497294Y23335662D01*
X4523057Y23350194D01*
X4529812Y23357404D01*
X4536967Y23373158D01*
X4538155Y23394962D01*
X4533771Y23425588D01*
X4533644Y23426270D01*
X4534026Y23431793D01*
X4539366Y23433783D01*
X4552113Y23432366D01*
X4574714Y23427664D01*
X4586495Y23425282D01*
X4616598Y23421818D01*
X4638274Y23423629D01*
X4659206Y23432421D01*
X4686290Y23449635D01*
X4712867Y23471589D01*
X4734831Y23495237D01*
X4741830Y23503831D01*
X4752408Y23515152D01*
X4758368Y23519205D01*
X4759424Y23517977D01*
G37*
X4759424Y23517977D02*
X4761042Y23507859D01*
X4760923Y23491071D01*
X4760390Y23471932D01*
X4763190Y23432560D01*
X4770781Y23397442D01*
X4782425Y23368656D01*
X4797389Y23348281D01*
X4814937Y23338392D01*
X4823417Y23337587D01*
X4848947Y23341985D01*
X4881390Y23354661D01*
X4919459Y23374966D01*
X4961868Y23402249D01*
X5007334Y23435857D01*
X5025638Y23450227D01*
X5012836Y23389997D01*
X5011810Y23385155D01*
X5006467Y23358762D01*
X5003955Y23341390D01*
X5004310Y23330104D01*
X5007569Y23321969D01*
X5013766Y23314050D01*
X5020276Y23307596D01*
X5036783Y23300134D01*
X5053687Y23305259D01*
X5071248Y23323010D01*
X5075729Y23328842D01*
X5085461Y23340202D01*
X5090798Y23344462D01*
X5092117Y23343244D01*
X5097529Y23333670D01*
X5104608Y23317809D01*
X5106920Y23312627D01*
X5121592Y23289051D01*
X5140985Y23267061D01*
X5161791Y23249991D01*
X5180701Y23241171D01*
X5184668Y23240663D01*
X5196334Y23242276D01*
X5212365Y23248655D01*
X5234738Y23260689D01*
X5265430Y23279268D01*
X5268391Y23281112D01*
X5293351Y23296494D01*
X5313599Y23308679D01*
X5327122Y23316477D01*
X5331914Y23318693D01*
X5331307Y23317357D01*
X5325968Y23307982D01*
X5317071Y23293333D01*
X5308289Y23277410D01*
X5297056Y23245544D01*
X5294617Y23216212D01*
X5300683Y23191319D01*
X5314960Y23172770D01*
X5337157Y23162472D01*
X5348919Y23161307D01*
X5378802Y23165386D01*
X5416450Y23177705D01*
X5460909Y23197918D01*
X5511226Y23225680D01*
X5575003Y23263540D01*
X5564700Y23236984D01*
X5561719Y23229648D01*
X5543286Y23195660D01*
X5517636Y23165268D01*
X5482184Y23135280D01*
X5475304Y23130082D01*
X5451578Y23110592D01*
X5437745Y23094962D01*
X5432938Y23081102D01*
X5436290Y23066929D01*
X5446934Y23050351D01*
X5460934Y23034774D01*
X5481321Y23019527D01*
X5500970Y23011996D01*
X5516921Y23013730D01*
X5517478Y23014057D01*
X5526096Y23022974D01*
X5537992Y23039519D01*
X5550763Y23060382D01*
X5557990Y23072688D01*
X5586433Y23112175D01*
X5617063Y23139938D01*
X5651304Y23156748D01*
X5690582Y23163374D01*
X5736324Y23160586D01*
X5768940Y23154103D01*
X5823037Y23134340D01*
X5839133Y23125776D01*
X5862625Y23111343D01*
X5886674Y23094892D01*
X5909002Y23078150D01*
X5927329Y23062845D01*
X5939379Y23050706D01*
X5942869Y23043462D01*
X5939639Y23041454D01*
X5926030Y23037765D01*
X5904422Y23033830D01*
X5877622Y23030218D01*
X5862013Y23028317D01*
X5801547Y23018526D01*
X5749286Y23006007D01*
X5706122Y22991114D01*
X5672944Y22974201D01*
X5650648Y22955626D01*
X5640125Y22935740D01*
X5639167Y22930042D01*
X5639025Y22905438D01*
X5643739Y22881109D01*
X5652292Y22863107D01*
X5656177Y22859362D01*
X5664798Y22856546D01*
X5679419Y22857170D01*
X5703186Y22861110D01*
X5717823Y22863513D01*
X5744041Y22865454D01*
X5772939Y22864022D01*
X5809273Y22859130D01*
X5832255Y22855131D01*
X5873848Y22845170D01*
X5909621Y22831559D01*
X5944236Y22812313D01*
X5982353Y22785447D01*
X5993112Y22777050D01*
X6016008Y22757945D01*
X6040358Y22736366D01*
X6064307Y22714099D01*
X6086003Y22692928D01*
X6103590Y22674639D01*
X6115217Y22661015D01*
X6119029Y22653841D01*
X6116537Y22652340D01*
X6103895Y22649431D01*
X6083059Y22646395D01*
X6056821Y22643688D01*
X6005648Y22637867D01*
X5948037Y22626673D01*
X5901660Y22611552D01*
X5866833Y22592613D01*
X5843870Y22569964D01*
X5838085Y22560499D01*
X5833476Y22544297D01*
X5837042Y22526564D01*
X5849082Y22503474D01*
X5853187Y22497342D01*
X5870998Y22481139D01*
X5894514Y22473642D01*
X5924621Y22474851D01*
X5962207Y22484764D01*
X6008153Y22503381D01*
X6014136Y22506081D01*
X6034558Y22514869D01*
X6049161Y22520481D01*
X6055109Y22521805D01*
X6056673Y22517034D01*
X6060663Y22502897D01*
X6065956Y22483110D01*
X6073621Y22458370D01*
X6086315Y22429784D01*
X6104124Y22400792D01*
X6128638Y22368871D01*
X6161444Y22331497D01*
X6162297Y22330566D01*
X6182196Y22308378D01*
X6198317Y22289598D01*
X6209028Y22276182D01*
X6212695Y22270086D01*
X6211797Y22268794D01*
X6202744Y22262914D01*
X6187353Y22255748D01*
X6170408Y22247413D01*
X6147543Y22234162D01*
X6124447Y22219195D01*
X6101958Y22201464D01*
X6084173Y22179656D01*
X6078943Y22158690D01*
X6086304Y22138271D01*
X6106289Y22118104D01*
X6138935Y22097895D01*
X6154279Y22089588D01*
X6165561Y22081785D01*
X6168865Y22075353D01*
X6166215Y22068087D01*
X6164815Y22065527D01*
X6157820Y22049887D01*
X6150704Y22030707D01*
X6147117Y22012424D01*
X6151599Y21989311D01*
X6166934Y21971871D01*
X6192293Y21961485D01*
X6198075Y21960155D01*
X6211617Y21955984D01*
X6216667Y21952604D01*
X6214870Y21949890D01*
X6206090Y21940223D01*
X6192612Y21926882D01*
X6176056Y21910390D01*
X6141646Y21868907D01*
X6117849Y21827258D01*
X6108306Y21800212D01*
X6105719Y21769306D01*
X6114561Y21743911D01*
X6134841Y21724015D01*
X6166570Y21709602D01*
X6209756Y21700663D01*
X6228404Y21698093D01*
X6246631Y21694569D01*
X6255621Y21690808D01*
X6257417Y21686189D01*
X6257102Y21685316D01*
X6250552Y21675976D01*
X6237096Y21660053D01*
X6218545Y21639486D01*
X6196715Y21616214D01*
X6173418Y21592177D01*
X6150468Y21569315D01*
X6129678Y21549567D01*
X6117792Y21538312D01*
X6082501Y21498814D01*
X6058656Y21460036D01*
X6045494Y21420484D01*
X6042247Y21378661D01*
X6042897Y21366844D01*
X6048046Y21336826D01*
X6059408Y21310992D01*
X6078739Y21286140D01*
X6107797Y21259066D01*
X6113886Y21253863D01*
X6138046Y21231761D01*
X6155941Y21211543D01*
X6167275Y21191998D01*
X6171755Y21171907D01*
X6169085Y21150059D01*
X6158972Y21125238D01*
X6141122Y21096230D01*
X6115240Y21061821D01*
X6081032Y21020794D01*
X6038202Y20971938D01*
X6001162Y20929192D01*
X5967808Y20887745D01*
X5942615Y20852283D01*
X5924801Y20821590D01*
X5913589Y20794455D01*
X5908197Y20769662D01*
X5907249Y20735904D01*
X5914099Y20706982D01*
X5930232Y20680565D01*
X5957023Y20653371D01*
X5982188Y20630116D01*
X5997855Y20611252D01*
X6003852Y20594344D01*
X6000374Y20576636D01*
X5987611Y20555377D01*
X5965754Y20527814D01*
X5960162Y20520985D01*
X5944745Y20500864D01*
X5933427Y20484166D01*
X5928339Y20473959D01*
X5928882Y20463024D01*
X5936759Y20444257D01*
X5950672Y20424990D01*
X5968139Y20409257D01*
X5977428Y20403501D01*
X5998143Y20392385D01*
X6020718Y20381720D01*
X6033899Y20375406D01*
X6048601Y20365912D01*
X6053143Y20358653D01*
X6053035Y20358221D01*
X6045064Y20348523D01*
X6027678Y20336914D01*
X6003577Y20324764D01*
X5975450Y20313439D01*
X5945998Y20304307D01*
X5892784Y20292535D01*
X5834184Y20285246D01*
X5775200Y20284677D01*
X5712363Y20290820D01*
X5642205Y20303668D01*
X5570795Y20321534D01*
X5504931Y20343938D01*
X5442135Y20372280D01*
X5377614Y20408456D01*
X5375647Y20409656D01*
X5329920Y20439974D01*
X5286560Y20473087D01*
X5247037Y20507528D01*
X5212819Y20541827D01*
X5185377Y20574517D01*
X5166180Y20604128D01*
X5156700Y20629193D01*
X5155479Y20635839D01*
X5155047Y20642327D01*
X5156573Y20648988D01*
X5161056Y20657086D01*
X5169495Y20667882D01*
X5182887Y20682640D01*
X5202232Y20702622D01*
X5228528Y20729091D01*
X5262774Y20763310D01*
X5289481Y20790377D01*
X5319910Y20822063D01*
X5348070Y20852226D01*
X5371683Y20878420D01*
X5388472Y20898202D01*
X5416188Y20934070D01*
X5487736Y21040216D01*
X5550622Y21155172D01*
X5604908Y21279089D01*
X5650656Y21412119D01*
X5687926Y21554412D01*
X5716780Y21706119D01*
X5724995Y21761689D01*
X5737848Y21869932D01*
X5746129Y21974397D01*
X5749741Y22073106D01*
X5748592Y22164079D01*
X5742584Y22245338D01*
X5732202Y22310565D01*
X5715041Y22383944D01*
X5692170Y22462090D01*
X5664581Y22542310D01*
X5633267Y22621916D01*
X5599219Y22698219D01*
X5563430Y22768528D01*
X5526891Y22830154D01*
X5508879Y22856441D01*
X5456419Y22921461D01*
X5394918Y22984481D01*
X5326859Y23043453D01*
X5254725Y23096329D01*
X5180999Y23141057D01*
X5108166Y23175593D01*
X5090751Y23182070D01*
X5051512Y23194307D01*
X5006699Y23206009D01*
X4959817Y23216426D01*
X4914374Y23224809D01*
X4873876Y23230411D01*
X4841828Y23232481D01*
X4816497Y23231930D01*
X4754658Y23226840D01*
X4686015Y23216993D01*
X4613648Y23203085D01*
X4540642Y23185815D01*
X4470082Y23165882D01*
X4405050Y23143982D01*
X4348631Y23120816D01*
X4288648Y23091264D01*
X4179352Y23027792D01*
X4070516Y22952173D01*
X4050056Y22937161D01*
X4018621Y22915896D01*
X3993596Y22901464D01*
X3976439Y22894756D01*
X3968707Y22893891D01*
X3946894Y22894310D01*
X3918372Y22897067D01*
X3885906Y22901653D01*
X3852260Y22907562D01*
X3820198Y22914286D01*
X3792486Y22921319D01*
X3771886Y22928151D01*
X3761164Y22934276D01*
X3756229Y22940809D01*
X3755060Y22947807D01*
X3759073Y22958191D01*
X3768971Y22975694D01*
X3778834Y22994413D01*
X3784893Y23015475D01*
X3783153Y23036816D01*
X3773899Y23063519D01*
X3769365Y23075731D01*
X3761418Y23102213D01*
X3755279Y23128675D01*
X3752611Y23145258D01*
X3750597Y23165630D01*
X3750863Y23178746D01*
X3751523Y23181554D01*
X3759620Y23202203D01*
X3772733Y23226235D01*
X3787813Y23248546D01*
X3801808Y23264028D01*
X3818243Y23277726D01*
X3849177Y23234845D01*
X3878834Y23196625D01*
X3913927Y23157816D01*
X3948995Y23125213D01*
X3982540Y23100062D01*
X4013065Y23083608D01*
X4039071Y23077093D01*
X4061202Y23078949D01*
X4090959Y23091245D01*
X4116639Y23113456D01*
X4136539Y23143971D01*
X4148958Y23181178D01*
X4152084Y23209247D01*
X4146847Y23251115D01*
X4129472Y23294132D01*
X4117731Y23316142D01*
X4204497Y23300575D01*
X4227632Y23296522D01*
X4261522Y23291463D01*
X4286882Y23289746D01*
X4306217Y23291767D01*
X4322026Y23297926D01*
X4336813Y23308621D01*
X4353082Y23324251D01*
X4362523Y23334047D01*
X4374249Y23346731D01*
X4380038Y23353728D01*
X4385431Y23354333D01*
X4399545Y23350945D01*
X4418791Y23343997D01*
X4429418Y23339997D01*
X4465895Y23332253D01*
X4497294Y23335662D01*
X4523057Y23350194D01*
X4529812Y23357404D01*
X4536967Y23373158D01*
X4538155Y23394962D01*
X4533771Y23425588D01*
X4533644Y23426270D01*
X4534026Y23431793D01*
X4539366Y23433783D01*
X4552113Y23432366D01*
X4574714Y23427664D01*
X4586495Y23425282D01*
X4616598Y23421818D01*
X4638274Y23423629D01*
X4659206Y23432421D01*
X4686290Y23449635D01*
X4712867Y23471589D01*
X4734831Y23495237D01*
X4741830Y23503831D01*
X4752408Y23515152D01*
X4758368Y23519205D01*
X4759424Y23517977D01*
G36*
X1552581Y22344179D02*
G01*
X1580803Y22340822D01*
X1620464Y22332577D01*
X1665844Y22320438D01*
X1713945Y22305289D01*
X1761762Y22288014D01*
X1806294Y22269496D01*
X1813744Y22266202D01*
X1848410Y22251821D01*
X1886471Y22237166D01*
X1920943Y22224953D01*
X1980811Y22205054D01*
X2008553Y22166286D01*
X2017375Y22153122D01*
X2031558Y22129947D01*
X2047572Y22102178D01*
X2064241Y22072035D01*
X2080383Y22041742D01*
X2094822Y22013520D01*
X2106378Y21989592D01*
X2113872Y21972178D01*
X2116126Y21963502D01*
X2118096Y21956218D01*
X2125984Y21940557D01*
X2138309Y21919502D01*
X2153434Y21895629D01*
X2169722Y21871510D01*
X2185536Y21849719D01*
X2199239Y21832831D01*
X2209108Y21822872D01*
X2229062Y21806894D01*
X2247338Y21796601D01*
X2272795Y21790254D01*
X2307703Y21787473D01*
X2345034Y21789134D01*
X2379810Y21795285D01*
X2383535Y21796305D01*
X2408122Y21805873D01*
X2420117Y21817059D01*
X2419518Y21829829D01*
X2406327Y21844153D01*
X2380541Y21859997D01*
X2349463Y21876573D01*
X2309196Y21900474D01*
X2278780Y21922512D01*
X2256832Y21943897D01*
X2241969Y21965845D01*
X2232807Y21989567D01*
X2231566Y22014464D01*
X2241818Y22035791D01*
X2262849Y22053150D01*
X2293927Y22066230D01*
X2334314Y22074724D01*
X2383276Y22078320D01*
X2440075Y22076710D01*
X2442794Y22076513D01*
X2468790Y22073881D01*
X2489639Y22069477D01*
X2510729Y22061784D01*
X2537447Y22049284D01*
X2576462Y22028842D01*
X2624661Y21998451D01*
X2666902Y21964352D01*
X2707129Y21923621D01*
X2721906Y21906919D01*
X2737563Y21888421D01*
X2748063Y21875016D01*
X2751680Y21868827D01*
X2751667Y21868746D01*
X2753273Y21860682D01*
X2758130Y21844242D01*
X2765218Y21822887D01*
X2772690Y21797058D01*
X2774555Y21774605D01*
X2769692Y21753214D01*
X2757324Y21729560D01*
X2736678Y21700321D01*
X2735006Y21698126D01*
X2721497Y21682074D01*
X2707020Y21668898D01*
X2689661Y21657712D01*
X2667505Y21647625D01*
X2638634Y21637747D01*
X2601134Y21627190D01*
X2553091Y21615063D01*
X2522150Y21607823D01*
X2484134Y21600393D01*
X2448992Y21595889D01*
X2414189Y21594335D01*
X2377194Y21595756D01*
X2335474Y21600172D01*
X2286495Y21607610D01*
X2227725Y21618092D01*
X2202721Y21622812D01*
X2147109Y21634227D01*
X2101299Y21645877D01*
X2063290Y21659107D01*
X2031078Y21675264D01*
X2002659Y21695690D01*
X1976033Y21721733D01*
X1949194Y21754736D01*
X1920141Y21796045D01*
X1886870Y21847006D01*
X1870196Y21872757D01*
X1833367Y21927200D01*
X1800219Y21972015D01*
X1769498Y22008504D01*
X1739950Y22037966D01*
X1710322Y22061702D01*
X1679362Y22081014D01*
X1645815Y22097203D01*
X1604050Y22111060D01*
X1563714Y22116974D01*
X1527118Y22114997D01*
X1496423Y22105246D01*
X1473790Y22087838D01*
X1469777Y22078430D01*
X1474156Y22062807D01*
X1489799Y22043398D01*
X1516908Y22019964D01*
X1555689Y21992268D01*
X1564967Y21985984D01*
X1599571Y21960508D01*
X1623710Y21938317D01*
X1638408Y21918084D01*
X1644685Y21898483D01*
X1643562Y21878190D01*
X1639817Y21865708D01*
X1626660Y21845359D01*
X1605049Y21830235D01*
X1574063Y21819964D01*
X1532783Y21814177D01*
X1480287Y21812504D01*
X1411942Y21817893D01*
X1339990Y21835546D01*
X1270843Y21865569D01*
X1255005Y21874159D01*
X1219869Y21894940D01*
X1192092Y21915175D01*
X1168423Y21937814D01*
X1145612Y21965805D01*
X1120409Y22002099D01*
X1074405Y22071446D01*
X1089806Y22143905D01*
X1094643Y22166397D01*
X1100351Y22190691D01*
X1105431Y22207143D01*
X1111015Y22218485D01*
X1118234Y22227457D01*
X1128220Y22236790D01*
X1148438Y22253056D01*
X1198308Y22283378D01*
X1256687Y22307983D01*
X1321203Y22325777D01*
X1322282Y22326002D01*
X1353988Y22331275D01*
X1393890Y22336091D01*
X1437845Y22340119D01*
X1481708Y22343029D01*
X1521334Y22344492D01*
X1552581Y22344179D01*
G37*
X1552581Y22344179D02*
X1580803Y22340822D01*
X1620464Y22332577D01*
X1665844Y22320438D01*
X1713945Y22305289D01*
X1761762Y22288014D01*
X1806294Y22269496D01*
X1813744Y22266202D01*
X1848410Y22251821D01*
X1886471Y22237166D01*
X1920943Y22224953D01*
X1980811Y22205054D01*
X2008553Y22166286D01*
X2017375Y22153122D01*
X2031558Y22129947D01*
X2047572Y22102178D01*
X2064241Y22072035D01*
X2080383Y22041742D01*
X2094822Y22013520D01*
X2106378Y21989592D01*
X2113872Y21972178D01*
X2116126Y21963502D01*
X2118096Y21956218D01*
X2125984Y21940557D01*
X2138309Y21919502D01*
X2153434Y21895629D01*
X2169722Y21871510D01*
X2185536Y21849719D01*
X2199239Y21832831D01*
X2209108Y21822872D01*
X2229062Y21806894D01*
X2247338Y21796601D01*
X2272795Y21790254D01*
X2307703Y21787473D01*
X2345034Y21789134D01*
X2379810Y21795285D01*
X2383535Y21796305D01*
X2408122Y21805873D01*
X2420117Y21817059D01*
X2419518Y21829829D01*
X2406327Y21844153D01*
X2380541Y21859997D01*
X2349463Y21876573D01*
X2309196Y21900474D01*
X2278780Y21922512D01*
X2256832Y21943897D01*
X2241969Y21965845D01*
X2232807Y21989567D01*
X2231566Y22014464D01*
X2241818Y22035791D01*
X2262849Y22053150D01*
X2293927Y22066230D01*
X2334314Y22074724D01*
X2383276Y22078320D01*
X2440075Y22076710D01*
X2442794Y22076513D01*
X2468790Y22073881D01*
X2489639Y22069477D01*
X2510729Y22061784D01*
X2537447Y22049284D01*
X2576462Y22028842D01*
X2624661Y21998451D01*
X2666902Y21964352D01*
X2707129Y21923621D01*
X2721906Y21906919D01*
X2737563Y21888421D01*
X2748063Y21875016D01*
X2751680Y21868827D01*
X2751667Y21868746D01*
X2753273Y21860682D01*
X2758130Y21844242D01*
X2765218Y21822887D01*
X2772690Y21797058D01*
X2774555Y21774605D01*
X2769692Y21753214D01*
X2757324Y21729560D01*
X2736678Y21700321D01*
X2735006Y21698126D01*
X2721497Y21682074D01*
X2707020Y21668898D01*
X2689661Y21657712D01*
X2667505Y21647625D01*
X2638634Y21637747D01*
X2601134Y21627190D01*
X2553091Y21615063D01*
X2522150Y21607823D01*
X2484134Y21600393D01*
X2448992Y21595889D01*
X2414189Y21594335D01*
X2377194Y21595756D01*
X2335474Y21600172D01*
X2286495Y21607610D01*
X2227725Y21618092D01*
X2202721Y21622812D01*
X2147109Y21634227D01*
X2101299Y21645877D01*
X2063290Y21659107D01*
X2031078Y21675264D01*
X2002659Y21695690D01*
X1976033Y21721733D01*
X1949194Y21754736D01*
X1920141Y21796045D01*
X1886870Y21847006D01*
X1870196Y21872757D01*
X1833367Y21927200D01*
X1800219Y21972015D01*
X1769498Y22008504D01*
X1739950Y22037966D01*
X1710322Y22061702D01*
X1679362Y22081014D01*
X1645815Y22097203D01*
X1604050Y22111060D01*
X1563714Y22116974D01*
X1527118Y22114997D01*
X1496423Y22105246D01*
X1473790Y22087838D01*
X1469777Y22078430D01*
X1474156Y22062807D01*
X1489799Y22043398D01*
X1516908Y22019964D01*
X1555689Y21992268D01*
X1564967Y21985984D01*
X1599571Y21960508D01*
X1623710Y21938317D01*
X1638408Y21918084D01*
X1644685Y21898483D01*
X1643562Y21878190D01*
X1639817Y21865708D01*
X1626660Y21845359D01*
X1605049Y21830235D01*
X1574063Y21819964D01*
X1532783Y21814177D01*
X1480287Y21812504D01*
X1411942Y21817893D01*
X1339990Y21835546D01*
X1270843Y21865569D01*
X1255005Y21874159D01*
X1219869Y21894940D01*
X1192092Y21915175D01*
X1168423Y21937814D01*
X1145612Y21965805D01*
X1120409Y22002099D01*
X1074405Y22071446D01*
X1089806Y22143905D01*
X1094643Y22166397D01*
X1100351Y22190691D01*
X1105431Y22207143D01*
X1111015Y22218485D01*
X1118234Y22227457D01*
X1128220Y22236790D01*
X1148438Y22253056D01*
X1198308Y22283378D01*
X1256687Y22307983D01*
X1321203Y22325777D01*
X1322282Y22326002D01*
X1353988Y22331275D01*
X1393890Y22336091D01*
X1437845Y22340119D01*
X1481708Y22343029D01*
X1521334Y22344492D01*
X1552581Y22344179D01*
G36*
X1502357Y21084694D02*
G01*
X1399046Y21098097D01*
X1300901Y21111340D01*
X1208668Y21124307D01*
X1123096Y21136886D01*
X1044930Y21148963D01*
X974917Y21160426D01*
X913803Y21171159D01*
X862337Y21181052D01*
X821265Y21189989D01*
X791332Y21197857D01*
X773286Y21204544D01*
X748475Y21220690D01*
X721734Y21248353D01*
X704436Y21280159D01*
X700996Y21291867D01*
X699661Y21317804D01*
X708918Y21337375D01*
X728550Y21349951D01*
X749786Y21356589D01*
X795850Y21365951D01*
X850819Y21371346D01*
X915495Y21372805D01*
X990676Y21370362D01*
X1077163Y21364048D01*
X1101123Y21361935D01*
X1154445Y21357479D01*
X1196676Y21354408D01*
X1228916Y21352694D01*
X1252268Y21352309D01*
X1267829Y21353225D01*
X1276703Y21355414D01*
X1279990Y21358846D01*
X1279977Y21360698D01*
X1276989Y21372828D01*
X1270405Y21392313D01*
X1268664Y21396819D01*
X1623666Y21396819D01*
X1640353Y21375399D01*
X1650716Y21362461D01*
X1664995Y21347276D01*
X1679649Y21336946D01*
X1697749Y21330020D01*
X1722370Y21325051D01*
X1756583Y21320589D01*
X1774982Y21318553D01*
X1809407Y21315038D01*
X1852889Y21310814D01*
X1903354Y21306069D01*
X1958731Y21300986D01*
X2016947Y21295748D01*
X2075930Y21290541D01*
X2133610Y21285548D01*
X2187912Y21280955D01*
X2236767Y21276942D01*
X2278099Y21273698D01*
X2309839Y21271405D01*
X2334233Y21270072D01*
X2359798Y21269411D01*
X2378502Y21269787D01*
X2387447Y21271205D01*
X2389960Y21278466D01*
X2383698Y21292577D01*
X2381251Y21296122D01*
X2374982Y21302709D01*
X2365692Y21308239D01*
X2351036Y21313661D01*
X2328668Y21319923D01*
X2296244Y21327977D01*
X2272678Y21333217D01*
X2229038Y21341528D01*
X2176619Y21350329D01*
X2117733Y21359321D01*
X2054687Y21368206D01*
X1989790Y21376687D01*
X1925350Y21384464D01*
X1863678Y21391241D01*
X1807079Y21396719D01*
X1757863Y21400599D01*
X1718340Y21402585D01*
X1711269Y21402747D01*
X1683674Y21402787D01*
X1659695Y21401979D01*
X1643867Y21400453D01*
X1623666Y21396819D01*
X1268664Y21396819D01*
X1261285Y21415920D01*
X1255095Y21431364D01*
X1247855Y21452155D01*
X1244886Y21468297D01*
X1245593Y21484226D01*
X1249375Y21504376D01*
X1252854Y21518830D01*
X1258750Y21534698D01*
X1267631Y21547035D01*
X1281376Y21557115D01*
X1301865Y21566209D01*
X1330975Y21575592D01*
X1370584Y21586538D01*
X1411909Y21596108D01*
X1490003Y21607958D01*
X1577843Y21614411D01*
X1674302Y21615401D01*
X1778249Y21610859D01*
X1799026Y21609178D01*
X1832184Y21606019D01*
X1873758Y21601729D01*
X1922128Y21596499D01*
X1975674Y21590523D01*
X2032781Y21583994D01*
X2091828Y21577103D01*
X2151197Y21570044D01*
X2209269Y21563010D01*
X2264428Y21556193D01*
X2315053Y21549785D01*
X2359525Y21543979D01*
X2396229Y21538968D01*
X2423543Y21534945D01*
X2439850Y21532103D01*
X2446981Y21530458D01*
X2474587Y21522810D01*
X2506540Y21512584D01*
X2537279Y21501524D01*
X2549770Y21496627D01*
X2605464Y21472013D01*
X2650678Y21446397D01*
X2687250Y21418420D01*
X2717018Y21386718D01*
X2741821Y21349929D01*
X2755894Y21320922D01*
X2761821Y21292749D01*
X2757950Y21264353D01*
X2744371Y21231701D01*
X2726872Y21197356D01*
X2747653Y21183093D01*
X2772898Y21165359D01*
X2802604Y21143331D01*
X2827077Y21123835D01*
X2844508Y21108329D01*
X2853086Y21098268D01*
X2854526Y21094976D01*
X2856118Y21074659D01*
X2849253Y21050879D01*
X2835612Y21026757D01*
X2816878Y21005413D01*
X2794731Y20989968D01*
X2787199Y20986883D01*
X2760986Y20980329D01*
X2725487Y20975247D01*
X2683082Y20971793D01*
X2636144Y20970129D01*
X2587052Y20970412D01*
X2538181Y20972801D01*
X2530988Y20973341D01*
X2494212Y20976399D01*
X2446768Y20980703D01*
X2390225Y20986092D01*
X2326150Y20992406D01*
X2256111Y20999480D01*
X2181673Y21007158D01*
X2104406Y21015274D01*
X2025876Y21023670D01*
X1947650Y21032182D01*
X1871296Y21040652D01*
X1798379Y21048915D01*
X1721491Y21057856D01*
X1641931Y21067415D01*
X1610088Y21071242D01*
X1502357Y21084694D01*
G37*
X1502357Y21084694D02*
X1399046Y21098097D01*
X1300901Y21111340D01*
X1208668Y21124307D01*
X1123096Y21136886D01*
X1044930Y21148963D01*
X974917Y21160426D01*
X913803Y21171159D01*
X862337Y21181052D01*
X821265Y21189989D01*
X791332Y21197857D01*
X773286Y21204544D01*
X748475Y21220690D01*
X721734Y21248353D01*
X704436Y21280159D01*
X700996Y21291867D01*
X699661Y21317804D01*
X708918Y21337375D01*
X728550Y21349951D01*
X749786Y21356589D01*
X795850Y21365951D01*
X850819Y21371346D01*
X915495Y21372805D01*
X990676Y21370362D01*
X1077163Y21364048D01*
X1101123Y21361935D01*
X1154445Y21357479D01*
X1196676Y21354408D01*
X1228916Y21352694D01*
X1252268Y21352309D01*
X1267829Y21353225D01*
X1276703Y21355414D01*
X1279990Y21358846D01*
X1279977Y21360698D01*
X1276989Y21372828D01*
X1270405Y21392313D01*
X1268664Y21396819D01*
X1623666Y21396819D01*
X1640353Y21375399D01*
X1650716Y21362461D01*
X1664995Y21347276D01*
X1679649Y21336946D01*
X1697749Y21330020D01*
X1722370Y21325051D01*
X1756583Y21320589D01*
X1774982Y21318553D01*
X1809407Y21315038D01*
X1852889Y21310814D01*
X1903354Y21306069D01*
X1958731Y21300986D01*
X2016947Y21295748D01*
X2075930Y21290541D01*
X2133610Y21285548D01*
X2187912Y21280955D01*
X2236767Y21276942D01*
X2278099Y21273698D01*
X2309839Y21271405D01*
X2334233Y21270072D01*
X2359798Y21269411D01*
X2378502Y21269787D01*
X2387447Y21271205D01*
X2389960Y21278466D01*
X2383698Y21292577D01*
X2381251Y21296122D01*
X2374982Y21302709D01*
X2365692Y21308239D01*
X2351036Y21313661D01*
X2328668Y21319923D01*
X2296244Y21327977D01*
X2272678Y21333217D01*
X2229038Y21341528D01*
X2176619Y21350329D01*
X2117733Y21359321D01*
X2054687Y21368206D01*
X1989790Y21376687D01*
X1925350Y21384464D01*
X1863678Y21391241D01*
X1807079Y21396719D01*
X1757863Y21400599D01*
X1718340Y21402585D01*
X1711269Y21402747D01*
X1683674Y21402787D01*
X1659695Y21401979D01*
X1643867Y21400453D01*
X1623666Y21396819D01*
X1268664Y21396819D01*
X1261285Y21415920D01*
X1255095Y21431364D01*
X1247855Y21452155D01*
X1244886Y21468297D01*
X1245593Y21484226D01*
X1249375Y21504376D01*
X1252854Y21518830D01*
X1258750Y21534698D01*
X1267631Y21547035D01*
X1281376Y21557115D01*
X1301865Y21566209D01*
X1330975Y21575592D01*
X1370584Y21586538D01*
X1411909Y21596108D01*
X1490003Y21607958D01*
X1577843Y21614411D01*
X1674302Y21615401D01*
X1778249Y21610859D01*
X1799026Y21609178D01*
X1832184Y21606019D01*
X1873758Y21601729D01*
X1922128Y21596499D01*
X1975674Y21590523D01*
X2032781Y21583994D01*
X2091828Y21577103D01*
X2151197Y21570044D01*
X2209269Y21563010D01*
X2264428Y21556193D01*
X2315053Y21549785D01*
X2359525Y21543979D01*
X2396229Y21538968D01*
X2423543Y21534945D01*
X2439850Y21532103D01*
X2446981Y21530458D01*
X2474587Y21522810D01*
X2506540Y21512584D01*
X2537279Y21501524D01*
X2549770Y21496627D01*
X2605464Y21472013D01*
X2650678Y21446397D01*
X2687250Y21418420D01*
X2717018Y21386718D01*
X2741821Y21349929D01*
X2755894Y21320922D01*
X2761821Y21292749D01*
X2757950Y21264353D01*
X2744371Y21231701D01*
X2726872Y21197356D01*
X2747653Y21183093D01*
X2772898Y21165359D01*
X2802604Y21143331D01*
X2827077Y21123835D01*
X2844508Y21108329D01*
X2853086Y21098268D01*
X2854526Y21094976D01*
X2856118Y21074659D01*
X2849253Y21050879D01*
X2835612Y21026757D01*
X2816878Y21005413D01*
X2794731Y20989968D01*
X2787199Y20986883D01*
X2760986Y20980329D01*
X2725487Y20975247D01*
X2683082Y20971793D01*
X2636144Y20970129D01*
X2587052Y20970412D01*
X2538181Y20972801D01*
X2530988Y20973341D01*
X2494212Y20976399D01*
X2446768Y20980703D01*
X2390225Y20986092D01*
X2326150Y20992406D01*
X2256111Y20999480D01*
X2181673Y21007158D01*
X2104406Y21015274D01*
X2025876Y21023670D01*
X1947650Y21032182D01*
X1871296Y21040652D01*
X1798379Y21048915D01*
X1721491Y21057856D01*
X1641931Y21067415D01*
X1610088Y21071242D01*
X1502357Y21084694D01*
G36*
X1668371Y22913050D02*
G01*
X1771659Y22907341D01*
X1772732Y22907257D01*
X1829921Y22902379D01*
X1895451Y22896134D01*
X1966696Y22888823D01*
X2041032Y22880744D01*
X2115835Y22872198D01*
X2188479Y22863484D01*
X2256339Y22854902D01*
X2316790Y22846752D01*
X2367208Y22839333D01*
X2399049Y22834388D01*
X2447825Y22826896D01*
X2496861Y22819447D01*
X2541889Y22812689D01*
X2578640Y22807266D01*
X2601437Y22803845D01*
X2636291Y22797894D01*
X2662854Y22792043D01*
X2683979Y22785613D01*
X2702512Y22777931D01*
X2719480Y22770521D01*
X2746951Y22759459D01*
X2779038Y22747207D01*
X2811762Y22735317D01*
X2840807Y22724740D01*
X2878456Y22709291D01*
X2905318Y22695157D01*
X2922386Y22681445D01*
X2930656Y22667264D01*
X2931122Y22651719D01*
X2924781Y22633919D01*
X2917181Y22622918D01*
X2899488Y22605107D01*
X2876434Y22586431D01*
X2851485Y22569633D01*
X2828107Y22557451D01*
X2821701Y22554744D01*
X2811629Y22550547D01*
X2802103Y22547086D01*
X2792192Y22544470D01*
X2780963Y22542805D01*
X2767485Y22542202D01*
X2750826Y22542768D01*
X2730054Y22544611D01*
X2704237Y22547840D01*
X2672445Y22552562D01*
X2633744Y22558887D01*
X2587202Y22566922D01*
X2531890Y22576775D01*
X2466874Y22588555D01*
X2391222Y22602371D01*
X2304003Y22618330D01*
X2294708Y22620028D01*
X2226542Y22632410D01*
X2169695Y22642547D01*
X2123144Y22650578D01*
X2085862Y22656642D01*
X2056825Y22660878D01*
X2035009Y22663422D01*
X2019389Y22664414D01*
X2008940Y22663994D01*
X2002639Y22662297D01*
X1999458Y22659463D01*
X2000216Y22653712D01*
X2010068Y22642618D01*
X2028223Y22628616D01*
X2052812Y22612973D01*
X2081968Y22596959D01*
X2113820Y22581840D01*
X2129360Y22575242D01*
X2156801Y22563931D01*
X2192768Y22549322D01*
X2235493Y22532128D01*
X2283208Y22513060D01*
X2334145Y22492828D01*
X2386538Y22472144D01*
X2393937Y22469231D01*
X2458298Y22443756D01*
X2512277Y22422038D01*
X2557231Y22403421D01*
X2594518Y22387250D01*
X2625498Y22372871D01*
X2651527Y22359629D01*
X2673965Y22346869D01*
X2694170Y22333936D01*
X2713500Y22320175D01*
X2733313Y22304931D01*
X2762264Y22280649D01*
X2788543Y22254041D01*
X2803055Y22232187D01*
X2805804Y22215084D01*
X2797552Y22202894D01*
X2778879Y22189544D01*
X2751984Y22175909D01*
X2719051Y22162772D01*
X2682260Y22150912D01*
X2643792Y22141113D01*
X2605831Y22134155D01*
X2570556Y22130819D01*
X2531428Y22129329D01*
X2242923Y22269227D01*
X2209784Y22285305D01*
X2121083Y22328430D01*
X2043142Y22366477D01*
X1975426Y22399715D01*
X1917401Y22428409D01*
X1868532Y22452824D01*
X1828286Y22473228D01*
X1796127Y22489887D01*
X1771522Y22503068D01*
X1753936Y22513037D01*
X1753932Y22513039D01*
X1732063Y22526974D01*
X1712340Y22542111D01*
X1692343Y22560706D01*
X1669648Y22585010D01*
X1641833Y22617278D01*
X1624856Y22637180D01*
X1608651Y22655653D01*
X1597004Y22668323D01*
X1591696Y22673206D01*
X1588787Y22673459D01*
X1572539Y22669540D01*
X1549508Y22658885D01*
X1521908Y22642755D01*
X1491948Y22622414D01*
X1461840Y22599120D01*
X1437610Y22579083D01*
X1411721Y22557673D01*
X1389462Y22539263D01*
X1373911Y22526401D01*
X1365345Y22519941D01*
X1339962Y22504687D01*
X1314658Y22493553D01*
X1303388Y22489957D01*
X1292246Y22487396D01*
X1280426Y22486571D01*
X1265581Y22487672D01*
X1245362Y22490887D01*
X1217424Y22496403D01*
X1179418Y22504410D01*
X1149385Y22510837D01*
X1119207Y22517599D01*
X1097466Y22523177D01*
X1081885Y22528354D01*
X1070195Y22533916D01*
X1060122Y22540650D01*
X1049393Y22549338D01*
X1034151Y22563884D01*
X1012290Y22590262D01*
X994089Y22618371D01*
X982825Y22643575D01*
X982516Y22644676D01*
X981488Y22665032D01*
X985832Y22690395D01*
X994225Y22715413D01*
X1005347Y22734736D01*
X1019254Y22748493D01*
X1041824Y22766919D01*
X1069873Y22787651D01*
X1100543Y22808728D01*
X1130970Y22828186D01*
X1158295Y22844061D01*
X1179658Y22854388D01*
X1231405Y22871849D01*
X1303211Y22888942D01*
X1384307Y22901743D01*
X1473198Y22910116D01*
X1568384Y22913930D01*
X1668371Y22913050D01*
G37*
X1668371Y22913050D02*
X1771659Y22907341D01*
X1772732Y22907257D01*
X1829921Y22902379D01*
X1895451Y22896134D01*
X1966696Y22888823D01*
X2041032Y22880744D01*
X2115835Y22872198D01*
X2188479Y22863484D01*
X2256339Y22854902D01*
X2316790Y22846752D01*
X2367208Y22839333D01*
X2399049Y22834388D01*
X2447825Y22826896D01*
X2496861Y22819447D01*
X2541889Y22812689D01*
X2578640Y22807266D01*
X2601437Y22803845D01*
X2636291Y22797894D01*
X2662854Y22792043D01*
X2683979Y22785613D01*
X2702512Y22777931D01*
X2719480Y22770521D01*
X2746951Y22759459D01*
X2779038Y22747207D01*
X2811762Y22735317D01*
X2840807Y22724740D01*
X2878456Y22709291D01*
X2905318Y22695157D01*
X2922386Y22681445D01*
X2930656Y22667264D01*
X2931122Y22651719D01*
X2924781Y22633919D01*
X2917181Y22622918D01*
X2899488Y22605107D01*
X2876434Y22586431D01*
X2851485Y22569633D01*
X2828107Y22557451D01*
X2821701Y22554744D01*
X2811629Y22550547D01*
X2802103Y22547086D01*
X2792192Y22544470D01*
X2780963Y22542805D01*
X2767485Y22542202D01*
X2750826Y22542768D01*
X2730054Y22544611D01*
X2704237Y22547840D01*
X2672445Y22552562D01*
X2633744Y22558887D01*
X2587202Y22566922D01*
X2531890Y22576775D01*
X2466874Y22588555D01*
X2391222Y22602371D01*
X2304003Y22618330D01*
X2294708Y22620028D01*
X2226542Y22632410D01*
X2169695Y22642547D01*
X2123144Y22650578D01*
X2085862Y22656642D01*
X2056825Y22660878D01*
X2035009Y22663422D01*
X2019389Y22664414D01*
X2008940Y22663994D01*
X2002639Y22662297D01*
X1999458Y22659463D01*
X2000216Y22653712D01*
X2010068Y22642618D01*
X2028223Y22628616D01*
X2052812Y22612973D01*
X2081968Y22596959D01*
X2113820Y22581840D01*
X2129360Y22575242D01*
X2156801Y22563931D01*
X2192768Y22549322D01*
X2235493Y22532128D01*
X2283208Y22513060D01*
X2334145Y22492828D01*
X2386538Y22472144D01*
X2393937Y22469231D01*
X2458298Y22443756D01*
X2512277Y22422038D01*
X2557231Y22403421D01*
X2594518Y22387250D01*
X2625498Y22372871D01*
X2651527Y22359629D01*
X2673965Y22346869D01*
X2694170Y22333936D01*
X2713500Y22320175D01*
X2733313Y22304931D01*
X2762264Y22280649D01*
X2788543Y22254041D01*
X2803055Y22232187D01*
X2805804Y22215084D01*
X2797552Y22202894D01*
X2778879Y22189544D01*
X2751984Y22175909D01*
X2719051Y22162772D01*
X2682260Y22150912D01*
X2643792Y22141113D01*
X2605831Y22134155D01*
X2570556Y22130819D01*
X2531428Y22129329D01*
X2242923Y22269227D01*
X2209784Y22285305D01*
X2121083Y22328430D01*
X2043142Y22366477D01*
X1975426Y22399715D01*
X1917401Y22428409D01*
X1868532Y22452824D01*
X1828286Y22473228D01*
X1796127Y22489887D01*
X1771522Y22503068D01*
X1753936Y22513037D01*
X1753932Y22513039D01*
X1732063Y22526974D01*
X1712340Y22542111D01*
X1692343Y22560706D01*
X1669648Y22585010D01*
X1641833Y22617278D01*
X1624856Y22637180D01*
X1608651Y22655653D01*
X1597004Y22668323D01*
X1591696Y22673206D01*
X1588787Y22673459D01*
X1572539Y22669540D01*
X1549508Y22658885D01*
X1521908Y22642755D01*
X1491948Y22622414D01*
X1461840Y22599120D01*
X1437610Y22579083D01*
X1411721Y22557673D01*
X1389462Y22539263D01*
X1373911Y22526401D01*
X1365345Y22519941D01*
X1339962Y22504687D01*
X1314658Y22493553D01*
X1303388Y22489957D01*
X1292246Y22487396D01*
X1280426Y22486571D01*
X1265581Y22487672D01*
X1245362Y22490887D01*
X1217424Y22496403D01*
X1179418Y22504410D01*
X1149385Y22510837D01*
X1119207Y22517599D01*
X1097466Y22523177D01*
X1081885Y22528354D01*
X1070195Y22533916D01*
X1060122Y22540650D01*
X1049393Y22549338D01*
X1034151Y22563884D01*
X1012290Y22590262D01*
X994089Y22618371D01*
X982825Y22643575D01*
X982516Y22644676D01*
X981488Y22665032D01*
X985832Y22690395D01*
X994225Y22715413D01*
X1005347Y22734736D01*
X1019254Y22748493D01*
X1041824Y22766919D01*
X1069873Y22787651D01*
X1100543Y22808728D01*
X1130970Y22828186D01*
X1158295Y22844061D01*
X1179658Y22854388D01*
X1231405Y22871849D01*
X1303211Y22888942D01*
X1384307Y22901743D01*
X1473198Y22910116D01*
X1568384Y22913930D01*
X1668371Y22913050D01*
G36*
X4567791Y20648112D02*
G01*
X4533352Y20665705D01*
X4495405Y20682349D01*
X4463877Y20692197D01*
X4436738Y20695845D01*
X4411962Y20693890D01*
X4405504Y20692512D01*
X4390588Y20687845D01*
X4374216Y20680239D01*
X4354721Y20668663D01*
X4330444Y20652077D01*
X4299721Y20629448D01*
X4260893Y20599738D01*
X4235721Y20580488D01*
X4189773Y20546897D01*
X4151352Y20521347D01*
X4119406Y20503279D01*
X4092884Y20492132D01*
X4070732Y20487344D01*
X4051900Y20488356D01*
X4043691Y20490441D01*
X4030221Y20496576D01*
X4019872Y20506808D01*
X4011925Y20522856D01*
X4005655Y20546438D01*
X4000342Y20579274D01*
X3995261Y20623080D01*
X3992301Y20650077D01*
X3986702Y20689213D01*
X3979222Y20719522D01*
X3968232Y20743311D01*
X3952102Y20762891D01*
X3929198Y20780568D01*
X3897892Y20798653D01*
X3856553Y20819453D01*
X3838320Y20828312D01*
X3814413Y20839293D01*
X3795042Y20846537D01*
X3775938Y20851263D01*
X3752834Y20854689D01*
X3721460Y20858035D01*
X3703619Y20859671D01*
X3663910Y20862519D01*
X3623974Y20864525D01*
X3590227Y20865331D01*
X3571186Y20865666D01*
X3525777Y20868871D01*
X3486459Y20875123D01*
X3455393Y20884007D01*
X3434738Y20895110D01*
X3422835Y20907404D01*
X3406260Y20931614D01*
X3392401Y20959280D01*
X3384208Y20985145D01*
X3383441Y20989454D01*
X3381352Y21006391D01*
X3380624Y21025717D01*
X3381386Y21049120D01*
X3383768Y21078288D01*
X3387899Y21114912D01*
X3393905Y21160677D01*
X3401918Y21217274D01*
X3406796Y21251411D01*
X3413932Y21304097D01*
X3419006Y21346605D01*
X3422107Y21380432D01*
X3423328Y21407076D01*
X3422759Y21428035D01*
X3420492Y21444807D01*
X3416617Y21458890D01*
X3414620Y21464191D01*
X3401845Y21486670D01*
X3382481Y21504830D01*
X3354489Y21520195D01*
X3315835Y21534285D01*
X3303122Y21538398D01*
X3280502Y21546502D01*
X3264341Y21553373D01*
X3257504Y21557855D01*
X3255083Y21563579D01*
X3248752Y21578502D01*
X3240464Y21598001D01*
X3237209Y21605922D01*
X3218118Y21668334D01*
X3206413Y21740309D01*
X3202138Y21821147D01*
X3205334Y21910142D01*
X3216042Y22006593D01*
X3217091Y22013701D01*
X3231704Y22095490D01*
X3251022Y22179241D01*
X3274468Y22263633D01*
X3299833Y22342278D01*
X4212519Y22342278D01*
X4213762Y22299322D01*
X4224943Y22258171D01*
X4225684Y22256317D01*
X4240954Y22227614D01*
X4262260Y22204264D01*
X4291822Y22184354D01*
X4331859Y22165970D01*
X4396853Y22135443D01*
X4451537Y22099055D01*
X4495395Y22056674D01*
X4528857Y22007790D01*
X4552353Y21951892D01*
X4566313Y21888473D01*
X4569389Y21859955D01*
X4569955Y21802445D01*
X4562672Y21750539D01*
X4547787Y21706610D01*
X4546925Y21704854D01*
X4536371Y21686616D01*
X4520200Y21661882D01*
X4500452Y21633675D01*
X4479171Y21605024D01*
X4471425Y21594898D01*
X4439293Y21552131D01*
X4413985Y21516650D01*
X4394362Y21486462D01*
X4379285Y21459576D01*
X4367620Y21433999D01*
X4358225Y21407740D01*
X4349965Y21378806D01*
X4340519Y21335115D01*
X4335922Y21285050D01*
X4339650Y21237279D01*
X4352167Y21189329D01*
X4373937Y21138731D01*
X4405423Y21083010D01*
X4411128Y21073880D01*
X4457732Y21007265D01*
X4506319Y20952109D01*
X4557957Y20907327D01*
X4613713Y20871837D01*
X4620466Y20868426D01*
X4657408Y20854489D01*
X4701193Y20843691D01*
X4747316Y20836756D01*
X4791272Y20834406D01*
X4828556Y20837365D01*
X4830942Y20837805D01*
X4875811Y20848801D01*
X4924929Y20865023D01*
X4972660Y20884407D01*
X5013365Y20904896D01*
X5026482Y20912880D01*
X5076131Y20950506D01*
X5126407Y20999997D01*
X5176745Y21060751D01*
X5226581Y21132167D01*
X5251489Y21171866D01*
X5271227Y21206743D01*
X5285695Y21237855D01*
X5296184Y21268414D01*
X5303982Y21301628D01*
X5310380Y21340705D01*
X5311545Y21348852D01*
X5319369Y21400186D01*
X5326974Y21441041D01*
X5335232Y21473313D01*
X5345014Y21498900D01*
X5357192Y21519697D01*
X5372637Y21537603D01*
X5392221Y21554512D01*
X5416815Y21572323D01*
X5455019Y21598674D01*
X5461762Y21644746D01*
X5462658Y21651025D01*
X5464784Y21670870D01*
X5464614Y21688009D01*
X5461617Y21706096D01*
X5455261Y21728783D01*
X5445014Y21759721D01*
X5435077Y21789857D01*
X5428500Y21813513D01*
X5425407Y21832179D01*
X5425229Y21849376D01*
X5427397Y21868624D01*
X5430520Y21887425D01*
X5435221Y21903739D01*
X5442704Y21915540D01*
X5455129Y21927399D01*
X5455763Y21927947D01*
X5473928Y21947092D01*
X5485341Y21968148D01*
X5489889Y21992514D01*
X5487461Y22021590D01*
X5477944Y22056773D01*
X5461226Y22099462D01*
X5437196Y22151055D01*
X5426588Y22172720D01*
X5410947Y22205452D01*
X5400177Y22230445D01*
X5393798Y22250073D01*
X5391329Y22266713D01*
X5392293Y22282740D01*
X5396211Y22300529D01*
X5402599Y22322457D01*
X5409803Y22346949D01*
X5413697Y22363759D01*
X5414033Y22375263D01*
X5410895Y22384937D01*
X5404365Y22396264D01*
X5392817Y22411438D01*
X5374985Y22430688D01*
X5354991Y22449468D01*
X5350010Y22453813D01*
X5312829Y22488266D01*
X5283004Y22519697D01*
X5261651Y22546840D01*
X5249892Y22568428D01*
X5247646Y22576581D01*
X5244922Y22601270D01*
X5246069Y22628284D01*
X5249083Y22654817D01*
X5250069Y22675595D01*
X5248036Y22690205D01*
X5242468Y22702007D01*
X5232848Y22714364D01*
X5229639Y22717863D01*
X5207628Y22733434D01*
X5177479Y22742896D01*
X5138074Y22746481D01*
X5088299Y22744420D01*
X5061962Y22742799D01*
X5032056Y22743373D01*
X5012792Y22747301D01*
X5012503Y22747426D01*
X5000483Y22756032D01*
X4982520Y22773193D01*
X4960175Y22797313D01*
X4935011Y22826795D01*
X4875971Y22898479D01*
X4836795Y22903574D01*
X4832421Y22904087D01*
X4784205Y22903233D01*
X4730585Y22891313D01*
X4672005Y22868498D01*
X4608910Y22834956D01*
X4541740Y22790855D01*
X4540015Y22789621D01*
X4459552Y22726186D01*
X4388273Y22658112D01*
X4327054Y22586424D01*
X4276770Y22512144D01*
X4238299Y22436297D01*
X4221356Y22388945D01*
X4212519Y22342278D01*
X3299833Y22342278D01*
X3301466Y22347341D01*
X3331439Y22429042D01*
X3363812Y22507413D01*
X3398007Y22581131D01*
X3433448Y22648870D01*
X3469560Y22709310D01*
X3505765Y22761125D01*
X3541489Y22802993D01*
X3576155Y22833590D01*
X3577807Y22834784D01*
X3588865Y22842516D01*
X3598924Y22848103D01*
X3609636Y22851380D01*
X3622654Y22852184D01*
X3639629Y22850351D01*
X3662215Y22845718D01*
X3692064Y22838120D01*
X3730830Y22827392D01*
X3780163Y22813374D01*
X3822162Y22801868D01*
X3889017Y22785965D01*
X3944831Y22776193D01*
X3989651Y22772543D01*
X4023527Y22775006D01*
X4040164Y22780646D01*
X4062898Y22792131D01*
X4085395Y22806598D01*
X4176786Y22871074D01*
X4266550Y22929154D01*
X4351442Y22978097D01*
X4432773Y23018495D01*
X4511853Y23050944D01*
X4589995Y23076033D01*
X4668512Y23094358D01*
X4748713Y23106512D01*
X4830732Y23111302D01*
X4920838Y23105380D01*
X5007180Y23087431D01*
X5089601Y23057551D01*
X5167944Y23015845D01*
X5242049Y22962410D01*
X5311758Y22897348D01*
X5376915Y22820758D01*
X5437359Y22732743D01*
X5492935Y22633402D01*
X5514602Y22588891D01*
X5556300Y22490076D01*
X5588679Y22391225D01*
X5612172Y22290246D01*
X5627210Y22185050D01*
X5634229Y22073543D01*
X5633659Y21953635D01*
X5633548Y21950710D01*
X5630635Y21913204D01*
X5624898Y21866120D01*
X5616795Y21811907D01*
X5606783Y21753016D01*
X5595320Y21691896D01*
X5582863Y21630997D01*
X5569870Y21572771D01*
X5556798Y21519665D01*
X5544106Y21474131D01*
X5523090Y21407004D01*
X5486296Y21301498D01*
X5447841Y21206650D01*
X5407033Y21121178D01*
X5363184Y21043804D01*
X5315605Y20973246D01*
X5263603Y20908222D01*
X5206491Y20847454D01*
X5172524Y20814865D01*
X5094384Y20747101D01*
X5018695Y20691797D01*
X4945456Y20648954D01*
X4874666Y20618570D01*
X4806324Y20600648D01*
X4740431Y20595184D01*
X4676985Y20602180D01*
X4654221Y20608669D01*
X4651475Y20609784D01*
X4615200Y20624511D01*
X4567791Y20648112D01*
G37*
X4567791Y20648112D02*
X4533352Y20665705D01*
X4495405Y20682349D01*
X4463877Y20692197D01*
X4436738Y20695845D01*
X4411962Y20693890D01*
X4405504Y20692512D01*
X4390588Y20687845D01*
X4374216Y20680239D01*
X4354721Y20668663D01*
X4330444Y20652077D01*
X4299721Y20629448D01*
X4260893Y20599738D01*
X4235721Y20580488D01*
X4189773Y20546897D01*
X4151352Y20521347D01*
X4119406Y20503279D01*
X4092884Y20492132D01*
X4070732Y20487344D01*
X4051900Y20488356D01*
X4043691Y20490441D01*
X4030221Y20496576D01*
X4019872Y20506808D01*
X4011925Y20522856D01*
X4005655Y20546438D01*
X4000342Y20579274D01*
X3995261Y20623080D01*
X3992301Y20650077D01*
X3986702Y20689213D01*
X3979222Y20719522D01*
X3968232Y20743311D01*
X3952102Y20762891D01*
X3929198Y20780568D01*
X3897892Y20798653D01*
X3856553Y20819453D01*
X3838320Y20828312D01*
X3814413Y20839293D01*
X3795042Y20846537D01*
X3775938Y20851263D01*
X3752834Y20854689D01*
X3721460Y20858035D01*
X3703619Y20859671D01*
X3663910Y20862519D01*
X3623974Y20864525D01*
X3590227Y20865331D01*
X3571186Y20865666D01*
X3525777Y20868871D01*
X3486459Y20875123D01*
X3455393Y20884007D01*
X3434738Y20895110D01*
X3422835Y20907404D01*
X3406260Y20931614D01*
X3392401Y20959280D01*
X3384208Y20985145D01*
X3383441Y20989454D01*
X3381352Y21006391D01*
X3380624Y21025717D01*
X3381386Y21049120D01*
X3383768Y21078288D01*
X3387899Y21114912D01*
X3393905Y21160677D01*
X3401918Y21217274D01*
X3406796Y21251411D01*
X3413932Y21304097D01*
X3419006Y21346605D01*
X3422107Y21380432D01*
X3423328Y21407076D01*
X3422759Y21428035D01*
X3420492Y21444807D01*
X3416617Y21458890D01*
X3414620Y21464191D01*
X3401845Y21486670D01*
X3382481Y21504830D01*
X3354489Y21520195D01*
X3315835Y21534285D01*
X3303122Y21538398D01*
X3280502Y21546502D01*
X3264341Y21553373D01*
X3257504Y21557855D01*
X3255083Y21563579D01*
X3248752Y21578502D01*
X3240464Y21598001D01*
X3237209Y21605922D01*
X3218118Y21668334D01*
X3206413Y21740309D01*
X3202138Y21821147D01*
X3205334Y21910142D01*
X3216042Y22006593D01*
X3217091Y22013701D01*
X3231704Y22095490D01*
X3251022Y22179241D01*
X3274468Y22263633D01*
X3299833Y22342278D01*
X4212519Y22342278D01*
X4213762Y22299322D01*
X4224943Y22258171D01*
X4225684Y22256317D01*
X4240954Y22227614D01*
X4262260Y22204264D01*
X4291822Y22184354D01*
X4331859Y22165970D01*
X4396853Y22135443D01*
X4451537Y22099055D01*
X4495395Y22056674D01*
X4528857Y22007790D01*
X4552353Y21951892D01*
X4566313Y21888473D01*
X4569389Y21859955D01*
X4569955Y21802445D01*
X4562672Y21750539D01*
X4547787Y21706610D01*
X4546925Y21704854D01*
X4536371Y21686616D01*
X4520200Y21661882D01*
X4500452Y21633675D01*
X4479171Y21605024D01*
X4471425Y21594898D01*
X4439293Y21552131D01*
X4413985Y21516650D01*
X4394362Y21486462D01*
X4379285Y21459576D01*
X4367620Y21433999D01*
X4358225Y21407740D01*
X4349965Y21378806D01*
X4340519Y21335115D01*
X4335922Y21285050D01*
X4339650Y21237279D01*
X4352167Y21189329D01*
X4373937Y21138731D01*
X4405423Y21083010D01*
X4411128Y21073880D01*
X4457732Y21007265D01*
X4506319Y20952109D01*
X4557957Y20907327D01*
X4613713Y20871837D01*
X4620466Y20868426D01*
X4657408Y20854489D01*
X4701193Y20843691D01*
X4747316Y20836756D01*
X4791272Y20834406D01*
X4828556Y20837365D01*
X4830942Y20837805D01*
X4875811Y20848801D01*
X4924929Y20865023D01*
X4972660Y20884407D01*
X5013365Y20904896D01*
X5026482Y20912880D01*
X5076131Y20950506D01*
X5126407Y20999997D01*
X5176745Y21060751D01*
X5226581Y21132167D01*
X5251489Y21171866D01*
X5271227Y21206743D01*
X5285695Y21237855D01*
X5296184Y21268414D01*
X5303982Y21301628D01*
X5310380Y21340705D01*
X5311545Y21348852D01*
X5319369Y21400186D01*
X5326974Y21441041D01*
X5335232Y21473313D01*
X5345014Y21498900D01*
X5357192Y21519697D01*
X5372637Y21537603D01*
X5392221Y21554512D01*
X5416815Y21572323D01*
X5455019Y21598674D01*
X5461762Y21644746D01*
X5462658Y21651025D01*
X5464784Y21670870D01*
X5464614Y21688009D01*
X5461617Y21706096D01*
X5455261Y21728783D01*
X5445014Y21759721D01*
X5435077Y21789857D01*
X5428500Y21813513D01*
X5425407Y21832179D01*
X5425229Y21849376D01*
X5427397Y21868624D01*
X5430520Y21887425D01*
X5435221Y21903739D01*
X5442704Y21915540D01*
X5455129Y21927399D01*
X5455763Y21927947D01*
X5473928Y21947092D01*
X5485341Y21968148D01*
X5489889Y21992514D01*
X5487461Y22021590D01*
X5477944Y22056773D01*
X5461226Y22099462D01*
X5437196Y22151055D01*
X5426588Y22172720D01*
X5410947Y22205452D01*
X5400177Y22230445D01*
X5393798Y22250073D01*
X5391329Y22266713D01*
X5392293Y22282740D01*
X5396211Y22300529D01*
X5402599Y22322457D01*
X5409803Y22346949D01*
X5413697Y22363759D01*
X5414033Y22375263D01*
X5410895Y22384937D01*
X5404365Y22396264D01*
X5392817Y22411438D01*
X5374985Y22430688D01*
X5354991Y22449468D01*
X5350010Y22453813D01*
X5312829Y22488266D01*
X5283004Y22519697D01*
X5261651Y22546840D01*
X5249892Y22568428D01*
X5247646Y22576581D01*
X5244922Y22601270D01*
X5246069Y22628284D01*
X5249083Y22654817D01*
X5250069Y22675595D01*
X5248036Y22690205D01*
X5242468Y22702007D01*
X5232848Y22714364D01*
X5229639Y22717863D01*
X5207628Y22733434D01*
X5177479Y22742896D01*
X5138074Y22746481D01*
X5088299Y22744420D01*
X5061962Y22742799D01*
X5032056Y22743373D01*
X5012792Y22747301D01*
X5012503Y22747426D01*
X5000483Y22756032D01*
X4982520Y22773193D01*
X4960175Y22797313D01*
X4935011Y22826795D01*
X4875971Y22898479D01*
X4836795Y22903574D01*
X4832421Y22904087D01*
X4784205Y22903233D01*
X4730585Y22891313D01*
X4672005Y22868498D01*
X4608910Y22834956D01*
X4541740Y22790855D01*
X4540015Y22789621D01*
X4459552Y22726186D01*
X4388273Y22658112D01*
X4327054Y22586424D01*
X4276770Y22512144D01*
X4238299Y22436297D01*
X4221356Y22388945D01*
X4212519Y22342278D01*
X3299833Y22342278D01*
X3301466Y22347341D01*
X3331439Y22429042D01*
X3363812Y22507413D01*
X3398007Y22581131D01*
X3433448Y22648870D01*
X3469560Y22709310D01*
X3505765Y22761125D01*
X3541489Y22802993D01*
X3576155Y22833590D01*
X3577807Y22834784D01*
X3588865Y22842516D01*
X3598924Y22848103D01*
X3609636Y22851380D01*
X3622654Y22852184D01*
X3639629Y22850351D01*
X3662215Y22845718D01*
X3692064Y22838120D01*
X3730830Y22827392D01*
X3780163Y22813374D01*
X3822162Y22801868D01*
X3889017Y22785965D01*
X3944831Y22776193D01*
X3989651Y22772543D01*
X4023527Y22775006D01*
X4040164Y22780646D01*
X4062898Y22792131D01*
X4085395Y22806598D01*
X4176786Y22871074D01*
X4266550Y22929154D01*
X4351442Y22978097D01*
X4432773Y23018495D01*
X4511853Y23050944D01*
X4589995Y23076033D01*
X4668512Y23094358D01*
X4748713Y23106512D01*
X4830732Y23111302D01*
X4920838Y23105380D01*
X5007180Y23087431D01*
X5089601Y23057551D01*
X5167944Y23015845D01*
X5242049Y22962410D01*
X5311758Y22897348D01*
X5376915Y22820758D01*
X5437359Y22732743D01*
X5492935Y22633402D01*
X5514602Y22588891D01*
X5556300Y22490076D01*
X5588679Y22391225D01*
X5612172Y22290246D01*
X5627210Y22185050D01*
X5634229Y22073543D01*
X5633659Y21953635D01*
X5633548Y21950710D01*
X5630635Y21913204D01*
X5624898Y21866120D01*
X5616795Y21811907D01*
X5606783Y21753016D01*
X5595320Y21691896D01*
X5582863Y21630997D01*
X5569870Y21572771D01*
X5556798Y21519665D01*
X5544106Y21474131D01*
X5523090Y21407004D01*
X5486296Y21301498D01*
X5447841Y21206650D01*
X5407033Y21121178D01*
X5363184Y21043804D01*
X5315605Y20973246D01*
X5263603Y20908222D01*
X5206491Y20847454D01*
X5172524Y20814865D01*
X5094384Y20747101D01*
X5018695Y20691797D01*
X4945456Y20648954D01*
X4874666Y20618570D01*
X4806324Y20600648D01*
X4740431Y20595184D01*
X4676985Y20602180D01*
X4654221Y20608669D01*
X4651475Y20609784D01*
X4615200Y20624511D01*
X4567791Y20648112D01*
G36*
X2962532Y25547728D02*
G01*
X2881744Y25557018D01*
X2801178Y25567201D01*
X2722914Y25578028D01*
X2649028Y25589249D01*
X2581596Y25600615D01*
X2522696Y25611877D01*
X2474406Y25622786D01*
X2401521Y25643962D01*
X2329544Y25670199D01*
X2261448Y25700194D01*
X2200171Y25732650D01*
X2148653Y25766275D01*
X2135076Y25776217D01*
X2103331Y25798903D01*
X2071272Y25821202D01*
X2044110Y25839465D01*
X1995666Y25871156D01*
X1992677Y25909652D01*
X1992520Y25911871D01*
X1993403Y25949998D01*
X1999886Y25988675D01*
X2005285Y26006599D01*
X2014450Y26026846D01*
X2027840Y26047038D01*
X2046952Y26069075D01*
X2073284Y26094856D01*
X2108334Y26126284D01*
X2122623Y26138011D01*
X2154237Y26158390D01*
X2189068Y26172790D01*
X2229354Y26181802D01*
X2277335Y26186014D01*
X2335249Y26186016D01*
X2385432Y26184151D01*
X2432215Y26181182D01*
X2469854Y26176797D01*
X2500239Y26170465D01*
X2525258Y26161651D01*
X2546801Y26149824D01*
X2566756Y26134450D01*
X2587014Y26114996D01*
X2598744Y26101738D01*
X2612777Y26077874D01*
X2614824Y26056539D01*
X2605034Y26037088D01*
X2591586Y26023720D01*
X2567477Y26004470D01*
X2537851Y25983943D01*
X2505984Y25964384D01*
X2475150Y25948041D01*
X2455222Y25937747D01*
X2437614Y25925095D01*
X2431098Y25912835D01*
X2434990Y25899285D01*
X2448607Y25882761D01*
X2469373Y25861632D01*
X2591079Y25837779D01*
X2595589Y25836898D01*
X2632987Y25829821D01*
X2665891Y25823986D01*
X2692314Y25819718D01*
X2710267Y25817339D01*
X2717765Y25817172D01*
X2719372Y25824164D01*
X2716175Y25837330D01*
X2715596Y25838932D01*
X2711409Y25855802D01*
X2709577Y25866241D01*
X2904111Y25866241D01*
X2909378Y25844524D01*
X2913157Y25833606D01*
X2921575Y25819404D01*
X2935662Y25804955D01*
X2958052Y25787155D01*
X2982307Y25769880D01*
X3014356Y25750797D01*
X3047143Y25736676D01*
X3084655Y25725895D01*
X3130880Y25716833D01*
X3142180Y25715004D01*
X3186345Y25709856D01*
X3222457Y25709778D01*
X3253526Y25714939D01*
X3282557Y25725513D01*
X3294421Y25732463D01*
X3310162Y25745107D01*
X3323923Y25759229D01*
X3332915Y25771882D01*
X3334343Y25780124D01*
X3332569Y25781365D01*
X3320974Y25786678D01*
X3300565Y25794876D01*
X3273523Y25805100D01*
X3242029Y25816490D01*
X3209262Y25827771D01*
X3171657Y25839485D01*
X3134998Y25849124D01*
X3094762Y25857848D01*
X3046427Y25866824D01*
X3020457Y25871301D01*
X2985917Y25876953D01*
X2956352Y25881442D01*
X2934267Y25884394D01*
X2922168Y25885433D01*
X2910563Y25884194D01*
X2904244Y25878630D01*
X2904111Y25866241D01*
X2709577Y25866241D01*
X2707032Y25880748D01*
X2702866Y25910339D01*
X2699314Y25941146D01*
X2696777Y25969738D01*
X2695657Y25992685D01*
X2696354Y26006558D01*
X2696910Y26008547D01*
X2706891Y26023212D01*
X2725960Y26039609D01*
X2751423Y26056155D01*
X2780590Y26071261D01*
X2810770Y26083340D01*
X2839270Y26090806D01*
X2861668Y26094075D01*
X2927894Y26098162D01*
X3000841Y26095651D01*
X3077681Y26086826D01*
X3155584Y26071974D01*
X3231721Y26051376D01*
X3268462Y26039486D01*
X3312688Y26024501D01*
X3357844Y26008611D01*
X3401325Y25992764D01*
X3440525Y25977914D01*
X3472835Y25965012D01*
X3495650Y25955010D01*
X3504082Y25950640D01*
X3533859Y25931477D01*
X3565565Y25906668D01*
X3594978Y25879699D01*
X3617877Y25854056D01*
X3624477Y25844118D01*
X3637847Y25816412D01*
X3650052Y25782091D01*
X3660186Y25744751D01*
X3667346Y25707984D01*
X3670624Y25675385D01*
X3669117Y25650546D01*
X3667199Y25642021D01*
X3662769Y25628864D01*
X3655389Y25618769D01*
X3642357Y25608635D01*
X3620966Y25595365D01*
X3602902Y25585487D01*
X3554301Y25565188D01*
X3497179Y25548217D01*
X3434265Y25535188D01*
X3368294Y25526720D01*
X3301997Y25523425D01*
X3297137Y25523403D01*
X3246384Y25524487D01*
X3185471Y25527711D01*
X3116472Y25532826D01*
X3044985Y25539263D01*
X3041468Y25539581D01*
X2962532Y25547728D01*
G37*
X2962532Y25547728D02*
X2881744Y25557018D01*
X2801178Y25567201D01*
X2722914Y25578028D01*
X2649028Y25589249D01*
X2581596Y25600615D01*
X2522696Y25611877D01*
X2474406Y25622786D01*
X2401521Y25643962D01*
X2329544Y25670199D01*
X2261448Y25700194D01*
X2200171Y25732650D01*
X2148653Y25766275D01*
X2135076Y25776217D01*
X2103331Y25798903D01*
X2071272Y25821202D01*
X2044110Y25839465D01*
X1995666Y25871156D01*
X1992677Y25909652D01*
X1992520Y25911871D01*
X1993403Y25949998D01*
X1999886Y25988675D01*
X2005285Y26006599D01*
X2014450Y26026846D01*
X2027840Y26047038D01*
X2046952Y26069075D01*
X2073284Y26094856D01*
X2108334Y26126284D01*
X2122623Y26138011D01*
X2154237Y26158390D01*
X2189068Y26172790D01*
X2229354Y26181802D01*
X2277335Y26186014D01*
X2335249Y26186016D01*
X2385432Y26184151D01*
X2432215Y26181182D01*
X2469854Y26176797D01*
X2500239Y26170465D01*
X2525258Y26161651D01*
X2546801Y26149824D01*
X2566756Y26134450D01*
X2587014Y26114996D01*
X2598744Y26101738D01*
X2612777Y26077874D01*
X2614824Y26056539D01*
X2605034Y26037088D01*
X2591586Y26023720D01*
X2567477Y26004470D01*
X2537851Y25983943D01*
X2505984Y25964384D01*
X2475150Y25948041D01*
X2455222Y25937747D01*
X2437614Y25925095D01*
X2431098Y25912835D01*
X2434990Y25899285D01*
X2448607Y25882761D01*
X2469373Y25861632D01*
X2591079Y25837779D01*
X2595589Y25836898D01*
X2632987Y25829821D01*
X2665891Y25823986D01*
X2692314Y25819718D01*
X2710267Y25817339D01*
X2717765Y25817172D01*
X2719372Y25824164D01*
X2716175Y25837330D01*
X2715596Y25838932D01*
X2711409Y25855802D01*
X2709577Y25866241D01*
X2904111Y25866241D01*
X2909378Y25844524D01*
X2913157Y25833606D01*
X2921575Y25819404D01*
X2935662Y25804955D01*
X2958052Y25787155D01*
X2982307Y25769880D01*
X3014356Y25750797D01*
X3047143Y25736676D01*
X3084655Y25725895D01*
X3130880Y25716833D01*
X3142180Y25715004D01*
X3186345Y25709856D01*
X3222457Y25709778D01*
X3253526Y25714939D01*
X3282557Y25725513D01*
X3294421Y25732463D01*
X3310162Y25745107D01*
X3323923Y25759229D01*
X3332915Y25771882D01*
X3334343Y25780124D01*
X3332569Y25781365D01*
X3320974Y25786678D01*
X3300565Y25794876D01*
X3273523Y25805100D01*
X3242029Y25816490D01*
X3209262Y25827771D01*
X3171657Y25839485D01*
X3134998Y25849124D01*
X3094762Y25857848D01*
X3046427Y25866824D01*
X3020457Y25871301D01*
X2985917Y25876953D01*
X2956352Y25881442D01*
X2934267Y25884394D01*
X2922168Y25885433D01*
X2910563Y25884194D01*
X2904244Y25878630D01*
X2904111Y25866241D01*
X2709577Y25866241D01*
X2707032Y25880748D01*
X2702866Y25910339D01*
X2699314Y25941146D01*
X2696777Y25969738D01*
X2695657Y25992685D01*
X2696354Y26006558D01*
X2696910Y26008547D01*
X2706891Y26023212D01*
X2725960Y26039609D01*
X2751423Y26056155D01*
X2780590Y26071261D01*
X2810770Y26083340D01*
X2839270Y26090806D01*
X2861668Y26094075D01*
X2927894Y26098162D01*
X3000841Y26095651D01*
X3077681Y26086826D01*
X3155584Y26071974D01*
X3231721Y26051376D01*
X3268462Y26039486D01*
X3312688Y26024501D01*
X3357844Y26008611D01*
X3401325Y25992764D01*
X3440525Y25977914D01*
X3472835Y25965012D01*
X3495650Y25955010D01*
X3504082Y25950640D01*
X3533859Y25931477D01*
X3565565Y25906668D01*
X3594978Y25879699D01*
X3617877Y25854056D01*
X3624477Y25844118D01*
X3637847Y25816412D01*
X3650052Y25782091D01*
X3660186Y25744751D01*
X3667346Y25707984D01*
X3670624Y25675385D01*
X3669117Y25650546D01*
X3667199Y25642021D01*
X3662769Y25628864D01*
X3655389Y25618769D01*
X3642357Y25608635D01*
X3620966Y25595365D01*
X3602902Y25585487D01*
X3554301Y25565188D01*
X3497179Y25548217D01*
X3434265Y25535188D01*
X3368294Y25526720D01*
X3301997Y25523425D01*
X3297137Y25523403D01*
X3246384Y25524487D01*
X3185471Y25527711D01*
X3116472Y25532826D01*
X3044985Y25539263D01*
X3041468Y25539581D01*
X2962532Y25547728D01*
G36*
X6899609Y26801928D02*
G01*
X6940522Y26797604D01*
X6987273Y26790220D01*
X7036159Y26780556D01*
X7083480Y26769388D01*
X7125531Y26757496D01*
X7158612Y26745660D01*
X7185665Y26733110D01*
X7223704Y26712664D01*
X7261709Y26689628D01*
X7295753Y26666413D01*
X7321904Y26645430D01*
X7322990Y26644429D01*
X7338167Y26628409D01*
X7353513Y26609270D01*
X7366841Y26590133D01*
X7375964Y26574118D01*
X7378696Y26564348D01*
X7372998Y26560771D01*
X7359722Y26559072D01*
X7321258Y26557387D01*
X7280665Y26551605D01*
X7249300Y26542064D01*
X7228220Y26529106D01*
X7218486Y26513079D01*
X7218239Y26509085D01*
X7219929Y26493047D01*
X7224191Y26469955D01*
X7230416Y26443361D01*
X7234265Y26428101D01*
X7239925Y26400338D01*
X7240247Y26380129D01*
X7233857Y26365255D01*
X7219385Y26353492D01*
X7195461Y26342620D01*
X7160714Y26330420D01*
X7136789Y26321575D01*
X7113510Y26308980D01*
X7097851Y26292764D01*
X7087147Y26269904D01*
X7078734Y26237374D01*
X7075743Y26221989D01*
X7073086Y26201233D01*
X7072711Y26180513D01*
X7074947Y26157828D01*
X7080123Y26131181D01*
X7088570Y26098569D01*
X7100617Y26057993D01*
X7116591Y26007452D01*
X7125108Y25980600D01*
X7142352Y25922761D01*
X7154437Y25874992D01*
X7161222Y25836141D01*
X7162571Y25805062D01*
X7158347Y25780606D01*
X7148414Y25761623D01*
X7132634Y25746964D01*
X7110870Y25735482D01*
X7082984Y25726026D01*
X7067468Y25721429D01*
X7026736Y25706667D01*
X6996054Y25689981D01*
X6973410Y25669720D01*
X6956800Y25644234D01*
X6944216Y25611872D01*
X6936813Y25583880D01*
X6933940Y25559296D01*
X6935926Y25534508D01*
X6943069Y25505809D01*
X6955666Y25469494D01*
X6970806Y25428682D01*
X6991041Y25373173D01*
X7006533Y25329269D01*
X7017314Y25296875D01*
X7023416Y25275897D01*
X7024872Y25266237D01*
X7020774Y25263404D01*
X7008328Y25263117D01*
X6986248Y25265778D01*
X6953197Y25271486D01*
X6883180Y25284533D01*
X6863758Y25265940D01*
X6851755Y25252534D01*
X6844585Y25237212D01*
X6840775Y25215176D01*
X6840206Y25207228D01*
X6841706Y25175202D01*
X6847674Y25138337D01*
X6857132Y25101622D01*
X6869109Y25070047D01*
X6881035Y25044790D01*
X6854107Y25046690D01*
X6835550Y25046168D01*
X6810862Y25037143D01*
X6794202Y25018461D01*
X6786283Y24990708D01*
X6785579Y24982842D01*
X6784720Y24963596D01*
X6785354Y24950783D01*
X6784934Y24944931D01*
X6777784Y24941400D01*
X6760791Y24941225D01*
X6730167Y24940372D01*
X6699860Y24932880D01*
X6678323Y24919006D01*
X6666637Y24899502D01*
X6665882Y24875121D01*
X6667259Y24869770D01*
X6676564Y24848365D01*
X6691668Y24822687D01*
X6710262Y24796405D01*
X6730039Y24773184D01*
X6733453Y24769513D01*
X6743048Y24757673D01*
X6746467Y24750740D01*
X6741611Y24747247D01*
X6727172Y24739830D01*
X6705509Y24729791D01*
X6679002Y24718272D01*
X6672557Y24715528D01*
X6623046Y24692237D01*
X6583618Y24668905D01*
X6552023Y24644026D01*
X6526007Y24616097D01*
X6515205Y24602751D01*
X6504699Y24590142D01*
X6499584Y24584512D01*
X6499501Y24584472D01*
X6493995Y24588322D01*
X6482771Y24599484D01*
X6468157Y24615654D01*
X6455221Y24630129D01*
X6421104Y24663601D01*
X6390823Y24685952D01*
X6364807Y24696842D01*
X6362262Y24697354D01*
X6346741Y24698265D01*
X6331998Y24693355D01*
X6313082Y24681117D01*
X6307487Y24676998D01*
X6292970Y24664535D01*
X6286127Y24653570D01*
X6284310Y24640345D01*
X6285811Y24627347D01*
X6297575Y24600188D01*
X6320387Y24570603D01*
X6353504Y24539348D01*
X6396180Y24507177D01*
X6447669Y24474847D01*
X6457623Y24469024D01*
X6478540Y24456278D01*
X6493951Y24446172D01*
X6501075Y24440496D01*
X6501320Y24439832D01*
X6496115Y24434210D01*
X6481316Y24426026D01*
X6459119Y24416146D01*
X6431726Y24405440D01*
X6401333Y24394774D01*
X6370139Y24385017D01*
X6340342Y24377037D01*
X6323890Y24373256D01*
X6274216Y24364593D01*
X6230033Y24362176D01*
X6187060Y24365981D01*
X6141018Y24375984D01*
X6134337Y24377812D01*
X6086847Y24393870D01*
X6051305Y24412070D01*
X6037412Y24420617D01*
X6018856Y24430491D01*
X6005890Y24435551D01*
X6005778Y24435575D01*
X5990612Y24432792D01*
X5975071Y24420547D01*
X5961794Y24401685D01*
X5953425Y24379052D01*
X5951907Y24370233D01*
X5952407Y24356223D01*
X5958331Y24341350D01*
X5971033Y24321168D01*
X5981093Y24307925D01*
X6009181Y24278685D01*
X6045417Y24248035D01*
X6087288Y24218009D01*
X6132281Y24190642D01*
X6140812Y24185827D01*
X6161302Y24173517D01*
X6176055Y24163556D01*
X6182332Y24157744D01*
X6180628Y24153404D01*
X6168746Y24146221D01*
X6147454Y24138321D01*
X6118588Y24130356D01*
X6083989Y24122978D01*
X6062628Y24119417D01*
X6043363Y24117817D01*
X6023932Y24118712D01*
X6000287Y24122309D01*
X5968375Y24128812D01*
X5937423Y24136167D01*
X5904472Y24146948D01*
X5879854Y24159898D01*
X5861053Y24176432D01*
X5845553Y24197968D01*
X5843693Y24201415D01*
X5836719Y24218768D01*
X5829681Y24241408D01*
X5823698Y24265036D01*
X5819897Y24285357D01*
X5819399Y24298071D01*
X5819399Y24298072D01*
X5818967Y24314269D01*
X5813709Y24333616D01*
X5805557Y24350842D01*
X5796445Y24360678D01*
X5785326Y24362728D01*
X5765306Y24361342D01*
X5742728Y24356735D01*
X5722536Y24349966D01*
X5709676Y24342094D01*
X5703651Y24331369D01*
X5703426Y24313938D01*
X5710987Y24289967D01*
X5726636Y24257959D01*
X5728318Y24254835D01*
X5740315Y24231371D01*
X5749955Y24210596D01*
X5755286Y24196689D01*
X5756736Y24189352D01*
X5758599Y24171928D01*
X5759779Y24151070D01*
X5760152Y24130799D01*
X5759597Y24115134D01*
X5757991Y24108095D01*
X5757784Y24108135D01*
X5752522Y24113858D01*
X5741532Y24127724D01*
X5726277Y24147849D01*
X5708216Y24172344D01*
X5699330Y24184401D01*
X5665101Y24227588D01*
X5635023Y24259584D01*
X5608479Y24280808D01*
X5584853Y24291677D01*
X5563529Y24292612D01*
X5543891Y24284031D01*
X5530342Y24270149D01*
X5517681Y24244612D01*
X5510867Y24213313D01*
X5511017Y24179782D01*
X5512344Y24168397D01*
X5513975Y24153182D01*
X5514471Y24146558D01*
X5514470Y24146554D01*
X5511080Y24150977D01*
X5502164Y24164050D01*
X5489074Y24183765D01*
X5473159Y24208111D01*
X5458294Y24230027D01*
X5440785Y24253428D01*
X5425957Y24270632D01*
X5415713Y24279280D01*
X5413189Y24280373D01*
X5391714Y24282901D01*
X5365469Y24277534D01*
X5337983Y24265362D01*
X5312786Y24247479D01*
X5302947Y24239032D01*
X5290317Y24229307D01*
X5283698Y24225770D01*
X5280854Y24230402D01*
X5279059Y24242898D01*
X5278543Y24248218D01*
X5272407Y24267204D01*
X5261766Y24283127D01*
X5249542Y24291204D01*
X5248815Y24291318D01*
X5236667Y24288878D01*
X5221457Y24281239D01*
X5216264Y24277653D01*
X5208507Y24270135D01*
X5202748Y24259367D01*
X5197582Y24242265D01*
X5191600Y24215743D01*
X5180230Y24162253D01*
X5141445Y24225724D01*
X5132279Y24240491D01*
X5104196Y24282145D01*
X5079325Y24312573D01*
X5056894Y24332350D01*
X5036124Y24342055D01*
X5016239Y24342264D01*
X4996463Y24333557D01*
X4977994Y24317111D01*
X4958033Y24291598D01*
X4939481Y24260880D01*
X4924769Y24228520D01*
X4921051Y24219230D01*
X4914518Y24205903D01*
X4910199Y24201037D01*
X4908201Y24203377D01*
X4903186Y24214906D01*
X4897440Y24232661D01*
X4887880Y24260079D01*
X4873108Y24291375D01*
X4856542Y24318036D01*
X4840337Y24336156D01*
X4831859Y24341548D01*
X4809555Y24350667D01*
X4780795Y24358380D01*
X4778812Y24358804D01*
X4757751Y24363650D01*
X4742949Y24367672D01*
X4737506Y24370034D01*
X4737961Y24371044D01*
X4743303Y24379674D01*
X4752593Y24393467D01*
X4764896Y24419765D01*
X4765146Y24445338D01*
X4753126Y24468775D01*
X4749870Y24472540D01*
X4741433Y24479843D01*
X4730042Y24485033D01*
X4712475Y24489303D01*
X4685514Y24493847D01*
X4631701Y24502201D01*
X4622626Y24533946D01*
X4614094Y24556804D01*
X4599252Y24579308D01*
X4577939Y24597276D01*
X4548603Y24611656D01*
X4509693Y24623395D01*
X4459657Y24633442D01*
X4449385Y24635213D01*
X4427207Y24639264D01*
X4411877Y24642400D01*
X4406239Y24644054D01*
X4408851Y24646808D01*
X4418799Y24655863D01*
X4433579Y24668750D01*
X4452376Y24687135D01*
X4474762Y24716700D01*
X4489870Y24746925D01*
X4495743Y24774482D01*
X4492591Y24809857D01*
X4482434Y24843432D01*
X4466755Y24871658D01*
X4447034Y24890989D01*
X4438157Y24895562D01*
X4409873Y24901412D01*
X4373951Y24899689D01*
X4331912Y24890777D01*
X4285281Y24875061D01*
X4235576Y24852923D01*
X4184323Y24824750D01*
X4149187Y24803565D01*
X4137982Y24827383D01*
X4136765Y24830081D01*
X4129056Y24852682D01*
X4124899Y24874323D01*
X4124478Y24889660D01*
X4127699Y24912890D01*
X4136523Y24936859D01*
X4151935Y24963477D01*
X4174922Y24994654D01*
X4206468Y25032298D01*
X4209706Y25036028D01*
X4220102Y25049062D01*
X4225312Y25060181D01*
X4226837Y25074250D01*
X4226182Y25096136D01*
X4225548Y25115747D01*
X4226368Y25129270D01*
X4229535Y25136374D01*
X4235774Y25140400D01*
X4251270Y25143477D01*
X4277816Y25142349D01*
X4311680Y25136668D01*
X4350609Y25126823D01*
X4392352Y25113206D01*
X4415453Y25104769D01*
X4437048Y25096269D01*
X4451410Y25088990D01*
X4461206Y25081175D01*
X4469103Y25071068D01*
X4477765Y25056913D01*
X4502708Y25014957D01*
X4538399Y24955638D01*
X4569423Y24905258D01*
X4596716Y24862487D01*
X4621210Y24825995D01*
X4643838Y24794452D01*
X4665534Y24766527D01*
X4687229Y24740891D01*
X4709858Y24716214D01*
X4734354Y24691165D01*
X4758189Y24668225D01*
X4808814Y24623568D01*
X4864642Y24578670D01*
X4922969Y24535499D01*
X4981085Y24496018D01*
X5036286Y24462194D01*
X5085862Y24435990D01*
X5124329Y24420548D01*
X5171737Y24405845D01*
X5224027Y24392820D01*
X5277278Y24382345D01*
X5327573Y24375293D01*
X5370994Y24372535D01*
X5372222Y24372526D01*
X5467128Y24377186D01*
X5565629Y24392000D01*
X5664633Y24416353D01*
X5761046Y24449636D01*
X5813587Y24473401D01*
X5890504Y24517741D01*
X5969290Y24574043D01*
X6049584Y24642019D01*
X6131022Y24721380D01*
X6213246Y24811837D01*
X6222639Y24822818D01*
X6257975Y24865640D01*
X6288150Y24905438D01*
X6314675Y24944731D01*
X6339061Y24986035D01*
X6362821Y25031869D01*
X6387464Y25084752D01*
X6414502Y25147201D01*
X6424590Y25171296D01*
X6444305Y25220101D01*
X6461311Y25265331D01*
X6476674Y25310189D01*
X6491461Y25357873D01*
X6506737Y25411583D01*
X6523570Y25474518D01*
X6555283Y25609740D01*
X6579131Y25747473D01*
X6592674Y25879340D01*
X6595895Y26006165D01*
X6588780Y26128769D01*
X6571314Y26247977D01*
X6543483Y26364613D01*
X6505270Y26479498D01*
X6503269Y26484778D01*
X6489543Y26521490D01*
X6475998Y26558472D01*
X6464099Y26591686D01*
X6455314Y26617094D01*
X6450083Y26633008D01*
X6444375Y26652839D01*
X6442615Y26665884D01*
X6444548Y26675394D01*
X6449910Y26684622D01*
X6470259Y26705681D01*
X6502171Y26726476D01*
X6543360Y26745723D01*
X6592087Y26762957D01*
X6646618Y26777709D01*
X6705217Y26789511D01*
X6766145Y26797897D01*
X6827668Y26802399D01*
X6888050Y26802550D01*
X6899609Y26801928D01*
G37*
X6899609Y26801928D02*
X6940522Y26797604D01*
X6987273Y26790220D01*
X7036159Y26780556D01*
X7083480Y26769388D01*
X7125531Y26757496D01*
X7158612Y26745660D01*
X7185665Y26733110D01*
X7223704Y26712664D01*
X7261709Y26689628D01*
X7295753Y26666413D01*
X7321904Y26645430D01*
X7322990Y26644429D01*
X7338167Y26628409D01*
X7353513Y26609270D01*
X7366841Y26590133D01*
X7375964Y26574118D01*
X7378696Y26564348D01*
X7372998Y26560771D01*
X7359722Y26559072D01*
X7321258Y26557387D01*
X7280665Y26551605D01*
X7249300Y26542064D01*
X7228220Y26529106D01*
X7218486Y26513079D01*
X7218239Y26509085D01*
X7219929Y26493047D01*
X7224191Y26469955D01*
X7230416Y26443361D01*
X7234265Y26428101D01*
X7239925Y26400338D01*
X7240247Y26380129D01*
X7233857Y26365255D01*
X7219385Y26353492D01*
X7195461Y26342620D01*
X7160714Y26330420D01*
X7136789Y26321575D01*
X7113510Y26308980D01*
X7097851Y26292764D01*
X7087147Y26269904D01*
X7078734Y26237374D01*
X7075743Y26221989D01*
X7073086Y26201233D01*
X7072711Y26180513D01*
X7074947Y26157828D01*
X7080123Y26131181D01*
X7088570Y26098569D01*
X7100617Y26057993D01*
X7116591Y26007452D01*
X7125108Y25980600D01*
X7142352Y25922761D01*
X7154437Y25874992D01*
X7161222Y25836141D01*
X7162571Y25805062D01*
X7158347Y25780606D01*
X7148414Y25761623D01*
X7132634Y25746964D01*
X7110870Y25735482D01*
X7082984Y25726026D01*
X7067468Y25721429D01*
X7026736Y25706667D01*
X6996054Y25689981D01*
X6973410Y25669720D01*
X6956800Y25644234D01*
X6944216Y25611872D01*
X6936813Y25583880D01*
X6933940Y25559296D01*
X6935926Y25534508D01*
X6943069Y25505809D01*
X6955666Y25469494D01*
X6970806Y25428682D01*
X6991041Y25373173D01*
X7006533Y25329269D01*
X7017314Y25296875D01*
X7023416Y25275897D01*
X7024872Y25266237D01*
X7020774Y25263404D01*
X7008328Y25263117D01*
X6986248Y25265778D01*
X6953197Y25271486D01*
X6883180Y25284533D01*
X6863758Y25265940D01*
X6851755Y25252534D01*
X6844585Y25237212D01*
X6840775Y25215176D01*
X6840206Y25207228D01*
X6841706Y25175202D01*
X6847674Y25138337D01*
X6857132Y25101622D01*
X6869109Y25070047D01*
X6881035Y25044790D01*
X6854107Y25046690D01*
X6835550Y25046168D01*
X6810862Y25037143D01*
X6794202Y25018461D01*
X6786283Y24990708D01*
X6785579Y24982842D01*
X6784720Y24963596D01*
X6785354Y24950783D01*
X6784934Y24944931D01*
X6777784Y24941400D01*
X6760791Y24941225D01*
X6730167Y24940372D01*
X6699860Y24932880D01*
X6678323Y24919006D01*
X6666637Y24899502D01*
X6665882Y24875121D01*
X6667259Y24869770D01*
X6676564Y24848365D01*
X6691668Y24822687D01*
X6710262Y24796405D01*
X6730039Y24773184D01*
X6733453Y24769513D01*
X6743048Y24757673D01*
X6746467Y24750740D01*
X6741611Y24747247D01*
X6727172Y24739830D01*
X6705509Y24729791D01*
X6679002Y24718272D01*
X6672557Y24715528D01*
X6623046Y24692237D01*
X6583618Y24668905D01*
X6552023Y24644026D01*
X6526007Y24616097D01*
X6515205Y24602751D01*
X6504699Y24590142D01*
X6499584Y24584512D01*
X6499501Y24584472D01*
X6493995Y24588322D01*
X6482771Y24599484D01*
X6468157Y24615654D01*
X6455221Y24630129D01*
X6421104Y24663601D01*
X6390823Y24685952D01*
X6364807Y24696842D01*
X6362262Y24697354D01*
X6346741Y24698265D01*
X6331998Y24693355D01*
X6313082Y24681117D01*
X6307487Y24676998D01*
X6292970Y24664535D01*
X6286127Y24653570D01*
X6284310Y24640345D01*
X6285811Y24627347D01*
X6297575Y24600188D01*
X6320387Y24570603D01*
X6353504Y24539348D01*
X6396180Y24507177D01*
X6447669Y24474847D01*
X6457623Y24469024D01*
X6478540Y24456278D01*
X6493951Y24446172D01*
X6501075Y24440496D01*
X6501320Y24439832D01*
X6496115Y24434210D01*
X6481316Y24426026D01*
X6459119Y24416146D01*
X6431726Y24405440D01*
X6401333Y24394774D01*
X6370139Y24385017D01*
X6340342Y24377037D01*
X6323890Y24373256D01*
X6274216Y24364593D01*
X6230033Y24362176D01*
X6187060Y24365981D01*
X6141018Y24375984D01*
X6134337Y24377812D01*
X6086847Y24393870D01*
X6051305Y24412070D01*
X6037412Y24420617D01*
X6018856Y24430491D01*
X6005890Y24435551D01*
X6005778Y24435575D01*
X5990612Y24432792D01*
X5975071Y24420547D01*
X5961794Y24401685D01*
X5953425Y24379052D01*
X5951907Y24370233D01*
X5952407Y24356223D01*
X5958331Y24341350D01*
X5971033Y24321168D01*
X5981093Y24307925D01*
X6009181Y24278685D01*
X6045417Y24248035D01*
X6087288Y24218009D01*
X6132281Y24190642D01*
X6140812Y24185827D01*
X6161302Y24173517D01*
X6176055Y24163556D01*
X6182332Y24157744D01*
X6180628Y24153404D01*
X6168746Y24146221D01*
X6147454Y24138321D01*
X6118588Y24130356D01*
X6083989Y24122978D01*
X6062628Y24119417D01*
X6043363Y24117817D01*
X6023932Y24118712D01*
X6000287Y24122309D01*
X5968375Y24128812D01*
X5937423Y24136167D01*
X5904472Y24146948D01*
X5879854Y24159898D01*
X5861053Y24176432D01*
X5845553Y24197968D01*
X5843693Y24201415D01*
X5836719Y24218768D01*
X5829681Y24241408D01*
X5823698Y24265036D01*
X5819897Y24285357D01*
X5819399Y24298071D01*
X5819399Y24298072D01*
X5818967Y24314269D01*
X5813709Y24333616D01*
X5805557Y24350842D01*
X5796445Y24360678D01*
X5785326Y24362728D01*
X5765306Y24361342D01*
X5742728Y24356735D01*
X5722536Y24349966D01*
X5709676Y24342094D01*
X5703651Y24331369D01*
X5703426Y24313938D01*
X5710987Y24289967D01*
X5726636Y24257959D01*
X5728318Y24254835D01*
X5740315Y24231371D01*
X5749955Y24210596D01*
X5755286Y24196689D01*
X5756736Y24189352D01*
X5758599Y24171928D01*
X5759779Y24151070D01*
X5760152Y24130799D01*
X5759597Y24115134D01*
X5757991Y24108095D01*
X5757784Y24108135D01*
X5752522Y24113858D01*
X5741532Y24127724D01*
X5726277Y24147849D01*
X5708216Y24172344D01*
X5699330Y24184401D01*
X5665101Y24227588D01*
X5635023Y24259584D01*
X5608479Y24280808D01*
X5584853Y24291677D01*
X5563529Y24292612D01*
X5543891Y24284031D01*
X5530342Y24270149D01*
X5517681Y24244612D01*
X5510867Y24213313D01*
X5511017Y24179782D01*
X5512344Y24168397D01*
X5513975Y24153182D01*
X5514471Y24146558D01*
X5514470Y24146554D01*
X5511080Y24150977D01*
X5502164Y24164050D01*
X5489074Y24183765D01*
X5473159Y24208111D01*
X5458294Y24230027D01*
X5440785Y24253428D01*
X5425957Y24270632D01*
X5415713Y24279280D01*
X5413189Y24280373D01*
X5391714Y24282901D01*
X5365469Y24277534D01*
X5337983Y24265362D01*
X5312786Y24247479D01*
X5302947Y24239032D01*
X5290317Y24229307D01*
X5283698Y24225770D01*
X5280854Y24230402D01*
X5279059Y24242898D01*
X5278543Y24248218D01*
X5272407Y24267204D01*
X5261766Y24283127D01*
X5249542Y24291204D01*
X5248815Y24291318D01*
X5236667Y24288878D01*
X5221457Y24281239D01*
X5216264Y24277653D01*
X5208507Y24270135D01*
X5202748Y24259367D01*
X5197582Y24242265D01*
X5191600Y24215743D01*
X5180230Y24162253D01*
X5141445Y24225724D01*
X5132279Y24240491D01*
X5104196Y24282145D01*
X5079325Y24312573D01*
X5056894Y24332350D01*
X5036124Y24342055D01*
X5016239Y24342264D01*
X4996463Y24333557D01*
X4977994Y24317111D01*
X4958033Y24291598D01*
X4939481Y24260880D01*
X4924769Y24228520D01*
X4921051Y24219230D01*
X4914518Y24205903D01*
X4910199Y24201037D01*
X4908201Y24203377D01*
X4903186Y24214906D01*
X4897440Y24232661D01*
X4887880Y24260079D01*
X4873108Y24291375D01*
X4856542Y24318036D01*
X4840337Y24336156D01*
X4831859Y24341548D01*
X4809555Y24350667D01*
X4780795Y24358380D01*
X4778812Y24358804D01*
X4757751Y24363650D01*
X4742949Y24367672D01*
X4737506Y24370034D01*
X4737961Y24371044D01*
X4743303Y24379674D01*
X4752593Y24393467D01*
X4764896Y24419765D01*
X4765146Y24445338D01*
X4753126Y24468775D01*
X4749870Y24472540D01*
X4741433Y24479843D01*
X4730042Y24485033D01*
X4712475Y24489303D01*
X4685514Y24493847D01*
X4631701Y24502201D01*
X4622626Y24533946D01*
X4614094Y24556804D01*
X4599252Y24579308D01*
X4577939Y24597276D01*
X4548603Y24611656D01*
X4509693Y24623395D01*
X4459657Y24633442D01*
X4449385Y24635213D01*
X4427207Y24639264D01*
X4411877Y24642400D01*
X4406239Y24644054D01*
X4408851Y24646808D01*
X4418799Y24655863D01*
X4433579Y24668750D01*
X4452376Y24687135D01*
X4474762Y24716700D01*
X4489870Y24746925D01*
X4495743Y24774482D01*
X4492591Y24809857D01*
X4482434Y24843432D01*
X4466755Y24871658D01*
X4447034Y24890989D01*
X4438157Y24895562D01*
X4409873Y24901412D01*
X4373951Y24899689D01*
X4331912Y24890777D01*
X4285281Y24875061D01*
X4235576Y24852923D01*
X4184323Y24824750D01*
X4149187Y24803565D01*
X4137982Y24827383D01*
X4136765Y24830081D01*
X4129056Y24852682D01*
X4124899Y24874323D01*
X4124478Y24889660D01*
X4127699Y24912890D01*
X4136523Y24936859D01*
X4151935Y24963477D01*
X4174922Y24994654D01*
X4206468Y25032298D01*
X4209706Y25036028D01*
X4220102Y25049062D01*
X4225312Y25060181D01*
X4226837Y25074250D01*
X4226182Y25096136D01*
X4225548Y25115747D01*
X4226368Y25129270D01*
X4229535Y25136374D01*
X4235774Y25140400D01*
X4251270Y25143477D01*
X4277816Y25142349D01*
X4311680Y25136668D01*
X4350609Y25126823D01*
X4392352Y25113206D01*
X4415453Y25104769D01*
X4437048Y25096269D01*
X4451410Y25088990D01*
X4461206Y25081175D01*
X4469103Y25071068D01*
X4477765Y25056913D01*
X4502708Y25014957D01*
X4538399Y24955638D01*
X4569423Y24905258D01*
X4596716Y24862487D01*
X4621210Y24825995D01*
X4643838Y24794452D01*
X4665534Y24766527D01*
X4687229Y24740891D01*
X4709858Y24716214D01*
X4734354Y24691165D01*
X4758189Y24668225D01*
X4808814Y24623568D01*
X4864642Y24578670D01*
X4922969Y24535499D01*
X4981085Y24496018D01*
X5036286Y24462194D01*
X5085862Y24435990D01*
X5124329Y24420548D01*
X5171737Y24405845D01*
X5224027Y24392820D01*
X5277278Y24382345D01*
X5327573Y24375293D01*
X5370994Y24372535D01*
X5372222Y24372526D01*
X5467128Y24377186D01*
X5565629Y24392000D01*
X5664633Y24416353D01*
X5761046Y24449636D01*
X5813587Y24473401D01*
X5890504Y24517741D01*
X5969290Y24574043D01*
X6049584Y24642019D01*
X6131022Y24721380D01*
X6213246Y24811837D01*
X6222639Y24822818D01*
X6257975Y24865640D01*
X6288150Y24905438D01*
X6314675Y24944731D01*
X6339061Y24986035D01*
X6362821Y25031869D01*
X6387464Y25084752D01*
X6414502Y25147201D01*
X6424590Y25171296D01*
X6444305Y25220101D01*
X6461311Y25265331D01*
X6476674Y25310189D01*
X6491461Y25357873D01*
X6506737Y25411583D01*
X6523570Y25474518D01*
X6555283Y25609740D01*
X6579131Y25747473D01*
X6592674Y25879340D01*
X6595895Y26006165D01*
X6588780Y26128769D01*
X6571314Y26247977D01*
X6543483Y26364613D01*
X6505270Y26479498D01*
X6503269Y26484778D01*
X6489543Y26521490D01*
X6475998Y26558472D01*
X6464099Y26591686D01*
X6455314Y26617094D01*
X6450083Y26633008D01*
X6444375Y26652839D01*
X6442615Y26665884D01*
X6444548Y26675394D01*
X6449910Y26684622D01*
X6470259Y26705681D01*
X6502171Y26726476D01*
X6543360Y26745723D01*
X6592087Y26762957D01*
X6646618Y26777709D01*
X6705217Y26789511D01*
X6766145Y26797897D01*
X6827668Y26802399D01*
X6888050Y26802550D01*
X6899609Y26801928D01*
G36*
X3974020Y26915210D02*
G01*
X4030794Y26906810D01*
X4082214Y26893279D01*
X4125029Y26874908D01*
X4155536Y26855905D01*
X4186747Y26830649D01*
X4209424Y26804929D01*
X4221688Y26780580D01*
X4222685Y26776283D01*
X4224243Y26752783D01*
X4221309Y26727806D01*
X4215580Y26708415D01*
X4206101Y26694095D01*
X4189177Y26680802D01*
X4176651Y26673290D01*
X4135934Y26657091D01*
X4087603Y26647305D01*
X4034230Y26644147D01*
X3978388Y26647832D01*
X3922647Y26658574D01*
X3920560Y26659122D01*
X3888399Y26668320D01*
X3863727Y26677573D01*
X3841777Y26688972D01*
X3817783Y26704610D01*
X3815513Y26706202D01*
X3791650Y26724722D01*
X3769534Y26744654D01*
X3753692Y26761948D01*
X3753159Y26762645D01*
X3742161Y26779161D01*
X3736873Y26794430D01*
X3737362Y26811565D01*
X3743700Y26833676D01*
X3755954Y26863878D01*
X3761804Y26876823D01*
X3770481Y26891285D01*
X3780544Y26899336D01*
X3795427Y26904510D01*
X3804103Y26906691D01*
X3857423Y26915442D01*
X3915145Y26918185D01*
X3974020Y26915210D01*
G37*
X3974020Y26915210D02*
X4030794Y26906810D01*
X4082214Y26893279D01*
X4125029Y26874908D01*
X4155536Y26855905D01*
X4186747Y26830649D01*
X4209424Y26804929D01*
X4221688Y26780580D01*
X4222685Y26776283D01*
X4224243Y26752783D01*
X4221309Y26727806D01*
X4215580Y26708415D01*
X4206101Y26694095D01*
X4189177Y26680802D01*
X4176651Y26673290D01*
X4135934Y26657091D01*
X4087603Y26647305D01*
X4034230Y26644147D01*
X3978388Y26647832D01*
X3922647Y26658574D01*
X3920560Y26659122D01*
X3888399Y26668320D01*
X3863727Y26677573D01*
X3841777Y26688972D01*
X3817783Y26704610D01*
X3815513Y26706202D01*
X3791650Y26724722D01*
X3769534Y26744654D01*
X3753692Y26761948D01*
X3753159Y26762645D01*
X3742161Y26779161D01*
X3736873Y26794430D01*
X3737362Y26811565D01*
X3743700Y26833676D01*
X3755954Y26863878D01*
X3761804Y26876823D01*
X3770481Y26891285D01*
X3780544Y26899336D01*
X3795427Y26904510D01*
X3804103Y26906691D01*
X3857423Y26915442D01*
X3915145Y26918185D01*
X3974020Y26915210D01*
G36*
X2693166Y24935773D02*
G01*
X2615660Y24958083D01*
X2547185Y24981972D01*
X2485400Y25008385D01*
X2427965Y25038267D01*
X2372538Y25072561D01*
X2366894Y25076393D01*
X2331191Y25105121D01*
X2303700Y25137297D01*
X2282255Y25175967D01*
X2270045Y25209481D01*
X2552899Y25209481D01*
X2556358Y25198403D01*
X2568471Y25183838D01*
X2586721Y25168288D01*
X2608592Y25154249D01*
X2632954Y25141753D01*
X2659614Y25130091D01*
X2688905Y25119595D01*
X2722820Y25109683D01*
X2763347Y25099778D01*
X2812477Y25089303D01*
X2872197Y25077679D01*
X2902571Y25072004D01*
X2948383Y25063793D01*
X2985681Y25057749D01*
X3016970Y25053555D01*
X3044750Y25050896D01*
X3071522Y25049454D01*
X3099790Y25048915D01*
X3107222Y25048883D01*
X3173013Y25050212D01*
X3227239Y25054505D01*
X3269697Y25061730D01*
X3300184Y25071851D01*
X3318493Y25084834D01*
X3318725Y25085110D01*
X3330180Y25107824D01*
X3331453Y25133222D01*
X3322290Y25156532D01*
X3317823Y25162308D01*
X3299292Y25178864D01*
X3272904Y25193672D01*
X3237691Y25207060D01*
X3192683Y25219353D01*
X3136915Y25230880D01*
X3069414Y25241967D01*
X3025593Y25248157D01*
X2941083Y25258059D01*
X2862737Y25264482D01*
X2791422Y25267447D01*
X2728010Y25266974D01*
X2673370Y25263080D01*
X2628372Y25255784D01*
X2593886Y25245107D01*
X2570782Y25231066D01*
X2569178Y25229570D01*
X2558154Y25217805D01*
X2552912Y25209551D01*
X2552899Y25209481D01*
X2270045Y25209481D01*
X2264691Y25224175D01*
X2256394Y25250614D01*
X2249126Y25269584D01*
X2241611Y25282279D01*
X2231999Y25291772D01*
X2218443Y25301139D01*
X2201999Y25310461D01*
X2183551Y25317742D01*
X2159893Y25323825D01*
X2127305Y25329883D01*
X2106098Y25333284D01*
X2080965Y25336240D01*
X2060754Y25336390D01*
X2040927Y25333658D01*
X2016948Y25327965D01*
X2012027Y25326652D01*
X1989726Y25320008D01*
X1973245Y25313963D01*
X1965850Y25309690D01*
X1965760Y25309496D01*
X1968579Y25301953D01*
X1978358Y25288470D01*
X1993097Y25271829D01*
X2015632Y25247266D01*
X2044314Y25210821D01*
X2062117Y25179187D01*
X2069197Y25151533D01*
X2065703Y25127034D01*
X2051788Y25104863D01*
X2027604Y25084191D01*
X2018286Y25077987D01*
X1999387Y25067545D01*
X1980448Y25061235D01*
X1959033Y25058920D01*
X1932704Y25060463D01*
X1899026Y25065730D01*
X1855562Y25074583D01*
X1845377Y25076793D01*
X1796698Y25087993D01*
X1757500Y25098674D01*
X1725191Y25110024D01*
X1697176Y25123234D01*
X1670863Y25139495D01*
X1643657Y25159998D01*
X1612966Y25185932D01*
X1593026Y25203691D01*
X1550815Y25244789D01*
X1519015Y25281950D01*
X1496878Y25316265D01*
X1483650Y25348823D01*
X1478578Y25380714D01*
X1479063Y25393480D01*
X1485536Y25424341D01*
X1497691Y25455574D01*
X1513449Y25481187D01*
X1526570Y25494696D01*
X1555671Y25516385D01*
X1592230Y25536975D01*
X1633098Y25554774D01*
X1675134Y25568092D01*
X1686588Y25570863D01*
X1756711Y25583425D01*
X1838376Y25591373D01*
X1931347Y25594733D01*
X2035383Y25593526D01*
X2150248Y25587774D01*
X2275705Y25577499D01*
X2411514Y25562724D01*
X2557440Y25543471D01*
X2713243Y25519761D01*
X2878687Y25491619D01*
X3053533Y25459064D01*
X3237544Y25422119D01*
X3461375Y25375658D01*
X3528307Y25343781D01*
X3528360Y25343757D01*
X3567647Y25324086D01*
X3596244Y25307314D01*
X3615523Y25292378D01*
X3626857Y25278215D01*
X3631620Y25263760D01*
X3632015Y25248600D01*
X3625480Y25231071D01*
X3609175Y25217811D01*
X3581655Y25207184D01*
X3563460Y25201336D01*
X3548457Y25195377D01*
X3542319Y25191336D01*
X3544404Y25188151D01*
X3554653Y25178451D01*
X3571566Y25164320D01*
X3593043Y25147567D01*
X3621478Y25125145D01*
X3647416Y25101556D01*
X3665037Y25080395D01*
X3675929Y25059693D01*
X3681674Y25037483D01*
X3682933Y25019866D01*
X3677752Y24992961D01*
X3662751Y24966082D01*
X3636911Y24936944D01*
X3632836Y24933016D01*
X3603900Y24909505D01*
X3571590Y24891328D01*
X3533609Y24877630D01*
X3487662Y24867555D01*
X3431454Y24860246D01*
X3427059Y24859817D01*
X3344220Y24855001D01*
X3252359Y24855189D01*
X3153884Y24860161D01*
X3051205Y24869694D01*
X2946732Y24883570D01*
X2842873Y24901566D01*
X2775674Y24916158D01*
X2742039Y24923461D01*
X2693166Y24935773D01*
G37*
X2693166Y24935773D02*
X2615660Y24958083D01*
X2547185Y24981972D01*
X2485400Y25008385D01*
X2427965Y25038267D01*
X2372538Y25072561D01*
X2366894Y25076393D01*
X2331191Y25105121D01*
X2303700Y25137297D01*
X2282255Y25175967D01*
X2270045Y25209481D01*
X2552899Y25209481D01*
X2556358Y25198403D01*
X2568471Y25183838D01*
X2586721Y25168288D01*
X2608592Y25154249D01*
X2632954Y25141753D01*
X2659614Y25130091D01*
X2688905Y25119595D01*
X2722820Y25109683D01*
X2763347Y25099778D01*
X2812477Y25089303D01*
X2872197Y25077679D01*
X2902571Y25072004D01*
X2948383Y25063793D01*
X2985681Y25057749D01*
X3016970Y25053555D01*
X3044750Y25050896D01*
X3071522Y25049454D01*
X3099790Y25048915D01*
X3107222Y25048883D01*
X3173013Y25050212D01*
X3227239Y25054505D01*
X3269697Y25061730D01*
X3300184Y25071851D01*
X3318493Y25084834D01*
X3318725Y25085110D01*
X3330180Y25107824D01*
X3331453Y25133222D01*
X3322290Y25156532D01*
X3317823Y25162308D01*
X3299292Y25178864D01*
X3272904Y25193672D01*
X3237691Y25207060D01*
X3192683Y25219353D01*
X3136915Y25230880D01*
X3069414Y25241967D01*
X3025593Y25248157D01*
X2941083Y25258059D01*
X2862737Y25264482D01*
X2791422Y25267447D01*
X2728010Y25266974D01*
X2673370Y25263080D01*
X2628372Y25255784D01*
X2593886Y25245107D01*
X2570782Y25231066D01*
X2569178Y25229570D01*
X2558154Y25217805D01*
X2552912Y25209551D01*
X2552899Y25209481D01*
X2270045Y25209481D01*
X2264691Y25224175D01*
X2256394Y25250614D01*
X2249126Y25269584D01*
X2241611Y25282279D01*
X2231999Y25291772D01*
X2218443Y25301139D01*
X2201999Y25310461D01*
X2183551Y25317742D01*
X2159893Y25323825D01*
X2127305Y25329883D01*
X2106098Y25333284D01*
X2080965Y25336240D01*
X2060754Y25336390D01*
X2040927Y25333658D01*
X2016948Y25327965D01*
X2012027Y25326652D01*
X1989726Y25320008D01*
X1973245Y25313963D01*
X1965850Y25309690D01*
X1965760Y25309496D01*
X1968579Y25301953D01*
X1978358Y25288470D01*
X1993097Y25271829D01*
X2015632Y25247266D01*
X2044314Y25210821D01*
X2062117Y25179187D01*
X2069197Y25151533D01*
X2065703Y25127034D01*
X2051788Y25104863D01*
X2027604Y25084191D01*
X2018286Y25077987D01*
X1999387Y25067545D01*
X1980448Y25061235D01*
X1959033Y25058920D01*
X1932704Y25060463D01*
X1899026Y25065730D01*
X1855562Y25074583D01*
X1845377Y25076793D01*
X1796698Y25087993D01*
X1757500Y25098674D01*
X1725191Y25110024D01*
X1697176Y25123234D01*
X1670863Y25139495D01*
X1643657Y25159998D01*
X1612966Y25185932D01*
X1593026Y25203691D01*
X1550815Y25244789D01*
X1519015Y25281950D01*
X1496878Y25316265D01*
X1483650Y25348823D01*
X1478578Y25380714D01*
X1479063Y25393480D01*
X1485536Y25424341D01*
X1497691Y25455574D01*
X1513449Y25481187D01*
X1526570Y25494696D01*
X1555671Y25516385D01*
X1592230Y25536975D01*
X1633098Y25554774D01*
X1675134Y25568092D01*
X1686588Y25570863D01*
X1756711Y25583425D01*
X1838376Y25591373D01*
X1931347Y25594733D01*
X2035383Y25593526D01*
X2150248Y25587774D01*
X2275705Y25577499D01*
X2411514Y25562724D01*
X2557440Y25543471D01*
X2713243Y25519761D01*
X2878687Y25491619D01*
X3053533Y25459064D01*
X3237544Y25422119D01*
X3461375Y25375658D01*
X3528307Y25343781D01*
X3528360Y25343757D01*
X3567647Y25324086D01*
X3596244Y25307314D01*
X3615523Y25292378D01*
X3626857Y25278215D01*
X3631620Y25263760D01*
X3632015Y25248600D01*
X3625480Y25231071D01*
X3609175Y25217811D01*
X3581655Y25207184D01*
X3563460Y25201336D01*
X3548457Y25195377D01*
X3542319Y25191336D01*
X3544404Y25188151D01*
X3554653Y25178451D01*
X3571566Y25164320D01*
X3593043Y25147567D01*
X3621478Y25125145D01*
X3647416Y25101556D01*
X3665037Y25080395D01*
X3675929Y25059693D01*
X3681674Y25037483D01*
X3682933Y25019866D01*
X3677752Y24992961D01*
X3662751Y24966082D01*
X3636911Y24936944D01*
X3632836Y24933016D01*
X3603900Y24909505D01*
X3571590Y24891328D01*
X3533609Y24877630D01*
X3487662Y24867555D01*
X3431454Y24860246D01*
X3427059Y24859817D01*
X3344220Y24855001D01*
X3252359Y24855189D01*
X3153884Y24860161D01*
X3051205Y24869694D01*
X2946732Y24883570D01*
X2842873Y24901566D01*
X2775674Y24916158D01*
X2742039Y24923461D01*
X2693166Y24935773D01*
G36*
X1727399Y23558699D02*
G01*
X1764248Y23557465D01*
X1794065Y23555290D01*
X1795318Y23555151D01*
X1823819Y23549649D01*
X1859427Y23539515D01*
X1898283Y23526078D01*
X1936526Y23510666D01*
X1970295Y23494609D01*
X1984451Y23484217D01*
X2001342Y23466918D01*
X2017926Y23446181D01*
X2031982Y23425058D01*
X2041290Y23406598D01*
X2043629Y23393855D01*
X2039000Y23380060D01*
X2029277Y23366624D01*
X2013569Y23355275D01*
X1990538Y23345459D01*
X1958843Y23336624D01*
X1917146Y23328215D01*
X1864107Y23319678D01*
X1854828Y23318293D01*
X1817453Y23312424D01*
X1790722Y23307479D01*
X1773009Y23302956D01*
X1762690Y23298358D01*
X1758138Y23293183D01*
X1757729Y23286929D01*
X1763633Y23274672D01*
X1779127Y23256748D01*
X1802323Y23235937D01*
X1831448Y23213990D01*
X1841331Y23207197D01*
X1851314Y23200950D01*
X1861853Y23195612D01*
X1874639Y23190677D01*
X1891373Y23185641D01*
X1913746Y23179998D01*
X1943459Y23173244D01*
X1982204Y23164875D01*
X2031679Y23154384D01*
X2058466Y23148728D01*
X2103062Y23139438D01*
X2138419Y23132395D01*
X2166645Y23127314D01*
X2189848Y23123906D01*
X2210134Y23121883D01*
X2229613Y23120959D01*
X2250390Y23120846D01*
X2274574Y23121257D01*
X2291866Y23121703D01*
X2340870Y23123671D01*
X2389436Y23126546D01*
X2435112Y23130119D01*
X2475446Y23134185D01*
X2507984Y23138532D01*
X2530275Y23142953D01*
X2548780Y23150951D01*
X2558532Y23162257D01*
X2557387Y23174445D01*
X2544651Y23185464D01*
X2537650Y23187947D01*
X2519092Y23193086D01*
X2491437Y23200031D01*
X2456551Y23208329D01*
X2416297Y23217531D01*
X2372536Y23227183D01*
X2215037Y23261307D01*
X2186024Y23287226D01*
X2173175Y23299893D01*
X2160963Y23315040D01*
X2155754Y23325944D01*
X2156919Y23334421D01*
X2165412Y23352380D01*
X2179960Y23372963D01*
X2198160Y23392940D01*
X2217610Y23409082D01*
X2228190Y23415872D01*
X2261683Y23433819D01*
X2299071Y23449984D01*
X2335640Y23462460D01*
X2366674Y23469343D01*
X2381533Y23470758D01*
X2425433Y23471052D01*
X2475908Y23467156D01*
X2529311Y23459647D01*
X2581996Y23449104D01*
X2630313Y23436103D01*
X2670618Y23421222D01*
X2678002Y23417888D01*
X2747281Y23381455D01*
X2804682Y23340918D01*
X2850390Y23296097D01*
X2884591Y23246813D01*
X2907473Y23192884D01*
X2908135Y23190730D01*
X2915755Y23166389D01*
X2922483Y23145618D01*
X2926929Y23132712D01*
X2927493Y23131075D01*
X2928175Y23124097D01*
X2925007Y23115886D01*
X2916656Y23104552D01*
X2901792Y23088211D01*
X2879083Y23064979D01*
X2858731Y23044057D01*
X2841298Y23025351D01*
X2829240Y23011517D01*
X2824390Y23004577D01*
X2822171Y22999850D01*
X2814412Y22993521D01*
X2799943Y22987293D01*
X2777297Y22980685D01*
X2745013Y22973219D01*
X2701623Y22964416D01*
X2671526Y22958613D01*
X2626406Y22950321D01*
X2586987Y22943852D01*
X2550203Y22938860D01*
X2512988Y22934999D01*
X2472275Y22931924D01*
X2424999Y22929287D01*
X2368090Y22926741D01*
X2352360Y22926116D01*
X2294436Y22924504D01*
X2241573Y22924436D01*
X2191285Y22926127D01*
X2141090Y22929799D01*
X2088505Y22935668D01*
X2031046Y22943952D01*
X1966231Y22954871D01*
X1891575Y22968643D01*
X1836658Y22979335D01*
X1783850Y22990469D01*
X1739693Y23001076D01*
X1702096Y23011824D01*
X1668967Y23023383D01*
X1638213Y23036420D01*
X1607741Y23051603D01*
X1575457Y23069601D01*
X1565135Y23075707D01*
X1525687Y23101139D01*
X1486400Y23129424D01*
X1449072Y23159011D01*
X1415499Y23188352D01*
X1387480Y23215897D01*
X1366810Y23240098D01*
X1355287Y23259404D01*
X1355207Y23259616D01*
X1351788Y23273480D01*
X1347932Y23296733D01*
X1344101Y23326184D01*
X1340765Y23358642D01*
X1340584Y23360691D01*
X1338074Y23392314D01*
X1336372Y23420114D01*
X1335630Y23441156D01*
X1335996Y23452498D01*
X1336848Y23454768D01*
X1346362Y23465385D01*
X1364234Y23479374D01*
X1388006Y23495244D01*
X1415221Y23511506D01*
X1443421Y23526668D01*
X1470150Y23539239D01*
X1492949Y23547728D01*
X1503195Y23549942D01*
X1528020Y23553002D01*
X1561305Y23555507D01*
X1600468Y23557394D01*
X1642926Y23558599D01*
X1686097Y23559055D01*
X1727399Y23558699D01*
G37*
X1727399Y23558699D02*
X1764248Y23557465D01*
X1794065Y23555290D01*
X1795318Y23555151D01*
X1823819Y23549649D01*
X1859427Y23539515D01*
X1898283Y23526078D01*
X1936526Y23510666D01*
X1970295Y23494609D01*
X1984451Y23484217D01*
X2001342Y23466918D01*
X2017926Y23446181D01*
X2031982Y23425058D01*
X2041290Y23406598D01*
X2043629Y23393855D01*
X2039000Y23380060D01*
X2029277Y23366624D01*
X2013569Y23355275D01*
X1990538Y23345459D01*
X1958843Y23336624D01*
X1917146Y23328215D01*
X1864107Y23319678D01*
X1854828Y23318293D01*
X1817453Y23312424D01*
X1790722Y23307479D01*
X1773009Y23302956D01*
X1762690Y23298358D01*
X1758138Y23293183D01*
X1757729Y23286929D01*
X1763633Y23274672D01*
X1779127Y23256748D01*
X1802323Y23235937D01*
X1831448Y23213990D01*
X1841331Y23207197D01*
X1851314Y23200950D01*
X1861853Y23195612D01*
X1874639Y23190677D01*
X1891373Y23185641D01*
X1913746Y23179998D01*
X1943459Y23173244D01*
X1982204Y23164875D01*
X2031679Y23154384D01*
X2058466Y23148728D01*
X2103062Y23139438D01*
X2138419Y23132395D01*
X2166645Y23127314D01*
X2189848Y23123906D01*
X2210134Y23121883D01*
X2229613Y23120959D01*
X2250390Y23120846D01*
X2274574Y23121257D01*
X2291866Y23121703D01*
X2340870Y23123671D01*
X2389436Y23126546D01*
X2435112Y23130119D01*
X2475446Y23134185D01*
X2507984Y23138532D01*
X2530275Y23142953D01*
X2548780Y23150951D01*
X2558532Y23162257D01*
X2557387Y23174445D01*
X2544651Y23185464D01*
X2537650Y23187947D01*
X2519092Y23193086D01*
X2491437Y23200031D01*
X2456551Y23208329D01*
X2416297Y23217531D01*
X2372536Y23227183D01*
X2215037Y23261307D01*
X2186024Y23287226D01*
X2173175Y23299893D01*
X2160963Y23315040D01*
X2155754Y23325944D01*
X2156919Y23334421D01*
X2165412Y23352380D01*
X2179960Y23372963D01*
X2198160Y23392940D01*
X2217610Y23409082D01*
X2228190Y23415872D01*
X2261683Y23433819D01*
X2299071Y23449984D01*
X2335640Y23462460D01*
X2366674Y23469343D01*
X2381533Y23470758D01*
X2425433Y23471052D01*
X2475908Y23467156D01*
X2529311Y23459647D01*
X2581996Y23449104D01*
X2630313Y23436103D01*
X2670618Y23421222D01*
X2678002Y23417888D01*
X2747281Y23381455D01*
X2804682Y23340918D01*
X2850390Y23296097D01*
X2884591Y23246813D01*
X2907473Y23192884D01*
X2908135Y23190730D01*
X2915755Y23166389D01*
X2922483Y23145618D01*
X2926929Y23132712D01*
X2927493Y23131075D01*
X2928175Y23124097D01*
X2925007Y23115886D01*
X2916656Y23104552D01*
X2901792Y23088211D01*
X2879083Y23064979D01*
X2858731Y23044057D01*
X2841298Y23025351D01*
X2829240Y23011517D01*
X2824390Y23004577D01*
X2822171Y22999850D01*
X2814412Y22993521D01*
X2799943Y22987293D01*
X2777297Y22980685D01*
X2745013Y22973219D01*
X2701623Y22964416D01*
X2671526Y22958613D01*
X2626406Y22950321D01*
X2586987Y22943852D01*
X2550203Y22938860D01*
X2512988Y22934999D01*
X2472275Y22931924D01*
X2424999Y22929287D01*
X2368090Y22926741D01*
X2352360Y22926116D01*
X2294436Y22924504D01*
X2241573Y22924436D01*
X2191285Y22926127D01*
X2141090Y22929799D01*
X2088505Y22935668D01*
X2031046Y22943952D01*
X1966231Y22954871D01*
X1891575Y22968643D01*
X1836658Y22979335D01*
X1783850Y22990469D01*
X1739693Y23001076D01*
X1702096Y23011824D01*
X1668967Y23023383D01*
X1638213Y23036420D01*
X1607741Y23051603D01*
X1575457Y23069601D01*
X1565135Y23075707D01*
X1525687Y23101139D01*
X1486400Y23129424D01*
X1449072Y23159011D01*
X1415499Y23188352D01*
X1387480Y23215897D01*
X1366810Y23240098D01*
X1355287Y23259404D01*
X1355207Y23259616D01*
X1351788Y23273480D01*
X1347932Y23296733D01*
X1344101Y23326184D01*
X1340765Y23358642D01*
X1340584Y23360691D01*
X1338074Y23392314D01*
X1336372Y23420114D01*
X1335630Y23441156D01*
X1335996Y23452498D01*
X1336848Y23454768D01*
X1346362Y23465385D01*
X1364234Y23479374D01*
X1388006Y23495244D01*
X1415221Y23511506D01*
X1443421Y23526668D01*
X1470150Y23539239D01*
X1492949Y23547728D01*
X1503195Y23549942D01*
X1528020Y23553002D01*
X1561305Y23555507D01*
X1600468Y23557394D01*
X1642926Y23558599D01*
X1686097Y23559055D01*
X1727399Y23558699D01*
G36*
X2126815Y24313571D02*
G01*
X2071579Y24327704D01*
X2027207Y24342154D01*
X2016487Y24346381D01*
X1982080Y24361555D01*
X1947603Y24378703D01*
X1919127Y24394866D01*
X1918288Y24395392D01*
X1870474Y24428938D01*
X1833057Y24463975D01*
X1803993Y24503255D01*
X1781238Y24549533D01*
X1778452Y24557975D01*
X2159163Y24557975D01*
X2164168Y24549502D01*
X2169957Y24542604D01*
X2180288Y24534034D01*
X2194508Y24526368D01*
X2214067Y24519171D01*
X2240412Y24512008D01*
X2274995Y24504446D01*
X2319264Y24496048D01*
X2374668Y24486381D01*
X2443609Y24475303D01*
X2506719Y24466512D01*
X2560727Y24460495D01*
X2604034Y24457452D01*
X2606057Y24457373D01*
X2679193Y24456069D01*
X2749752Y24457733D01*
X2815743Y24462184D01*
X2875174Y24469239D01*
X2926056Y24478720D01*
X2966397Y24490442D01*
X2974901Y24493919D01*
X2997226Y24506417D01*
X3013986Y24520700D01*
X3023077Y24534675D01*
X3022397Y24546244D01*
X3017368Y24550818D01*
X2999641Y24558885D01*
X2971803Y24567020D01*
X2935483Y24574952D01*
X2892311Y24582413D01*
X2843914Y24589133D01*
X2791922Y24594845D01*
X2737963Y24599280D01*
X2683666Y24602167D01*
X2661601Y24603038D01*
X2621880Y24604761D01*
X2582983Y24606608D01*
X2550845Y24608307D01*
X2535302Y24609133D01*
X2482439Y24611076D01*
X2429245Y24611844D01*
X2377889Y24611489D01*
X2330536Y24610073D01*
X2289355Y24607648D01*
X2256512Y24604273D01*
X2234175Y24600006D01*
X2215952Y24594048D01*
X2192389Y24584436D01*
X2175218Y24575238D01*
X2171774Y24572879D01*
X2161129Y24564441D01*
X2159163Y24557975D01*
X1778452Y24557975D01*
X1762750Y24605562D01*
X1758820Y24620517D01*
X1750622Y24662542D01*
X1749382Y24696210D01*
X1755168Y24723297D01*
X1768047Y24745577D01*
X1775884Y24752851D01*
X1798162Y24766136D01*
X1831057Y24780649D01*
X1873372Y24795931D01*
X1923906Y24811526D01*
X1981458Y24826976D01*
X2016824Y24835558D01*
X2062510Y24845510D01*
X2106662Y24853502D01*
X2151056Y24859658D01*
X2197468Y24864103D01*
X2247670Y24866963D01*
X2303439Y24868362D01*
X2366548Y24868424D01*
X2438770Y24867276D01*
X2521882Y24865043D01*
X2670228Y24860492D01*
X2834056Y24821887D01*
X2836288Y24821360D01*
X2902599Y24805566D01*
X2958331Y24791800D01*
X3005267Y24779429D01*
X3045187Y24767822D01*
X3079874Y24756348D01*
X3111108Y24744373D01*
X3140668Y24731266D01*
X3170339Y24716394D01*
X3201900Y24699125D01*
X3237132Y24678826D01*
X3270909Y24658690D01*
X3302428Y24639166D01*
X3329139Y24621876D01*
X3348964Y24608169D01*
X3359822Y24599387D01*
X3368372Y24589482D01*
X3373359Y24578580D01*
X3374386Y24563739D01*
X3372370Y24540667D01*
X3370849Y24521216D01*
X3370444Y24493171D01*
X3372034Y24470364D01*
X3372826Y24463707D01*
X3373570Y24439392D01*
X3371479Y24418547D01*
X3364302Y24398176D01*
X3345625Y24368822D01*
X3319325Y24341459D01*
X3288085Y24319283D01*
X3277112Y24313598D01*
X3239534Y24298613D01*
X3191877Y24284460D01*
X3136049Y24271505D01*
X3073958Y24260113D01*
X3007515Y24250651D01*
X2938628Y24243483D01*
X2869206Y24238978D01*
X2809649Y24237723D01*
X2739316Y24238884D01*
X2663310Y24242388D01*
X2583472Y24248008D01*
X2501638Y24255520D01*
X2419644Y24264698D01*
X2339328Y24275317D01*
X2262527Y24287153D01*
X2230047Y24292983D01*
X2191077Y24299980D01*
X2126815Y24313571D01*
G37*
X2126815Y24313571D02*
X2071579Y24327704D01*
X2027207Y24342154D01*
X2016487Y24346381D01*
X1982080Y24361555D01*
X1947603Y24378703D01*
X1919127Y24394866D01*
X1918288Y24395392D01*
X1870474Y24428938D01*
X1833057Y24463975D01*
X1803993Y24503255D01*
X1781238Y24549533D01*
X1778452Y24557975D01*
X2159163Y24557975D01*
X2164168Y24549502D01*
X2169957Y24542604D01*
X2180288Y24534034D01*
X2194508Y24526368D01*
X2214067Y24519171D01*
X2240412Y24512008D01*
X2274995Y24504446D01*
X2319264Y24496048D01*
X2374668Y24486381D01*
X2443609Y24475303D01*
X2506719Y24466512D01*
X2560727Y24460495D01*
X2604034Y24457452D01*
X2606057Y24457373D01*
X2679193Y24456069D01*
X2749752Y24457733D01*
X2815743Y24462184D01*
X2875174Y24469239D01*
X2926056Y24478720D01*
X2966397Y24490442D01*
X2974901Y24493919D01*
X2997226Y24506417D01*
X3013986Y24520700D01*
X3023077Y24534675D01*
X3022397Y24546244D01*
X3017368Y24550818D01*
X2999641Y24558885D01*
X2971803Y24567020D01*
X2935483Y24574952D01*
X2892311Y24582413D01*
X2843914Y24589133D01*
X2791922Y24594845D01*
X2737963Y24599280D01*
X2683666Y24602167D01*
X2661601Y24603038D01*
X2621880Y24604761D01*
X2582983Y24606608D01*
X2550845Y24608307D01*
X2535302Y24609133D01*
X2482439Y24611076D01*
X2429245Y24611844D01*
X2377889Y24611489D01*
X2330536Y24610073D01*
X2289355Y24607648D01*
X2256512Y24604273D01*
X2234175Y24600006D01*
X2215952Y24594048D01*
X2192389Y24584436D01*
X2175218Y24575238D01*
X2171774Y24572879D01*
X2161129Y24564441D01*
X2159163Y24557975D01*
X1778452Y24557975D01*
X1762750Y24605562D01*
X1758820Y24620517D01*
X1750622Y24662542D01*
X1749382Y24696210D01*
X1755168Y24723297D01*
X1768047Y24745577D01*
X1775884Y24752851D01*
X1798162Y24766136D01*
X1831057Y24780649D01*
X1873372Y24795931D01*
X1923906Y24811526D01*
X1981458Y24826976D01*
X2016824Y24835558D01*
X2062510Y24845510D01*
X2106662Y24853502D01*
X2151056Y24859658D01*
X2197468Y24864103D01*
X2247670Y24866963D01*
X2303439Y24868362D01*
X2366548Y24868424D01*
X2438770Y24867276D01*
X2521882Y24865043D01*
X2670228Y24860492D01*
X2834056Y24821887D01*
X2836288Y24821360D01*
X2902599Y24805566D01*
X2958331Y24791800D01*
X3005267Y24779429D01*
X3045187Y24767822D01*
X3079874Y24756348D01*
X3111108Y24744373D01*
X3140668Y24731266D01*
X3170339Y24716394D01*
X3201900Y24699125D01*
X3237132Y24678826D01*
X3270909Y24658690D01*
X3302428Y24639166D01*
X3329139Y24621876D01*
X3348964Y24608169D01*
X3359822Y24599387D01*
X3368372Y24589482D01*
X3373359Y24578580D01*
X3374386Y24563739D01*
X3372370Y24540667D01*
X3370849Y24521216D01*
X3370444Y24493171D01*
X3372034Y24470364D01*
X3372826Y24463707D01*
X3373570Y24439392D01*
X3371479Y24418547D01*
X3364302Y24398176D01*
X3345625Y24368822D01*
X3319325Y24341459D01*
X3288085Y24319283D01*
X3277112Y24313598D01*
X3239534Y24298613D01*
X3191877Y24284460D01*
X3136049Y24271505D01*
X3073958Y24260113D01*
X3007515Y24250651D01*
X2938628Y24243483D01*
X2869206Y24238978D01*
X2809649Y24237723D01*
X2739316Y24238884D01*
X2663310Y24242388D01*
X2583472Y24248008D01*
X2501638Y24255520D01*
X2419644Y24264698D01*
X2339328Y24275317D01*
X2262527Y24287153D01*
X2230047Y24292983D01*
X2191077Y24299980D01*
X2126815Y24313571D01*
G36*
X1792740Y24337607D02*
G01*
X1816515Y24334755D01*
X1847408Y24329801D01*
X1888082Y24322522D01*
X1972486Y24304980D01*
X2094709Y24271477D01*
X2112127Y24265992D01*
X2150272Y24254054D01*
X2186597Y24242774D01*
X2217675Y24233214D01*
X2240076Y24226438D01*
X2272185Y24216785D01*
X2340052Y24195769D01*
X2410601Y24173186D01*
X2482488Y24149520D01*
X2554363Y24125249D01*
X2624878Y24100855D01*
X2692687Y24076818D01*
X2756440Y24053620D01*
X2814791Y24031742D01*
X2866391Y24011664D01*
X2909892Y23993867D01*
X2943947Y23978831D01*
X2967208Y23967038D01*
X2975977Y23961866D01*
X3003125Y23943863D01*
X3030478Y23922218D01*
X3060574Y23894811D01*
X3095954Y23859521D01*
X3098692Y23856691D01*
X3128561Y23822544D01*
X3147768Y23792981D01*
X3156904Y23766869D01*
X3156556Y23743074D01*
X3152278Y23734425D01*
X3141306Y23717953D01*
X3125455Y23696532D01*
X3106477Y23672620D01*
X3059093Y23614845D01*
X3084197Y23605980D01*
X3088306Y23604574D01*
X3106007Y23598786D01*
X3132815Y23590221D01*
X3166577Y23579559D01*
X3205139Y23567482D01*
X3246347Y23554673D01*
X3303592Y23536844D01*
X3385533Y23510873D01*
X3456348Y23487774D01*
X3516736Y23467282D01*
X3567398Y23449134D01*
X3609033Y23433068D01*
X3642339Y23418821D01*
X3668020Y23406128D01*
X3686772Y23394727D01*
X3699296Y23384356D01*
X3707770Y23372945D01*
X3713878Y23349886D01*
X3708789Y23325258D01*
X3692697Y23301496D01*
X3690619Y23299356D01*
X3676309Y23286775D01*
X3660612Y23277738D01*
X3641676Y23272022D01*
X3617646Y23269404D01*
X3586670Y23269662D01*
X3546894Y23272574D01*
X3496465Y23277917D01*
X3463240Y23281898D01*
X3423188Y23287269D01*
X3384514Y23293274D01*
X3346107Y23300220D01*
X3306857Y23308413D01*
X3265654Y23318159D01*
X3221388Y23329765D01*
X3172947Y23343540D01*
X3119223Y23359787D01*
X3059104Y23378814D01*
X2991481Y23400927D01*
X2915243Y23426433D01*
X2829281Y23455639D01*
X2732483Y23488851D01*
X2697261Y23500965D01*
X2627095Y23524990D01*
X2566622Y23545505D01*
X2514269Y23563018D01*
X2468470Y23578030D01*
X2427651Y23591046D01*
X2390243Y23602571D01*
X2354675Y23613107D01*
X2319376Y23623161D01*
X2282775Y23633235D01*
X2274834Y23635431D01*
X2244096Y23644339D01*
X2205243Y23656034D01*
X2161222Y23669611D01*
X2114988Y23684161D01*
X2069491Y23698779D01*
X2063066Y23700868D01*
X2013057Y23717125D01*
X1959443Y23734556D01*
X1906145Y23751885D01*
X1857085Y23767839D01*
X1816182Y23781142D01*
X1785963Y23791155D01*
X1724798Y23812612D01*
X1668653Y23833910D01*
X1618733Y23854511D01*
X1576241Y23873883D01*
X1542380Y23891489D01*
X1518357Y23906795D01*
X1505373Y23919266D01*
X1500557Y23929494D01*
X1499732Y23944257D01*
X1504348Y23965909D01*
X1506537Y23973584D01*
X1512961Y23990032D01*
X1521691Y23999688D01*
X1536062Y24006855D01*
X1543419Y24009399D01*
X1560547Y24012828D01*
X1582569Y24014151D01*
X1610997Y24013298D01*
X1647346Y24010200D01*
X1693129Y24004787D01*
X1749858Y23996990D01*
X1783830Y23991903D01*
X1817188Y23986362D01*
X1849978Y23980199D01*
X1883606Y23973049D01*
X1919480Y23964548D01*
X1959002Y23954332D01*
X2003582Y23942038D01*
X2054623Y23927302D01*
X2113534Y23909758D01*
X2181719Y23889045D01*
X2260584Y23864797D01*
X2280831Y23858567D01*
X2359775Y23834634D01*
X2433085Y23812995D01*
X2499959Y23793858D01*
X2559594Y23777438D01*
X2611187Y23763944D01*
X2653934Y23753588D01*
X2687032Y23746584D01*
X2709678Y23743140D01*
X2721069Y23743470D01*
X2726189Y23747978D01*
X2732937Y23761852D01*
X2736614Y23778920D01*
X2735535Y23793373D01*
X2734557Y23795551D01*
X2722910Y23808735D01*
X2701903Y23824030D01*
X2673821Y23839943D01*
X2640953Y23854986D01*
X2623502Y23861995D01*
X2600686Y23870742D01*
X2575626Y23879827D01*
X2546901Y23889717D01*
X2513094Y23900880D01*
X2472786Y23913782D01*
X2424558Y23928889D01*
X2366990Y23946670D01*
X2298663Y23967589D01*
X2272473Y23975617D01*
X2207339Y23995840D01*
X2141316Y24016673D01*
X2075850Y24037635D01*
X2012392Y24058247D01*
X1952389Y24078028D01*
X1897290Y24096502D01*
X1848544Y24113184D01*
X1807598Y24127598D01*
X1775902Y24139264D01*
X1754904Y24147700D01*
X1724610Y24162944D01*
X1690494Y24184643D01*
X1661543Y24207909D01*
X1641273Y24230189D01*
X1631627Y24251220D01*
X1632334Y24273631D01*
X1643898Y24294327D01*
X1665357Y24312220D01*
X1695750Y24326224D01*
X1734118Y24335251D01*
X1737496Y24335739D01*
X1755894Y24337877D01*
X1773420Y24338574D01*
X1792740Y24337607D01*
G37*
X1792740Y24337607D02*
X1816515Y24334755D01*
X1847408Y24329801D01*
X1888082Y24322522D01*
X1972486Y24304980D01*
X2094709Y24271477D01*
X2112127Y24265992D01*
X2150272Y24254054D01*
X2186597Y24242774D01*
X2217675Y24233214D01*
X2240076Y24226438D01*
X2272185Y24216785D01*
X2340052Y24195769D01*
X2410601Y24173186D01*
X2482488Y24149520D01*
X2554363Y24125249D01*
X2624878Y24100855D01*
X2692687Y24076818D01*
X2756440Y24053620D01*
X2814791Y24031742D01*
X2866391Y24011664D01*
X2909892Y23993867D01*
X2943947Y23978831D01*
X2967208Y23967038D01*
X2975977Y23961866D01*
X3003125Y23943863D01*
X3030478Y23922218D01*
X3060574Y23894811D01*
X3095954Y23859521D01*
X3098692Y23856691D01*
X3128561Y23822544D01*
X3147768Y23792981D01*
X3156904Y23766869D01*
X3156556Y23743074D01*
X3152278Y23734425D01*
X3141306Y23717953D01*
X3125455Y23696532D01*
X3106477Y23672620D01*
X3059093Y23614845D01*
X3084197Y23605980D01*
X3088306Y23604574D01*
X3106007Y23598786D01*
X3132815Y23590221D01*
X3166577Y23579559D01*
X3205139Y23567482D01*
X3246347Y23554673D01*
X3303592Y23536844D01*
X3385533Y23510873D01*
X3456348Y23487774D01*
X3516736Y23467282D01*
X3567398Y23449134D01*
X3609033Y23433068D01*
X3642339Y23418821D01*
X3668020Y23406128D01*
X3686772Y23394727D01*
X3699296Y23384356D01*
X3707770Y23372945D01*
X3713878Y23349886D01*
X3708789Y23325258D01*
X3692697Y23301496D01*
X3690619Y23299356D01*
X3676309Y23286775D01*
X3660612Y23277738D01*
X3641676Y23272022D01*
X3617646Y23269404D01*
X3586670Y23269662D01*
X3546894Y23272574D01*
X3496465Y23277917D01*
X3463240Y23281898D01*
X3423188Y23287269D01*
X3384514Y23293274D01*
X3346107Y23300220D01*
X3306857Y23308413D01*
X3265654Y23318159D01*
X3221388Y23329765D01*
X3172947Y23343540D01*
X3119223Y23359787D01*
X3059104Y23378814D01*
X2991481Y23400927D01*
X2915243Y23426433D01*
X2829281Y23455639D01*
X2732483Y23488851D01*
X2697261Y23500965D01*
X2627095Y23524990D01*
X2566622Y23545505D01*
X2514269Y23563018D01*
X2468470Y23578030D01*
X2427651Y23591046D01*
X2390243Y23602571D01*
X2354675Y23613107D01*
X2319376Y23623161D01*
X2282775Y23633235D01*
X2274834Y23635431D01*
X2244096Y23644339D01*
X2205243Y23656034D01*
X2161222Y23669611D01*
X2114988Y23684161D01*
X2069491Y23698779D01*
X2063066Y23700868D01*
X2013057Y23717125D01*
X1959443Y23734556D01*
X1906145Y23751885D01*
X1857085Y23767839D01*
X1816182Y23781142D01*
X1785963Y23791155D01*
X1724798Y23812612D01*
X1668653Y23833910D01*
X1618733Y23854511D01*
X1576241Y23873883D01*
X1542380Y23891489D01*
X1518357Y23906795D01*
X1505373Y23919266D01*
X1500557Y23929494D01*
X1499732Y23944257D01*
X1504348Y23965909D01*
X1506537Y23973584D01*
X1512961Y23990032D01*
X1521691Y23999688D01*
X1536062Y24006855D01*
X1543419Y24009399D01*
X1560547Y24012828D01*
X1582569Y24014151D01*
X1610997Y24013298D01*
X1647346Y24010200D01*
X1693129Y24004787D01*
X1749858Y23996990D01*
X1783830Y23991903D01*
X1817188Y23986362D01*
X1849978Y23980199D01*
X1883606Y23973049D01*
X1919480Y23964548D01*
X1959002Y23954332D01*
X2003582Y23942038D01*
X2054623Y23927302D01*
X2113534Y23909758D01*
X2181719Y23889045D01*
X2260584Y23864797D01*
X2280831Y23858567D01*
X2359775Y23834634D01*
X2433085Y23812995D01*
X2499959Y23793858D01*
X2559594Y23777438D01*
X2611187Y23763944D01*
X2653934Y23753588D01*
X2687032Y23746584D01*
X2709678Y23743140D01*
X2721069Y23743470D01*
X2726189Y23747978D01*
X2732937Y23761852D01*
X2736614Y23778920D01*
X2735535Y23793373D01*
X2734557Y23795551D01*
X2722910Y23808735D01*
X2701903Y23824030D01*
X2673821Y23839943D01*
X2640953Y23854986D01*
X2623502Y23861995D01*
X2600686Y23870742D01*
X2575626Y23879827D01*
X2546901Y23889717D01*
X2513094Y23900880D01*
X2472786Y23913782D01*
X2424558Y23928889D01*
X2366990Y23946670D01*
X2298663Y23967589D01*
X2272473Y23975617D01*
X2207339Y23995840D01*
X2141316Y24016673D01*
X2075850Y24037635D01*
X2012392Y24058247D01*
X1952389Y24078028D01*
X1897290Y24096502D01*
X1848544Y24113184D01*
X1807598Y24127598D01*
X1775902Y24139264D01*
X1754904Y24147700D01*
X1724610Y24162944D01*
X1690494Y24184643D01*
X1661543Y24207909D01*
X1641273Y24230189D01*
X1631627Y24251220D01*
X1632334Y24273631D01*
X1643898Y24294327D01*
X1665357Y24312220D01*
X1695750Y24326224D01*
X1734118Y24335251D01*
X1737496Y24335739D01*
X1755894Y24337877D01*
X1773420Y24338574D01*
X1792740Y24337607D01*
G04 #@! TD*
M02*
