G04 #@! TF.GenerationSoftware,KiCad,Pcbnew,6.0.4-6f826c9f35~116~ubuntu21.10.1*
G04 #@! TF.CreationDate,2023-01-05T16:01:04-05:00*
G04 #@! TF.ProjectId,T36VAIllumination,54333656-4149-46c6-9c75-6d696e617469,rev?*
G04 #@! TF.SameCoordinates,PX1c9c380PYa21fe80*
G04 #@! TF.FileFunction,Copper,L2,Bot*
G04 #@! TF.FilePolarity,Positive*
%FSLAX46Y46*%
G04 Gerber Fmt 4.6, Leading zero omitted, Abs format (unit mm)*
G04 Created by KiCad (PCBNEW 6.0.4-6f826c9f35~116~ubuntu21.10.1) date 2023-01-05 16:01:04*
%MOMM*%
%LPD*%
G01*
G04 APERTURE LIST*
G04 Aperture macros list*
%AMHorizOval*
0 Thick line with rounded ends*
0 $1 width*
0 $2 $3 position (X,Y) of the first rounded end (center of the circle)*
0 $4 $5 position (X,Y) of the second rounded end (center of the circle)*
0 Add line between two ends*
20,1,$1,$2,$3,$4,$5,0*
0 Add two circle primitives to create the rounded ends*
1,1,$1,$2,$3*
1,1,$1,$4,$5*%
%AMRotRect*
0 Rectangle, with rotation*
0 The origin of the aperture is its center*
0 $1 length*
0 $2 width*
0 $3 Rotation angle, in degrees counterclockwise*
0 Add horizontal line*
21,1,$1,$2,0,0,$3*%
G04 Aperture macros list end*
G04 #@! TA.AperFunction,ComponentPad*
%ADD10C,0.820000*%
G04 #@! TD*
G04 #@! TA.AperFunction,ComponentPad*
%ADD11RotRect,1.700000X1.700000X310.000000*%
G04 #@! TD*
G04 #@! TA.AperFunction,ComponentPad*
%ADD12HorizOval,1.700000X0.000000X0.000000X0.000000X0.000000X0*%
G04 #@! TD*
G04 #@! TA.AperFunction,ViaPad*
%ADD13C,0.800000*%
G04 #@! TD*
G04 #@! TA.AperFunction,Conductor*
%ADD14C,0.350000*%
G04 #@! TD*
G04 APERTURE END LIST*
D10*
G04 #@! TO.P,REF\u002A\u002A,1*
G04 #@! TO.N,GND*
X33500000Y7900000D03*
G04 #@! TD*
G04 #@! TO.P,REF\u002A\u002A,1*
G04 #@! TO.N,GND*
X24500000Y1300000D03*
G04 #@! TD*
G04 #@! TO.P,REF\u002A\u002A,1*
G04 #@! TO.N,GND*
X6500000Y11600000D03*
G04 #@! TD*
G04 #@! TO.P,REF\u002A\u002A,1*
G04 #@! TO.N,GND*
X2900000Y11400000D03*
G04 #@! TD*
G04 #@! TO.P,REF\u002A\u002A,1*
G04 #@! TO.N,GND*
X2700000Y19900000D03*
G04 #@! TD*
G04 #@! TO.P,REF\u002A\u002A,1*
G04 #@! TO.N,GND*
X4400000Y31200000D03*
G04 #@! TD*
G04 #@! TO.P,REF\u002A\u002A,1*
G04 #@! TO.N,GND*
X800000Y18700000D03*
G04 #@! TD*
G04 #@! TO.P,REF\u002A\u002A,1*
G04 #@! TO.N,GND*
X27050000Y5900000D03*
G04 #@! TD*
G04 #@! TO.P,REF\u002A\u002A,1*
G04 #@! TO.N,GND*
X15010000Y33100000D03*
G04 #@! TD*
G04 #@! TO.P,REF\u002A\u002A,1*
G04 #@! TO.N,GND*
X17600000Y4950000D03*
G04 #@! TD*
G04 #@! TO.P,REF\u002A\u002A,1*
G04 #@! TO.N,GND*
X10000000Y10500000D03*
G04 #@! TD*
G04 #@! TO.P,REF\u002A\u002A,1*
G04 #@! TO.N,GND*
X19250000Y6250000D03*
G04 #@! TD*
G04 #@! TO.P,REF\u002A\u002A,1*
G04 #@! TO.N,GND*
X12900000Y34700000D03*
G04 #@! TD*
G04 #@! TO.P,REF\u002A\u002A,1*
G04 #@! TO.N,GND*
X14000000Y7500000D03*
G04 #@! TD*
G04 #@! TO.P,REF\u002A\u002A,1*
G04 #@! TO.N,GND*
X13000000Y5600000D03*
G04 #@! TD*
G04 #@! TO.P,REF\u002A\u002A,1*
G04 #@! TO.N,GND*
X2800000Y15000000D03*
G04 #@! TD*
G04 #@! TO.P,REF\u002A\u002A,1*
G04 #@! TO.N,GND*
X800000Y22100000D03*
G04 #@! TD*
G04 #@! TO.P,REF\u002A\u002A,1*
G04 #@! TO.N,GND*
X7300000Y32700000D03*
G04 #@! TD*
G04 #@! TO.P,REF\u002A\u002A,1*
G04 #@! TO.N,GND*
X7500000Y14500000D03*
G04 #@! TD*
G04 #@! TO.P,REF\u002A\u002A,1*
G04 #@! TO.N,GND*
X8500000Y27500000D03*
G04 #@! TD*
G04 #@! TO.P,REF\u002A\u002A,1*
G04 #@! TO.N,GND*
X28500000Y9250000D03*
G04 #@! TD*
G04 #@! TO.P,REF\u002A\u002A,1*
G04 #@! TO.N,GND*
X31750000Y13000000D03*
G04 #@! TD*
G04 #@! TO.P,REF\u002A\u002A,1*
G04 #@! TO.N,GND*
X31200000Y5800000D03*
G04 #@! TD*
G04 #@! TO.P,REF\u002A\u002A,1*
G04 #@! TO.N,GND*
X11000000Y30500000D03*
G04 #@! TD*
G04 #@! TO.P,REF\u002A\u002A,1*
G04 #@! TO.N,GND*
X3750000Y24700000D03*
G04 #@! TD*
G04 #@! TO.P,REF\u002A\u002A,1*
G04 #@! TO.N,GND*
X6250000Y19500000D03*
G04 #@! TD*
G04 #@! TO.P,REF\u002A\u002A,1*
G04 #@! TO.N,GND*
X24250000Y7000000D03*
G04 #@! TD*
G04 #@! TO.P,REF\u002A\u002A,1*
G04 #@! TO.N,GND*
X5500000Y7700000D03*
G04 #@! TD*
G04 #@! TO.P,REF\u002A\u002A,1*
G04 #@! TO.N,GND*
X9500000Y5500000D03*
G04 #@! TD*
G04 #@! TO.P,REF\u002A\u002A,1*
G04 #@! TO.N,GND*
X15790000Y2130000D03*
G04 #@! TD*
G04 #@! TO.P,REF\u002A\u002A,1*
G04 #@! TO.N,GND*
X21300000Y2100000D03*
G04 #@! TD*
G04 #@! TO.P,REF\u002A\u002A,1*
G04 #@! TO.N,GND*
X2700000Y28300000D03*
G04 #@! TD*
G04 #@! TO.P,REF\u002A\u002A,1*
G04 #@! TO.N,GND*
X33260000Y16360000D03*
G04 #@! TD*
G04 #@! TO.P,REF\u002A\u002A,1*
G04 #@! TO.N,GND*
X37700000Y16500000D03*
G04 #@! TD*
G04 #@! TO.P,REF\u002A\u002A,1*
G04 #@! TO.N,GND*
X7000000Y24250000D03*
G04 #@! TD*
D11*
G04 #@! TO.P,J1,1,Pin_1*
G04 #@! TO.N,GND*
X33923294Y10380446D03*
D12*
G04 #@! TO.P,J1,2,Pin_2*
G04 #@! TO.N,VCC*
X35869047Y12013127D03*
G04 #@! TD*
D13*
G04 #@! TO.N,VCC*
X25790000Y2010000D03*
X12620000Y2430000D03*
X13650000Y2130000D03*
X28400000Y2600000D03*
G04 #@! TO.N,GND*
X28500000Y3800000D03*
X25640000Y3810000D03*
G04 #@! TD*
D14*
G04 #@! TO.N,VCC*
X25790000Y2010000D02*
X25600000Y2200000D01*
X25600000Y2200000D02*
X23950000Y2200000D01*
X14530000Y1250000D02*
X13650000Y2130000D01*
X23950000Y2200000D02*
X22290000Y540000D01*
X22290000Y540000D02*
X18160000Y540000D01*
X18160000Y540000D02*
X17450000Y1250000D01*
X17450000Y1250000D02*
X14530000Y1250000D01*
X35869047Y12013127D02*
X35869047Y8769047D01*
X35869047Y8769047D02*
X30600000Y3500000D01*
X30600000Y3500000D02*
X29700000Y3500000D01*
X29700000Y3500000D02*
X28800000Y2600000D01*
X28800000Y2600000D02*
X28400000Y2600000D01*
X27810000Y2010000D02*
X25790000Y2010000D01*
X28400000Y2600000D02*
X27810000Y2010000D01*
X12620000Y2430000D02*
X12910000Y2140000D01*
X12910000Y2140000D02*
X13640000Y2140000D01*
X13640000Y2140000D02*
X13650000Y2130000D01*
G04 #@! TD*
G04 #@! TA.AperFunction,Conductor*
G04 #@! TO.N,GND*
G36*
X25024171Y1496498D02*
G01*
X25049951Y1472146D01*
X25050960Y1473056D01*
X25108058Y1409642D01*
X25138774Y1345636D01*
X25130009Y1275183D01*
X25084546Y1220652D01*
X25044284Y1202924D01*
X24913763Y1171082D01*
X24215973Y1000847D01*
X24210483Y999637D01*
X24001165Y958367D01*
X23930462Y964814D01*
X23874468Y1008462D01*
X23850961Y1075455D01*
X23867405Y1144521D01*
X23887697Y1171082D01*
X24196210Y1479595D01*
X24258522Y1513621D01*
X24285305Y1516500D01*
X24956050Y1516500D01*
X25024171Y1496498D01*
G37*
G04 #@! TD.AperFunction*
G04 #@! TA.AperFunction,Conductor*
G36*
X10436829Y36848086D02*
G01*
X15726284Y33058626D01*
X15770011Y33002694D01*
X15776557Y32931999D01*
X15743844Y32868988D01*
X15690550Y32835955D01*
X15587920Y32803823D01*
X15587914Y32803821D01*
X15586282Y32803310D01*
X15584691Y32802716D01*
X15584673Y32802710D01*
X15034650Y32597416D01*
X14904170Y32548715D01*
X14236739Y32257801D01*
X13585921Y31931410D01*
X13584455Y31930573D01*
X13584449Y31930570D01*
X12957508Y31572716D01*
X12953601Y31570486D01*
X12952194Y31569579D01*
X12952192Y31569578D01*
X12343033Y31176994D01*
X12343017Y31176983D01*
X12341608Y31176075D01*
X11751715Y30749318D01*
X11185630Y30291451D01*
X10644991Y29803799D01*
X10643800Y29802603D01*
X10643789Y29802592D01*
X10387194Y29544799D01*
X10131363Y29287774D01*
X10130222Y29286497D01*
X9647360Y28746131D01*
X9647346Y28746114D01*
X9646234Y28744870D01*
X9191007Y28176659D01*
X8767002Y27584785D01*
X8766098Y27583368D01*
X8766092Y27583359D01*
X8749212Y27556897D01*
X8375444Y26970963D01*
X8374614Y26969493D01*
X8374611Y26969488D01*
X8018304Y26338447D01*
X8017469Y26336968D01*
X7694111Y25684638D01*
X7406308Y25015860D01*
X7154893Y24332570D01*
X6940593Y23636746D01*
X6940185Y23635113D01*
X6940182Y23635103D01*
X6799635Y23072847D01*
X6764028Y22930403D01*
X6625711Y22215586D01*
X6568608Y21802384D01*
X6526652Y21498782D01*
X6526041Y21494364D01*
X6465306Y20768825D01*
X6465255Y20767116D01*
X6465255Y20767112D01*
X6444440Y20066505D01*
X6443684Y20041070D01*
X6461236Y19313206D01*
X6461367Y19311525D01*
X6461368Y19311510D01*
X6479600Y19078006D01*
X6517911Y18587338D01*
X6613546Y17865570D01*
X6747864Y17149991D01*
X6748261Y17148366D01*
X6748264Y17148350D01*
X6796835Y16949319D01*
X6920475Y16442672D01*
X6920965Y16441050D01*
X6920969Y16441034D01*
X7022918Y16103307D01*
X7130880Y15745660D01*
X7378470Y15060975D01*
X7379128Y15059421D01*
X7379132Y15059412D01*
X7534711Y14692246D01*
X7662528Y14390597D01*
X7982232Y13736469D01*
X7983056Y13734990D01*
X7983063Y13734977D01*
X8319698Y13130911D01*
X8336656Y13100482D01*
X8724775Y12484480D01*
X8751021Y12447407D01*
X9105611Y11946537D01*
X9145463Y11890244D01*
X9146500Y11888935D01*
X9146502Y11888932D01*
X9583288Y11337447D01*
X9597505Y11319496D01*
X10079590Y10773887D01*
X10590324Y10254997D01*
X11128227Y9764329D01*
X11129544Y9763252D01*
X11129555Y9763242D01*
X11406081Y9537010D01*
X11691743Y9303303D01*
X11693090Y9302317D01*
X12277888Y8874243D01*
X12277904Y8874232D01*
X12279240Y8873254D01*
X12280640Y8872341D01*
X12280651Y8872333D01*
X12887583Y8476361D01*
X12887598Y8476352D01*
X12889017Y8475426D01*
X13083209Y8363138D01*
X13517850Y8111814D01*
X13517868Y8111804D01*
X13519309Y8110971D01*
X14168291Y7780945D01*
X14344717Y7702869D01*
X14832516Y7486997D01*
X14832527Y7486993D01*
X14834085Y7486303D01*
X15174492Y7357074D01*
X15513178Y7228498D01*
X15513189Y7228494D01*
X15514762Y7227897D01*
X16208353Y7006477D01*
X16209973Y7006054D01*
X16209988Y7006050D01*
X16911223Y6823107D01*
X16911230Y6823105D01*
X16912849Y6822683D01*
X17113053Y6781810D01*
X17624558Y6677383D01*
X17624575Y6677380D01*
X17626211Y6677046D01*
X17627884Y6676797D01*
X17627897Y6676795D01*
X18344675Y6570242D01*
X18344690Y6570240D01*
X18346373Y6569990D01*
X18603763Y6545785D01*
X19069558Y6501982D01*
X19069566Y6501981D01*
X19071251Y6501823D01*
X19072952Y6501755D01*
X19072967Y6501754D01*
X19725965Y6475651D01*
X19798747Y6472742D01*
X19800422Y6472765D01*
X19800438Y6472765D01*
X20525047Y6482810D01*
X20525060Y6482811D01*
X20526753Y6482834D01*
X21253163Y6532067D01*
X21254859Y6532274D01*
X21254869Y6532275D01*
X21630982Y6578193D01*
X21975873Y6620299D01*
X22298175Y6677383D01*
X22691134Y6746981D01*
X22691146Y6746984D01*
X22692792Y6747275D01*
X22936284Y6804058D01*
X23400193Y6912243D01*
X23400200Y6912245D01*
X23401843Y6912628D01*
X23723191Y7006050D01*
X24099358Y7115409D01*
X24099365Y7115411D01*
X24100974Y7115879D01*
X24102553Y7116432D01*
X24102560Y7116434D01*
X24398156Y7219912D01*
X24788161Y7356439D01*
X25461415Y7633611D01*
X25462920Y7634328D01*
X25462930Y7634332D01*
X26117262Y7945868D01*
X26117274Y7945874D01*
X26118786Y7946594D01*
X26758371Y8294481D01*
X26759803Y8295363D01*
X26759817Y8295371D01*
X27376848Y8675360D01*
X27376851Y8675362D01*
X27378319Y8676266D01*
X27379724Y8677239D01*
X27379739Y8677249D01*
X27975437Y9089873D01*
X27975453Y9089885D01*
X27976835Y9090842D01*
X28089835Y9178470D01*
X28258864Y9309547D01*
X33051324Y9309547D01*
X33054981Y9302589D01*
X33458095Y8822177D01*
X33462746Y8817207D01*
X33499684Y8781783D01*
X33512262Y8772434D01*
X33624283Y8709185D01*
X33640833Y8702732D01*
X33765058Y8673709D01*
X33782753Y8672161D01*
X33910127Y8679171D01*
X33927554Y8682653D01*
X34048853Y8725488D01*
X34062865Y8732512D01*
X34105392Y8760982D01*
X34110835Y8765068D01*
X34587746Y9165245D01*
X34596545Y9178470D01*
X34596574Y9180309D01*
X34592917Y9187267D01*
X33903632Y10008725D01*
X33890407Y10017524D01*
X33888568Y10017553D01*
X33881610Y10013896D01*
X33060152Y9324611D01*
X33051353Y9311386D01*
X33051324Y9309547D01*
X28258864Y9309547D01*
X28550839Y9535964D01*
X28550854Y9535976D01*
X28552187Y9537010D01*
X28553472Y9538122D01*
X28553484Y9538132D01*
X29101416Y10012360D01*
X29102708Y10013478D01*
X29112471Y10022892D01*
X29358051Y10259707D01*
X29626804Y10518867D01*
X29628778Y10520987D01*
X32215009Y10520987D01*
X32222019Y10393613D01*
X32225501Y10376186D01*
X32268336Y10254887D01*
X32275360Y10240875D01*
X32303830Y10198348D01*
X32307916Y10192905D01*
X32708093Y9715994D01*
X32721318Y9707195D01*
X32723157Y9707166D01*
X32730115Y9710823D01*
X33551573Y10400108D01*
X33560372Y10413333D01*
X33560401Y10415172D01*
X33556744Y10422130D01*
X32867459Y11243588D01*
X32854234Y11252387D01*
X32852395Y11252416D01*
X32845437Y11248759D01*
X32365025Y10845645D01*
X32360055Y10840994D01*
X32324631Y10804056D01*
X32315282Y10791478D01*
X32252033Y10679457D01*
X32245580Y10662907D01*
X32216557Y10538682D01*
X32215009Y10520987D01*
X29628778Y10520987D01*
X30122960Y11051713D01*
X30126423Y11055858D01*
X30588653Y11609177D01*
X30588659Y11609184D01*
X30589737Y11610475D01*
X30675430Y11725058D01*
X31024768Y12192173D01*
X31024770Y12192175D01*
X31025785Y12193533D01*
X31429842Y12799201D01*
X31635845Y13147185D01*
X31799861Y13424244D01*
X31799863Y13424248D01*
X31800737Y13425724D01*
X32137397Y14071290D01*
X32138080Y14072792D01*
X32138088Y14072808D01*
X32438152Y14732499D01*
X32438848Y14734029D01*
X32464763Y14800238D01*
X32595364Y15133915D01*
X32704216Y15412022D01*
X32771835Y15616574D01*
X32816141Y15750606D01*
X32932733Y16103307D01*
X32974799Y16258039D01*
X33123297Y16804258D01*
X33123301Y16804276D01*
X33123738Y16805882D01*
X33169372Y17018274D01*
X33276321Y17516053D01*
X33276678Y17517714D01*
X33391110Y18236742D01*
X33466703Y18960883D01*
X33469394Y19014432D01*
X33472277Y19071823D01*
X33495672Y19138854D01*
X33551593Y19182596D01*
X33598118Y19191500D01*
X39331359Y19191500D01*
X39399480Y19171498D01*
X39445973Y19117842D01*
X39457270Y19060773D01*
X39453457Y18959191D01*
X39449092Y18842931D01*
X39448757Y18837335D01*
X39399172Y18235055D01*
X39377977Y17977619D01*
X39377391Y17972028D01*
X39268334Y17116336D01*
X39267499Y17110777D01*
X39120384Y16260809D01*
X39119302Y16255293D01*
X38934421Y15412733D01*
X38933094Y15407270D01*
X38710809Y14573778D01*
X38709239Y14568380D01*
X38450004Y13745654D01*
X38448210Y13740373D01*
X38277085Y13271377D01*
X38152516Y12929976D01*
X38150483Y12924767D01*
X37818933Y12128361D01*
X37816682Y12123278D01*
X37516647Y11484482D01*
X37449951Y11342481D01*
X37447450Y11337452D01*
X37263108Y10986560D01*
X37046265Y10573806D01*
X37043540Y10568889D01*
X36787366Y10130007D01*
X36735751Y10081258D01*
X36665975Y10068153D01*
X36600190Y10094852D01*
X36559283Y10152879D01*
X36552547Y10193524D01*
X36552547Y10766998D01*
X36572549Y10835119D01*
X36605379Y10869577D01*
X36643117Y10896495D01*
X36748907Y10971954D01*
X36907143Y11129638D01*
X37037500Y11311050D01*
X37041675Y11319496D01*
X37134183Y11506674D01*
X37134184Y11506676D01*
X37136477Y11511316D01*
X37201417Y11725058D01*
X37230576Y11946537D01*
X37232203Y12013127D01*
X37213899Y12235766D01*
X37159478Y12452425D01*
X37070401Y12657287D01*
X37030953Y12718265D01*
X36951869Y12840510D01*
X36951867Y12840513D01*
X36949061Y12844850D01*
X36798717Y13010076D01*
X36794666Y13013275D01*
X36794662Y13013279D01*
X36627461Y13145327D01*
X36627457Y13145329D01*
X36623406Y13148529D01*
X36616311Y13152446D01*
X36571183Y13177358D01*
X36427836Y13256489D01*
X36422967Y13258213D01*
X36422963Y13258215D01*
X36222134Y13329332D01*
X36222130Y13329333D01*
X36217259Y13331058D01*
X36212166Y13331965D01*
X36212163Y13331966D01*
X36002420Y13369327D01*
X36002414Y13369328D01*
X35997331Y13370233D01*
X35923499Y13371135D01*
X35779128Y13372899D01*
X35779126Y13372899D01*
X35773958Y13372962D01*
X35553138Y13339172D01*
X35340803Y13269770D01*
X35142654Y13166620D01*
X35138521Y13163517D01*
X35138518Y13163515D01*
X35056561Y13101980D01*
X34964012Y13032492D01*
X34809676Y12870989D01*
X34806762Y12866717D01*
X34806761Y12866716D01*
X34759741Y12797787D01*
X34683790Y12686447D01*
X34668050Y12652537D01*
X34608059Y12523297D01*
X34589735Y12483822D01*
X34530036Y12268557D01*
X34529487Y12263420D01*
X34511032Y12090734D01*
X34483904Y12025124D01*
X34425611Y11984596D01*
X34354662Y11982017D01*
X34323796Y11994404D01*
X34222305Y12051707D01*
X34205755Y12058160D01*
X34081530Y12087183D01*
X34063835Y12088731D01*
X33936461Y12081721D01*
X33919034Y12078239D01*
X33797735Y12035404D01*
X33783723Y12028380D01*
X33741196Y11999910D01*
X33735753Y11995824D01*
X33258842Y11595647D01*
X33250043Y11582422D01*
X33250014Y11580583D01*
X33253671Y11573625D01*
X34258395Y10376242D01*
X34979129Y9517304D01*
X34992354Y9508505D01*
X34994193Y9508476D01*
X35000924Y9512014D01*
X35070529Y9526002D01*
X35136647Y9500139D01*
X35178287Y9442635D01*
X35185547Y9400482D01*
X35185547Y9104352D01*
X35165545Y9036231D01*
X35148642Y9015257D01*
X30353790Y4220405D01*
X30291478Y4186379D01*
X30264695Y4183500D01*
X29728045Y4183500D01*
X29719476Y4183792D01*
X29671542Y4187060D01*
X29671538Y4187060D01*
X29663966Y4187576D01*
X29656489Y4186271D01*
X29656486Y4186271D01*
X29603353Y4176998D01*
X29596829Y4176035D01*
X29543309Y4169558D01*
X29535765Y4168645D01*
X29528655Y4165958D01*
X29523752Y4164754D01*
X29513266Y4161886D01*
X29508474Y4160439D01*
X29500996Y4159134D01*
X29494044Y4156082D01*
X29494043Y4156082D01*
X29444659Y4134405D01*
X29438554Y4131914D01*
X29388118Y4112855D01*
X29388115Y4112853D01*
X29381011Y4110169D01*
X29374754Y4105869D01*
X29370286Y4103533D01*
X29360840Y4098275D01*
X29356474Y4095693D01*
X29349515Y4092638D01*
X29300696Y4055177D01*
X29295377Y4051314D01*
X29256679Y4024717D01*
X29244674Y4016466D01*
X29239623Y4010797D01*
X29204768Y3971677D01*
X29199787Y3966402D01*
X28747068Y3513683D01*
X28684756Y3479657D01*
X28631776Y3479531D01*
X28501944Y3507128D01*
X28501939Y3507128D01*
X28495487Y3508500D01*
X28304513Y3508500D01*
X28298061Y3507128D01*
X28298056Y3507128D01*
X28211113Y3488647D01*
X28117712Y3468794D01*
X28111682Y3466109D01*
X28111681Y3466109D01*
X27949278Y3393803D01*
X27949276Y3393802D01*
X27943248Y3391118D01*
X27788747Y3278866D01*
X27784326Y3273956D01*
X27784325Y3273955D01*
X27736751Y3221118D01*
X27660960Y3136944D01*
X27565473Y2971556D01*
X27563431Y2965271D01*
X27520099Y2831909D01*
X27506458Y2789928D01*
X27506120Y2790038D01*
X27474147Y2730824D01*
X27411995Y2696507D01*
X27384634Y2693500D01*
X26435815Y2693500D01*
X26367694Y2713502D01*
X26361754Y2717564D01*
X26252094Y2797237D01*
X26252093Y2797238D01*
X26246752Y2801118D01*
X26240724Y2803802D01*
X26240722Y2803803D01*
X26078319Y2876109D01*
X26078318Y2876109D01*
X26072288Y2878794D01*
X25976921Y2899065D01*
X25891944Y2917128D01*
X25891939Y2917128D01*
X25885487Y2918500D01*
X25694513Y2918500D01*
X25688061Y2917128D01*
X25688056Y2917128D01*
X25556392Y2889141D01*
X25546601Y2887060D01*
X25542804Y2886253D01*
X25516607Y2883500D01*
X23978056Y2883500D01*
X23969486Y2883792D01*
X23968443Y2883863D01*
X23913966Y2887577D01*
X23906489Y2886272D01*
X23906486Y2886272D01*
X23853342Y2876997D01*
X23846819Y2876034D01*
X23793308Y2869558D01*
X23793307Y2869558D01*
X23785765Y2868645D01*
X23778655Y2865959D01*
X23773752Y2864754D01*
X23763300Y2861895D01*
X23758484Y2860441D01*
X23750996Y2859134D01*
X23694627Y2834390D01*
X23688588Y2831925D01*
X23631011Y2810169D01*
X23624748Y2805864D01*
X23620258Y2803517D01*
X23610807Y2798257D01*
X23606466Y2795690D01*
X23599515Y2792639D01*
X23593495Y2788020D01*
X23593487Y2788015D01*
X23550698Y2755181D01*
X23545384Y2751319D01*
X23494674Y2716466D01*
X23489624Y2710798D01*
X23454768Y2671677D01*
X23449787Y2666402D01*
X22043790Y1260405D01*
X21981478Y1226379D01*
X21954695Y1223500D01*
X18495305Y1223500D01*
X18427184Y1243502D01*
X18406210Y1260405D01*
X17953156Y1713459D01*
X17947302Y1719724D01*
X17915704Y1755945D01*
X17910710Y1761670D01*
X17860345Y1797066D01*
X17855077Y1800980D01*
X17812649Y1834248D01*
X17806672Y1838935D01*
X17799748Y1842061D01*
X17795439Y1844671D01*
X17786024Y1850042D01*
X17781576Y1852427D01*
X17775361Y1856795D01*
X17718039Y1879144D01*
X17711971Y1881694D01*
X17655895Y1907014D01*
X17648418Y1908400D01*
X17643598Y1909910D01*
X17633165Y1912882D01*
X17628304Y1914130D01*
X17621228Y1916889D01*
X17560238Y1924918D01*
X17553722Y1925950D01*
X17500700Y1935777D01*
X17493233Y1937161D01*
X17485653Y1936724D01*
X17485652Y1936724D01*
X17433358Y1933709D01*
X17426106Y1933500D01*
X14865305Y1933500D01*
X14797184Y1953502D01*
X14776210Y1970405D01*
X14588817Y2157798D01*
X14554791Y2220110D01*
X14552602Y2233723D01*
X14544232Y2313365D01*
X14544232Y2313367D01*
X14543542Y2319928D01*
X14484527Y2501556D01*
X14389040Y2666944D01*
X14362422Y2696507D01*
X14265675Y2803955D01*
X14265674Y2803956D01*
X14261253Y2808866D01*
X14106752Y2921118D01*
X14100724Y2923802D01*
X14100722Y2923803D01*
X13938319Y2996109D01*
X13938318Y2996109D01*
X13932288Y2998794D01*
X13838888Y3018647D01*
X13751944Y3037128D01*
X13751939Y3037128D01*
X13745487Y3038500D01*
X13554513Y3038500D01*
X13548061Y3037128D01*
X13548056Y3037128D01*
X13407518Y3007255D01*
X13336727Y3012657D01*
X13287687Y3046190D01*
X13231253Y3108866D01*
X13076752Y3221118D01*
X13070724Y3223802D01*
X13070722Y3223803D01*
X12908319Y3296109D01*
X12908318Y3296109D01*
X12902288Y3298794D01*
X12808887Y3318647D01*
X12721944Y3337128D01*
X12721939Y3337128D01*
X12715487Y3338500D01*
X12524513Y3338500D01*
X12518061Y3337128D01*
X12518056Y3337128D01*
X12431113Y3318647D01*
X12337712Y3298794D01*
X12331682Y3296109D01*
X12331681Y3296109D01*
X12169278Y3223803D01*
X12169276Y3223802D01*
X12163248Y3221118D01*
X12008747Y3108866D01*
X12004329Y3103959D01*
X12004325Y3103955D01*
X11890266Y2977279D01*
X11880960Y2966944D01*
X11829029Y2876997D01*
X11816953Y2856080D01*
X11785473Y2801556D01*
X11726458Y2619928D01*
X11725768Y2613367D01*
X11725768Y2613365D01*
X11723315Y2590024D01*
X11696302Y2524367D01*
X11638080Y2483738D01*
X11567135Y2481035D01*
X11545476Y2488667D01*
X11521395Y2499712D01*
X11516341Y2502168D01*
X10749093Y2896385D01*
X10744151Y2899065D01*
X9995234Y3327123D01*
X9990417Y3330021D01*
X9639369Y3552008D01*
X9261335Y3791060D01*
X9256697Y3794140D01*
X8697397Y4183792D01*
X8548891Y4287253D01*
X8544352Y4290568D01*
X8293824Y4482253D01*
X7859264Y4814747D01*
X7854899Y4818244D01*
X7193864Y5372468D01*
X7189638Y5376175D01*
X6554003Y5959315D01*
X6549947Y5963207D01*
X5940949Y6574124D01*
X5937085Y6578176D01*
X5355918Y7215680D01*
X5352230Y7219912D01*
X5346006Y7227384D01*
X5129730Y7486997D01*
X4800118Y7882656D01*
X4796617Y7887054D01*
X4320721Y8513111D01*
X4274606Y8573777D01*
X4271306Y8578324D01*
X4113024Y8807052D01*
X3780429Y9287673D01*
X3777339Y9292359D01*
X3769799Y9304367D01*
X3514562Y9710823D01*
X3318596Y10022892D01*
X3315714Y10027719D01*
X2890037Y10777944D01*
X2887372Y10782894D01*
X2495563Y11551398D01*
X2493122Y11556462D01*
X2135990Y12341662D01*
X2133777Y12346830D01*
X1812022Y13147185D01*
X1810042Y13152446D01*
X1524302Y13966368D01*
X1522559Y13971713D01*
X1273416Y14797551D01*
X1271913Y14802967D01*
X1137601Y15332545D01*
X1059847Y15639123D01*
X1058593Y15644576D01*
X1037370Y15747289D01*
X931833Y16258039D01*
X884041Y16489331D01*
X883026Y16494860D01*
X851899Y16688799D01*
X746324Y17346586D01*
X745559Y17352141D01*
X646986Y18209116D01*
X646469Y18214713D01*
X594343Y18959191D01*
X586220Y19075200D01*
X585953Y19080805D01*
X585017Y19117842D01*
X566839Y19836669D01*
X564146Y19943166D01*
X564130Y19948787D01*
X580810Y20811215D01*
X581044Y20816832D01*
X636176Y21677670D01*
X636660Y21683271D01*
X730137Y22540812D01*
X730871Y22546386D01*
X862502Y23398874D01*
X863483Y23404409D01*
X1033017Y24250216D01*
X1034245Y24255702D01*
X1241328Y25093071D01*
X1242799Y25098497D01*
X1415376Y25683086D01*
X1487033Y25925817D01*
X1488740Y25931157D01*
X1769633Y26746756D01*
X1771582Y26752030D01*
X1857506Y26969488D01*
X2088582Y27554302D01*
X2090747Y27559443D01*
X2443222Y28346789D01*
X2445626Y28351853D01*
X2832855Y29122663D01*
X2835490Y29127629D01*
X2968521Y29365369D01*
X3256722Y29880411D01*
X3259572Y29885248D01*
X3713954Y30618475D01*
X3717021Y30623186D01*
X4203653Y31335414D01*
X4206927Y31339984D01*
X4724857Y32029813D01*
X4728332Y32034232D01*
X5276497Y32700248D01*
X5280165Y32704508D01*
X5857511Y33345432D01*
X5861366Y33349524D01*
X6466722Y33964051D01*
X6470756Y33967967D01*
X6661366Y34144934D01*
X7102923Y34554884D01*
X7107103Y34558595D01*
X7416057Y34820772D01*
X7764821Y35116730D01*
X7769187Y35120271D01*
X8451153Y35648519D01*
X8455673Y35651861D01*
X8646433Y35786451D01*
X9160521Y36149162D01*
X9165140Y36152270D01*
X9891490Y36617649D01*
X9896288Y36620574D01*
X10300275Y36854677D01*
X10369243Y36871526D01*
X10436829Y36848086D01*
G37*
G04 #@! TD.AperFunction*
G04 #@! TD*
M02*
