G04 #@! TF.GenerationSoftware,KiCad,Pcbnew,6.0.4-6f826c9f35~116~ubuntu21.10.1*
G04 #@! TF.CreationDate,2023-01-05T16:01:05-05:00*
G04 #@! TF.ProjectId,T36VAIllumination,54333656-4149-46c6-9c75-6d696e617469,rev?*
G04 #@! TF.SameCoordinates,PX1c9c380PYa21fe80*
G04 #@! TF.FileFunction,Legend,Top*
G04 #@! TF.FilePolarity,Positive*
%FSLAX46Y46*%
G04 Gerber Fmt 4.6, Leading zero omitted, Abs format (unit mm)*
G04 Created by KiCad (PCBNEW 6.0.4-6f826c9f35~116~ubuntu21.10.1) date 2023-01-05 16:01:05*
%MOMM*%
%LPD*%
G01*
G04 APERTURE LIST*
%ADD10C,0.150000*%
%ADD11C,0.120000*%
G04 APERTURE END LIST*
D10*
X14100000Y34500001D02*
G75*
G03*
X35500000Y19600000I5844450J-14423743D01*
G01*
X10845840Y8825917D02*
X11228224Y9372019D01*
X11118971Y9215990D02*
X11212605Y9266691D01*
X11278925Y9278385D01*
X11384253Y9262766D01*
X11462268Y9208140D01*
X11352934Y8470846D02*
X11735318Y9016948D01*
X11926510Y9289998D02*
X11860190Y9278304D01*
X11871884Y9211984D01*
X11938204Y9223678D01*
X11926510Y9289998D01*
X11871884Y9211984D01*
X12125391Y8743816D02*
X11743006Y8197715D01*
X12070764Y8665802D02*
X12137085Y8677496D01*
X12242412Y8661876D01*
X12359434Y8579937D01*
X12410135Y8486303D01*
X12394516Y8380976D01*
X12094072Y7951896D01*
X13217593Y7979047D02*
X12753270Y7315924D01*
X12659636Y7265223D01*
X12593316Y7253529D01*
X12487988Y7269148D01*
X12370966Y7351088D01*
X12320265Y7444721D01*
X12862522Y7471953D02*
X12757195Y7487572D01*
X12601166Y7596825D01*
X12550464Y7690459D01*
X12538770Y7756779D01*
X12554389Y7862107D01*
X12718268Y8096150D01*
X12811902Y8146851D01*
X12878222Y8158545D01*
X12983550Y8142926D01*
X13139579Y8033674D01*
X13190280Y7940040D01*
X8940235Y10801673D02*
X8634146Y11166456D01*
X9400190Y11809243D01*
X9555759Y10883023D02*
X9770021Y10627675D01*
X9460587Y10181542D02*
X9154498Y10546325D01*
X9920542Y11189112D01*
X10226631Y10824329D01*
X9736067Y9853237D02*
X10502112Y10496024D01*
X10655156Y10313633D01*
X10710505Y10173589D01*
X10698766Y10039415D01*
X10656418Y9941718D01*
X10541114Y9782804D01*
X10431679Y9690978D01*
X10255157Y9605020D01*
X10151592Y9580281D01*
X10017417Y9592019D01*
X9889112Y9670845D01*
X9736067Y9853237D01*
X7048064Y16236832D02*
X7280485Y15714807D01*
X6250729Y15569083D02*
X7164275Y15975819D01*
X7377327Y15497296D02*
X7629117Y14931768D01*
X7145520Y15081335D01*
X7203626Y14950829D01*
X7198860Y14844456D01*
X7174727Y14781586D01*
X7107091Y14699347D01*
X6889580Y14602505D01*
X6783207Y14607270D01*
X6720337Y14631404D01*
X6638098Y14699040D01*
X6521887Y14960053D01*
X6526652Y15066425D01*
X6550786Y15129296D01*
X7977748Y14148729D02*
X7900274Y14322737D01*
X7818035Y14390373D01*
X7755165Y14414507D01*
X7585922Y14443406D01*
X7392544Y14409435D01*
X7044527Y14254487D01*
X6976891Y14172248D01*
X6952757Y14109378D01*
X6947992Y14003005D01*
X7025466Y13828996D01*
X7107705Y13761360D01*
X7170575Y13737227D01*
X7276948Y13732461D01*
X7494459Y13829303D01*
X7562095Y13911542D01*
X7586229Y13974413D01*
X7590994Y14080786D01*
X7513520Y14254794D01*
X7431281Y14322430D01*
X7368411Y14346564D01*
X7262038Y14351329D01*
X8132695Y13800711D02*
X7354729Y13089459D01*
X8403853Y13191681D01*
X7867531Y12640142D02*
X8061215Y12205120D01*
X7567781Y12610936D02*
X8616906Y12713157D01*
X7838939Y12001905D01*
X32454749Y14307566D02*
X33162362Y14327997D01*
X32601900Y14760450D01*
X33515524Y15414919D02*
X33338943Y14871458D01*
X33427234Y15143188D02*
X32476177Y15452205D01*
X32582612Y15317483D01*
X32643759Y15197476D01*
X32659617Y15092184D01*
X33557383Y15851945D02*
X33617387Y15882518D01*
X33647960Y15822514D01*
X33587957Y15791941D01*
X33557383Y15851945D01*
X33647960Y15822514D01*
X32814624Y16493839D02*
X33005921Y17082588D01*
X33265222Y16647848D01*
X33309367Y16783713D01*
X33384086Y16859575D01*
X33444090Y16890148D01*
X33549381Y16906007D01*
X33775823Y16832431D01*
X33851685Y16757713D01*
X33882259Y16697709D01*
X33898117Y16592417D01*
X33809826Y16320687D01*
X33735108Y16244825D01*
X33675104Y16214252D01*
D11*
G04 #@! TO.C,R2*
X18375000Y2587064D02*
X18375000Y2132936D01*
X16905000Y2587064D02*
X16905000Y2132936D01*
G04 #@! TO.C,D2*
X3676489Y17748048D02*
X2907480Y17527538D01*
X4958203Y13278181D02*
X3676489Y17748048D01*
X1882165Y12396141D02*
X600452Y16866008D01*
G04 #@! TO.C,C1*
X13208954Y4180131D02*
X13389680Y4395512D01*
X13990320Y3524488D02*
X14171046Y3739869D01*
G04 #@! TO.C,D7*
X33958083Y5924421D02*
X30293833Y3061595D01*
X31987966Y8446056D02*
X28323716Y5583230D01*
X28323716Y5583230D02*
X28816245Y4952821D01*
G04 #@! TO.C,C2*
X26590000Y3059420D02*
X26590000Y3340580D01*
X27610000Y3059420D02*
X27610000Y3340580D01*
G04 #@! TO.C,D1*
X39699924Y18403367D02*
X38812662Y13838800D01*
X35671455Y14449389D02*
X36456757Y14296742D01*
X36558717Y19013956D02*
X35671455Y14449389D01*
G04 #@! TO.C,D3*
X10195140Y2828057D02*
X6633033Y5817019D01*
X12252060Y5279399D02*
X8689954Y8268361D01*
X8689954Y8268361D02*
X8175723Y7655526D01*
G04 #@! TO.C,D4*
X10128427Y33265685D02*
X9562742Y33831371D01*
X6840381Y29977639D02*
X10128427Y33265685D01*
X4577639Y32240381D02*
X7865685Y35528427D01*
G04 #@! TO.C,D6*
X18900000Y3700000D02*
X18900000Y2900000D01*
X23550000Y500000D02*
X18900000Y500000D01*
X23550000Y3700000D02*
X18900000Y3700000D01*
G04 #@! TO.C,D5*
X4931780Y26827337D02*
X4166736Y27061234D01*
X512076Y23316109D02*
X1871604Y27762926D01*
X3572251Y22380520D02*
X4931780Y26827337D01*
G04 #@! TO.C,R1*
X9719718Y34740835D02*
X10040835Y34419718D01*
X10759165Y35780282D02*
X11080282Y35459165D01*
G04 #@! TD*
M02*
