M48
; DRILL file {KiCad 7.0.2-6a45011f42~172~ubuntu22.04.1} date Sat 20 May 2023 12:50:23 PM
; FORMAT={-:-/ absolute / metric / decimal}
; #@! TF.CreationDate,2023-05-20T12:50:23-04:00
; #@! TF.GenerationSoftware,Kicad,Pcbnew,7.0.2-6a45011f42~172~ubuntu22.04.1
; #@! TF.FileFunction,Plated,1,2,PTH
FMAT,2
METRIC
; #@! TA.AperFunction,Plated,PTH,ViaDrill
T1C0.400
; #@! TA.AperFunction,Plated,PTH,ComponentDrill
T2C0.400
; #@! TA.AperFunction,Plated,PTH,ComponentDrill
T3C1.000
%
G90
G05
T1
X62.395Y-67.11
X63.425Y-67.41
X75.415Y-65.73
X75.565Y-67.53
X78.175Y-66.94
X78.275Y-65.74
T2
X50.575Y-47.44
X50.575Y-50.84
X52.475Y-41.24
X52.475Y-49.64
X52.575Y-54.54
X52.675Y-58.14
X53.525Y-44.84
X54.175Y-38.34
X55.275Y-61.84
X56.025Y-50.04
X56.275Y-57.94
X56.775Y-45.29
X57.075Y-36.84
X57.275Y-55.04
X58.275Y-42.04
X59.275Y-64.04
X59.775Y-59.04
X60.775Y-39.04
X62.675Y-34.84
X62.775Y-63.94
X63.775Y-62.04
X64.785Y-36.44
X65.565Y-67.41
X67.375Y-64.59
X69.025Y-63.29
X71.075Y-67.44
X74.025Y-62.54
X74.275Y-68.24
X76.825Y-63.64
X78.275Y-60.29
X80.975Y-63.74
X81.525Y-56.54
X83.035Y-53.18
X83.275Y-61.64
X87.475Y-53.04
T3
X83.698Y-59.16
X85.644Y-57.527
T0
M30
