G04 #@! TF.GenerationSoftware,KiCad,Pcbnew,7.0.2-6a45011f42~172~ubuntu22.04.1*
G04 #@! TF.CreationDate,2023-05-20T12:50:20-04:00*
G04 #@! TF.ProjectId,T36VAIllumination,54333656-4149-46c6-9c75-6d696e617469,1.3*
G04 #@! TF.SameCoordinates,Original*
G04 #@! TF.FileFunction,Copper,L1,Top*
G04 #@! TF.FilePolarity,Positive*
%FSLAX46Y46*%
G04 Gerber Fmt 4.6, Leading zero omitted, Abs format (unit mm)*
G04 Created by KiCad (PCBNEW 7.0.2-6a45011f42~172~ubuntu22.04.1) date 2023-05-20 12:50:20*
%MOMM*%
%LPD*%
G01*
G04 APERTURE LIST*
G04 Aperture macros list*
%AMRoundRect*
0 Rectangle with rounded corners*
0 $1 Rounding radius*
0 $2 $3 $4 $5 $6 $7 $8 $9 X,Y pos of 4 corners*
0 Add a 4 corners polygon primitive as box body*
4,1,4,$2,$3,$4,$5,$6,$7,$8,$9,$2,$3,0*
0 Add four circle primitives for the rounded corners*
1,1,$1+$1,$2,$3*
1,1,$1+$1,$4,$5*
1,1,$1+$1,$6,$7*
1,1,$1+$1,$8,$9*
0 Add four rect primitives between the rounded corners*
20,1,$1+$1,$2,$3,$4,$5,0*
20,1,$1+$1,$4,$5,$6,$7,0*
20,1,$1+$1,$6,$7,$8,$9,0*
20,1,$1+$1,$8,$9,$2,$3,0*%
%AMHorizOval*
0 Thick line with rounded ends*
0 $1 width*
0 $2 $3 position (X,Y) of the first rounded end (center of the circle)*
0 $4 $5 position (X,Y) of the second rounded end (center of the circle)*
0 Add line between two ends*
20,1,$1,$2,$3,$4,$5,0*
0 Add two circle primitives to create the rounded ends*
1,1,$1,$2,$3*
1,1,$1,$4,$5*%
%AMRotRect*
0 Rectangle, with rotation*
0 The origin of the aperture is its center*
0 $1 length*
0 $2 width*
0 $3 Rotation angle, in degrees counterclockwise*
0 Add horizontal line*
21,1,$1,$2,0,0,$3*%
G04 Aperture macros list end*
G04 #@! TA.AperFunction,ComponentPad*
%ADD10C,0.820000*%
G04 #@! TD*
G04 #@! TA.AperFunction,SMDPad,CuDef*
%ADD11RotRect,1.500000X2.600000X286.000000*%
G04 #@! TD*
G04 #@! TA.AperFunction,SMDPad,CuDef*
%ADD12RoundRect,0.225000X0.046884X-0.333057X0.336138X0.011663X-0.046884X0.333057X-0.336138X-0.011663X0*%
G04 #@! TD*
G04 #@! TA.AperFunction,SMDPad,CuDef*
%ADD13RotRect,1.500000X2.600000X38.000000*%
G04 #@! TD*
G04 #@! TA.AperFunction,SMDPad,CuDef*
%ADD14RoundRect,0.225000X0.250000X-0.225000X0.250000X0.225000X-0.250000X0.225000X-0.250000X-0.225000X0*%
G04 #@! TD*
G04 #@! TA.AperFunction,SMDPad,CuDef*
%ADD15RotRect,1.500000X2.600000X79.000000*%
G04 #@! TD*
G04 #@! TA.AperFunction,SMDPad,CuDef*
%ADD16RotRect,1.500000X2.600000X320.000000*%
G04 #@! TD*
G04 #@! TA.AperFunction,SMDPad,CuDef*
%ADD17RoundRect,0.250000X-0.450000X0.262500X-0.450000X-0.262500X0.450000X-0.262500X0.450000X0.262500X0*%
G04 #@! TD*
G04 #@! TA.AperFunction,SMDPad,CuDef*
%ADD18RotRect,1.500000X2.600000X225.000000*%
G04 #@! TD*
G04 #@! TA.AperFunction,SMDPad,CuDef*
%ADD19C,1.000000*%
G04 #@! TD*
G04 #@! TA.AperFunction,SMDPad,CuDef*
%ADD20R,1.500000X2.600000*%
G04 #@! TD*
G04 #@! TA.AperFunction,SMDPad,CuDef*
%ADD21RotRect,1.500000X2.600000X253.000000*%
G04 #@! TD*
G04 #@! TA.AperFunction,SMDPad,CuDef*
%ADD22RoundRect,0.250000X-0.503814X-0.132583X-0.132583X-0.503814X0.503814X0.132583X0.132583X0.503814X0*%
G04 #@! TD*
G04 #@! TA.AperFunction,ComponentPad*
%ADD23RotRect,1.700000X1.700000X310.000000*%
G04 #@! TD*
G04 #@! TA.AperFunction,ComponentPad*
%ADD24HorizOval,1.700000X0.000000X0.000000X0.000000X0.000000X0*%
G04 #@! TD*
G04 #@! TA.AperFunction,ViaPad*
%ADD25C,0.800000*%
G04 #@! TD*
G04 #@! TA.AperFunction,Conductor*
%ADD26C,0.350000*%
G04 #@! TD*
G04 #@! TA.AperFunction,Conductor*
%ADD27C,0.250000*%
G04 #@! TD*
G04 APERTURE END LIST*
D10*
G04 #@! TO.P,REF\u002A\u002A,1*
G04 #@! TO.N,GND*
X74275000Y-68240000D03*
G04 #@! TD*
G04 #@! TO.P,REF\u002A\u002A,1*
G04 #@! TO.N,GND*
X59775000Y-59040000D03*
G04 #@! TD*
G04 #@! TO.P,REF\u002A\u002A,1*
G04 #@! TO.N,GND*
X69025000Y-63290000D03*
G04 #@! TD*
G04 #@! TO.P,REF\u002A\u002A,1*
G04 #@! TO.N,GND*
X52475000Y-49640000D03*
G04 #@! TD*
G04 #@! TO.P,REF\u002A\u002A,1*
G04 #@! TO.N,GND*
X62675000Y-34840000D03*
G04 #@! TD*
G04 #@! TO.P,REF\u002A\u002A,1*
G04 #@! TO.N,GND*
X63775000Y-62040000D03*
G04 #@! TD*
G04 #@! TO.P,REF\u002A\u002A,1*
G04 #@! TO.N,GND*
X62775000Y-63940000D03*
G04 #@! TD*
G04 #@! TO.P,REF\u002A\u002A,1*
G04 #@! TO.N,GND*
X52575000Y-54540000D03*
G04 #@! TD*
D11*
G04 #@! TO.P,D2,1,K*
G04 #@! TO.N,Net-(D2-Pad1)*
X52161544Y-53098107D03*
G04 #@! TO.P,D2,2,A*
G04 #@! TO.N,Net-(D2-Pad2)*
X52988456Y-55981893D03*
G04 #@! TD*
D10*
G04 #@! TO.P,REF\u002A\u002A,1*
G04 #@! TO.N,GND*
X50575000Y-47440000D03*
G04 #@! TD*
D12*
G04 #@! TO.P,C1,1*
G04 #@! TO.N,VCC*
X62966840Y-66173684D03*
G04 #@! TO.P,C1,2*
G04 #@! TO.N,GND*
X63963160Y-64986316D03*
G04 #@! TD*
D13*
G04 #@! TO.P,D7,1,K*
G04 #@! TO.N,Net-(D6-Pad2)*
X79792984Y-64663492D03*
G04 #@! TO.P,D7,2,A*
G04 #@! TO.N,Net-(D1-Pad1)*
X82157016Y-62816508D03*
G04 #@! TD*
D10*
G04 #@! TO.P,REF\u002A\u002A,1*
G04 #@! TO.N,GND*
X57075000Y-36840000D03*
G04 #@! TD*
G04 #@! TO.P,REF\u002A\u002A,1*
G04 #@! TO.N,GND*
X50575000Y-50840000D03*
G04 #@! TD*
G04 #@! TO.P,REF\u002A\u002A,1*
G04 #@! TO.N,GND*
X57275000Y-55040000D03*
G04 #@! TD*
D14*
G04 #@! TO.P,C2,1*
G04 #@! TO.N,VCC*
X76875000Y-67115000D03*
G04 #@! TO.P,C2,2*
G04 #@! TO.N,GND*
X76875000Y-65565000D03*
G04 #@! TD*
D10*
G04 #@! TO.P,REF\u002A\u002A,1*
G04 #@! TO.N,GND*
X58275000Y-42040000D03*
G04 #@! TD*
G04 #@! TO.P,REF\u002A\u002A,1*
G04 #@! TO.N,GND*
X76825000Y-63640000D03*
G04 #@! TD*
G04 #@! TO.P,REF\u002A\u002A,1*
G04 #@! TO.N,GND*
X83275000Y-61640000D03*
G04 #@! TD*
G04 #@! TO.P,REF\u002A\u002A,1*
G04 #@! TO.N,GND*
X64785000Y-36440000D03*
G04 #@! TD*
G04 #@! TO.P,REF\u002A\u002A,1*
G04 #@! TO.N,GND*
X78275000Y-60290000D03*
G04 #@! TD*
G04 #@! TO.P,REF\u002A\u002A,1*
G04 #@! TO.N,GND*
X81525000Y-56540000D03*
G04 #@! TD*
D15*
G04 #@! TO.P,D1,1,K*
G04 #@! TO.N,Net-(D1-Pad1)*
X87188787Y-54512441D03*
G04 #@! TO.P,D1,2,A*
G04 #@! TO.N,VCC*
X87761213Y-51567559D03*
G04 #@! TD*
D10*
G04 #@! TO.P,REF\u002A\u002A,1*
G04 #@! TO.N,GND*
X80975000Y-63740000D03*
G04 #@! TD*
G04 #@! TO.P,REF\u002A\u002A,1*
G04 #@! TO.N,GND*
X60775000Y-39040000D03*
G04 #@! TD*
G04 #@! TO.P,REF\u002A\u002A,1*
G04 #@! TO.N,GND*
X56275000Y-57940000D03*
G04 #@! TD*
D16*
G04 #@! TO.P,D3,1,K*
G04 #@! TO.N,Net-(D2-Pad2)*
X58125933Y-63075819D03*
G04 #@! TO.P,D3,2,A*
G04 #@! TO.N,VCC*
X60424067Y-65004181D03*
G04 #@! TD*
D17*
G04 #@! TO.P,R2,1*
G04 #@! TO.N,Net-(D6-Pad1)*
X67415000Y-66267500D03*
G04 #@! TO.P,R2,2*
G04 #@! TO.N,GND*
X67415000Y-68092500D03*
G04 #@! TD*
D10*
G04 #@! TO.P,REF\u002A\u002A,1*
G04 #@! TO.N,GND*
X53525000Y-44840000D03*
G04 #@! TD*
G04 #@! TO.P,REF\u002A\u002A,1*
G04 #@! TO.N,GND*
X56025000Y-50040000D03*
G04 #@! TD*
G04 #@! TO.P,REF\u002A\u002A,1*
G04 #@! TO.N,GND*
X54175000Y-38340000D03*
G04 #@! TD*
G04 #@! TO.P,REF\u002A\u002A,1*
G04 #@! TO.N,GND*
X74025000Y-62540000D03*
G04 #@! TD*
G04 #@! TO.P,REF\u002A\u002A,1*
G04 #@! TO.N,GND*
X52675000Y-58140000D03*
G04 #@! TD*
G04 #@! TO.P,REF\u002A\u002A,1*
G04 #@! TO.N,GND*
X55275000Y-61840000D03*
G04 #@! TD*
D18*
G04 #@! TO.P,D4,1,K*
G04 #@! TO.N,Net-(D4-Pad1)*
X58135660Y-35779340D03*
G04 #@! TO.P,D4,2,A*
G04 #@! TO.N,Net-(D4-Pad2)*
X56014340Y-37900660D03*
G04 #@! TD*
D19*
G04 #@! TO.P,FID3,*
G04 #@! TO.N,*
X62475000Y-37140000D03*
G04 #@! TD*
G04 #@! TO.P,FID2,*
G04 #@! TO.N,*
X54375000Y-59940000D03*
G04 #@! TD*
D10*
G04 #@! TO.P,REF\u002A\u002A,1*
G04 #@! TO.N,GND*
X59275000Y-64040000D03*
G04 #@! TD*
G04 #@! TO.P,REF\u002A\u002A,1*
G04 #@! TO.N,GND*
X65565000Y-67410000D03*
G04 #@! TD*
D20*
G04 #@! TO.P,D6,1,K*
G04 #@! TO.N,Net-(D6-Pad1)*
X69575000Y-67440000D03*
G04 #@! TO.P,D6,2,A*
G04 #@! TO.N,Net-(D6-Pad2)*
X72575000Y-67440000D03*
G04 #@! TD*
D10*
G04 #@! TO.P,REF\u002A\u002A,1*
G04 #@! TO.N,GND*
X67375000Y-64590000D03*
G04 #@! TD*
D21*
G04 #@! TO.P,D5,1,K*
G04 #@! TO.N,Net-(D4-Pad2)*
X52913558Y-43105543D03*
G04 #@! TO.P,D5,2,A*
G04 #@! TO.N,Net-(D2-Pad1)*
X52036442Y-45974457D03*
G04 #@! TD*
D10*
G04 #@! TO.P,REF\u002A\u002A,1*
G04 #@! TO.N,GND*
X71075000Y-67440000D03*
G04 #@! TD*
G04 #@! TO.P,REF\u002A\u002A,1*
G04 #@! TO.N,GND*
X52475000Y-41240000D03*
G04 #@! TD*
G04 #@! TO.P,REF\u002A\u002A,1*
G04 #@! TO.N,GND*
X83035000Y-53180000D03*
G04 #@! TD*
D19*
G04 #@! TO.P,FID1,*
G04 #@! TO.N,*
X84075000Y-51440000D03*
G04 #@! TD*
D10*
G04 #@! TO.P,REF\u002A\u002A,1*
G04 #@! TO.N,GND*
X87475000Y-53040000D03*
G04 #@! TD*
G04 #@! TO.P,REF\u002A\u002A,1*
G04 #@! TO.N,GND*
X56775000Y-45290000D03*
G04 #@! TD*
D22*
G04 #@! TO.P,R1,1*
G04 #@! TO.N,Net-(D4-Pad1)*
X59529765Y-33794765D03*
G04 #@! TO.P,R1,2*
G04 #@! TO.N,GND*
X60820235Y-35085235D03*
G04 #@! TD*
D23*
G04 #@! TO.P,J1,1,Pin_1*
G04 #@! TO.N,GND*
X83698294Y-59159554D03*
D24*
G04 #@! TO.P,J1,2,Pin_2*
G04 #@! TO.N,VCC*
X85644047Y-57526873D03*
G04 #@! TD*
D25*
G04 #@! TO.N,VCC*
X63425000Y-67410000D03*
X78175000Y-66940000D03*
X62395000Y-67110000D03*
X75565000Y-67530000D03*
G04 #@! TO.N,GND*
X78275000Y-65740000D03*
X75415000Y-65730000D03*
G04 #@! TD*
D26*
G04 #@! TO.N,VCC*
X85075000Y-53740000D02*
X87247441Y-51567559D01*
X63425000Y-67410000D02*
X62829886Y-67410000D01*
X78175000Y-66940000D02*
X77975000Y-67140000D01*
X85644047Y-57526873D02*
X85075000Y-56957826D01*
X76900000Y-67140000D02*
X76875000Y-67115000D01*
X62395000Y-66745524D02*
X62395000Y-67110000D01*
X62966840Y-66173684D02*
X62395000Y-66745524D01*
X75980000Y-67115000D02*
X75565000Y-67530000D01*
X62829886Y-67410000D02*
X60424067Y-65004181D01*
X85075000Y-56957826D02*
X85075000Y-53740000D01*
X87247441Y-51567559D02*
X87761213Y-51567559D01*
X77975000Y-67140000D02*
X76900000Y-67140000D01*
X76875000Y-67115000D02*
X75980000Y-67115000D01*
G04 #@! TO.N,Net-(D2-Pad1)*
X51475000Y-52179340D02*
X51475000Y-46900660D01*
X51475000Y-46900660D02*
X52386771Y-45988889D01*
X52386771Y-53091111D02*
X51475000Y-52179340D01*
G04 #@! TO.N,Net-(D1-Pad1)*
X83749181Y-62575819D02*
X81924067Y-62575819D01*
X87555000Y-54657684D02*
X87555000Y-57870000D01*
X87188787Y-54512441D02*
X87409757Y-54512441D01*
X86335000Y-59090000D02*
X86335000Y-59990000D01*
X87555000Y-57870000D02*
X86335000Y-59090000D01*
X87409757Y-54512441D02*
X87555000Y-54657684D01*
X86335000Y-59990000D02*
X83749181Y-62575819D01*
G04 #@! TO.N,Net-(D2-Pad2)*
X58125933Y-60951593D02*
X53163229Y-55988889D01*
X58125933Y-63075819D02*
X58125933Y-60951593D01*
G04 #@! TO.N,Net-(D4-Pad1)*
X58235660Y-35879340D02*
X58235660Y-35088870D01*
X58235660Y-35088870D02*
X59529765Y-33794765D01*
G04 #@! TO.N,Net-(D6-Pad1)*
X69575000Y-67440000D02*
X69275000Y-67140000D01*
X67415000Y-66267500D02*
X68087500Y-66940000D01*
X69275000Y-67140000D02*
X69275000Y-66940000D01*
X68087500Y-66940000D02*
X69275000Y-66940000D01*
G04 #@! TO.N,GND*
X63821316Y-64986316D02*
X62775000Y-63940000D01*
X63963160Y-64986316D02*
X63821316Y-64986316D01*
D27*
X60820235Y-35085235D02*
X60820235Y-35079765D01*
D26*
X66247500Y-68092500D02*
X65565000Y-67410000D01*
X75415000Y-65730000D02*
X75575000Y-65570000D01*
X75575000Y-65570000D02*
X76870000Y-65570000D01*
X78100000Y-65565000D02*
X78275000Y-65740000D01*
X76875000Y-65565000D02*
X78100000Y-65565000D01*
X67415000Y-68092500D02*
X66247500Y-68092500D01*
X76870000Y-65570000D02*
X76875000Y-65565000D01*
D27*
X60820235Y-35079765D02*
X61800000Y-34100000D01*
D26*
G04 #@! TO.N,Net-(D4-Pad2)*
X56114340Y-40140000D02*
X56114340Y-38000660D01*
X53163229Y-43091111D02*
X56114340Y-40140000D01*
G04 #@! TO.N,Net-(D6-Pad2)*
X74760819Y-64504181D02*
X72575000Y-66690000D01*
X72575000Y-66690000D02*
X72575000Y-67440000D01*
X79625933Y-64504181D02*
X74760819Y-64504181D01*
G04 #@! TD*
G04 #@! TA.AperFunction,Conductor*
G04 #@! TO.N,GND*
G36*
X60229116Y-32325416D02*
G01*
X60229574Y-32325742D01*
X66187871Y-36594372D01*
X66231598Y-36650304D01*
X66238144Y-36720999D01*
X66205431Y-36784010D01*
X66148968Y-36817990D01*
X65814205Y-36913228D01*
X65786816Y-36921020D01*
X65785184Y-36921581D01*
X65785168Y-36921587D01*
X65107517Y-37154940D01*
X65107508Y-37154943D01*
X65105877Y-37155505D01*
X65104298Y-37156146D01*
X65104271Y-37156157D01*
X64440289Y-37426072D01*
X64440259Y-37426084D01*
X64438712Y-37426714D01*
X64437208Y-37427422D01*
X64437174Y-37427438D01*
X63788856Y-37733108D01*
X63788846Y-37733112D01*
X63787302Y-37733841D01*
X63785812Y-37734645D01*
X63785795Y-37734654D01*
X63443427Y-37919493D01*
X63373982Y-37934254D01*
X63307580Y-37909127D01*
X63265304Y-37852089D01*
X63260576Y-37781250D01*
X63286169Y-37728685D01*
X63291796Y-37721828D01*
X63310910Y-37698538D01*
X63403814Y-37524727D01*
X63461024Y-37336132D01*
X63480341Y-37140000D01*
X63461024Y-36943867D01*
X63403814Y-36755274D01*
X63403814Y-36755273D01*
X63310910Y-36581462D01*
X63185883Y-36429116D01*
X63033537Y-36304089D01*
X62859725Y-36211185D01*
X62671132Y-36153975D01*
X62475000Y-36134658D01*
X62278867Y-36153975D01*
X62090274Y-36211185D01*
X61916462Y-36304089D01*
X61764116Y-36429116D01*
X61639089Y-36581462D01*
X61546185Y-36755274D01*
X61488975Y-36943867D01*
X61469658Y-37140000D01*
X61488975Y-37336132D01*
X61546185Y-37524725D01*
X61639089Y-37698537D01*
X61764116Y-37850883D01*
X61902433Y-37964397D01*
X61916462Y-37975910D01*
X62090273Y-38068814D01*
X62184570Y-38097419D01*
X62278867Y-38126024D01*
X62474999Y-38145341D01*
X62474999Y-38145340D01*
X62475000Y-38145341D01*
X62538278Y-38139108D01*
X62602466Y-38132787D01*
X62672219Y-38146015D01*
X62723747Y-38194855D01*
X62740691Y-38263801D01*
X62717670Y-38330961D01*
X62680622Y-38365630D01*
X62540896Y-38451202D01*
X62540862Y-38451223D01*
X62539422Y-38452106D01*
X62538019Y-38453073D01*
X62537996Y-38453089D01*
X61948091Y-38860119D01*
X61948064Y-38860138D01*
X61946652Y-38861113D01*
X61945304Y-38862155D01*
X61945275Y-38862177D01*
X61378387Y-39300732D01*
X61378355Y-39300758D01*
X61377029Y-39301784D01*
X61375746Y-39302892D01*
X61375728Y-39302908D01*
X60833528Y-39771699D01*
X60833502Y-39771722D01*
X60832241Y-39772813D01*
X60831046Y-39773965D01*
X60831015Y-39773994D01*
X60315136Y-40271612D01*
X60315106Y-40271642D01*
X60313904Y-40272802D01*
X60312762Y-40274030D01*
X60312732Y-40274061D01*
X59824741Y-40798992D01*
X59824719Y-40799016D01*
X59823556Y-40800268D01*
X59822454Y-40801590D01*
X59822447Y-40801599D01*
X59363746Y-41352332D01*
X59363727Y-41352355D01*
X59362651Y-41353648D01*
X59361643Y-41355001D01*
X59361620Y-41355031D01*
X58933603Y-41929892D01*
X58933576Y-41929930D01*
X58932557Y-41931299D01*
X58931608Y-41932729D01*
X58931594Y-41932750D01*
X58535491Y-42530084D01*
X58535470Y-42530116D01*
X58534548Y-42531508D01*
X58533685Y-42532975D01*
X58533682Y-42532982D01*
X58170674Y-43151016D01*
X58170654Y-43151051D01*
X58169806Y-43152496D01*
X58169033Y-43153992D01*
X58169016Y-43154024D01*
X57840214Y-43790864D01*
X57840201Y-43790889D01*
X57839412Y-43792419D01*
X57838710Y-43793980D01*
X57838695Y-43794013D01*
X57545053Y-44447806D01*
X57544346Y-44449381D01*
X57543736Y-44450964D01*
X57543725Y-44450991D01*
X57303498Y-45074664D01*
X57285484Y-45121432D01*
X57284953Y-45123069D01*
X57284945Y-45123094D01*
X57064126Y-45804931D01*
X57064118Y-45804955D01*
X57063593Y-45806579D01*
X56879331Y-46502790D01*
X56878996Y-46504406D01*
X56878988Y-46504441D01*
X56775695Y-47003077D01*
X56733245Y-47208000D01*
X56732992Y-47209670D01*
X56732991Y-47209681D01*
X56638495Y-47835793D01*
X56625768Y-47920117D01*
X56625607Y-47921795D01*
X56625603Y-47921832D01*
X56557383Y-48635319D01*
X56557381Y-48635337D01*
X56557220Y-48637029D01*
X56557151Y-48638706D01*
X56557149Y-48638742D01*
X56527871Y-49354912D01*
X56527802Y-49356610D01*
X56527825Y-49358308D01*
X56527825Y-49358317D01*
X56537579Y-50075000D01*
X56537579Y-50075019D01*
X56537603Y-50076725D01*
X56537719Y-50078439D01*
X56537720Y-50078442D01*
X56582085Y-50729117D01*
X56586594Y-50795239D01*
X56586802Y-50796932D01*
X56586803Y-50796937D01*
X56674416Y-51508298D01*
X56674420Y-51508330D01*
X56674629Y-51510020D01*
X56674933Y-51511719D01*
X56674934Y-51511726D01*
X56801144Y-52217259D01*
X56801148Y-52217283D01*
X56801447Y-52218949D01*
X56801835Y-52220595D01*
X56801841Y-52220624D01*
X56966274Y-52918239D01*
X56966278Y-52918257D01*
X56966671Y-52919921D01*
X56967145Y-52921535D01*
X56967154Y-52921567D01*
X57158714Y-53573109D01*
X57169813Y-53610860D01*
X57170382Y-53612466D01*
X57170389Y-53612488D01*
X57331490Y-54067306D01*
X57410269Y-54289714D01*
X57410934Y-54291311D01*
X57410935Y-54291312D01*
X57572376Y-54678667D01*
X57687326Y-54954471D01*
X57688057Y-54955986D01*
X57688058Y-54955989D01*
X57972423Y-55545641D01*
X58000162Y-55603158D01*
X58000988Y-55604657D01*
X58000992Y-55604664D01*
X58332179Y-56205428D01*
X58347850Y-56233853D01*
X58729357Y-56844683D01*
X58805137Y-56952473D01*
X58989886Y-57215261D01*
X59143554Y-57433838D01*
X59144618Y-57435189D01*
X59144622Y-57435194D01*
X59568190Y-57972886D01*
X59589211Y-57999570D01*
X59590343Y-58000857D01*
X59590347Y-58000861D01*
X60063868Y-58538909D01*
X60063883Y-58538925D01*
X60065005Y-58540200D01*
X60066196Y-58541413D01*
X60066207Y-58541425D01*
X60358427Y-58839091D01*
X60569527Y-59054126D01*
X60570791Y-59055281D01*
X60570805Y-59055294D01*
X60927902Y-59381462D01*
X61101280Y-59539823D01*
X61102606Y-59540908D01*
X61102612Y-59540913D01*
X61204671Y-59624410D01*
X61658685Y-59995851D01*
X62240091Y-60420856D01*
X62843773Y-60813578D01*
X63467939Y-61172853D01*
X63771618Y-61326281D01*
X64109232Y-61496854D01*
X64109243Y-61496859D01*
X64110739Y-61497615D01*
X64770267Y-61786900D01*
X65444565Y-62039850D01*
X66131634Y-62255716D01*
X66829436Y-62433857D01*
X67535902Y-62573744D01*
X68248936Y-62674963D01*
X68966422Y-62737213D01*
X69686234Y-62760310D01*
X70406235Y-62744185D01*
X71124291Y-62688887D01*
X71838272Y-62594578D01*
X72546059Y-62461540D01*
X73245554Y-62290166D01*
X73934681Y-62080964D01*
X74611398Y-61834556D01*
X75273696Y-61551672D01*
X75919611Y-61233151D01*
X76547228Y-60879938D01*
X77154685Y-60493081D01*
X77740179Y-60073727D01*
X78301976Y-59623119D01*
X78838407Y-59142595D01*
X79347883Y-58633579D01*
X79828891Y-58097582D01*
X80280006Y-57536193D01*
X80699889Y-56951078D01*
X81087295Y-56343971D01*
X81441074Y-55716673D01*
X81760178Y-55071046D01*
X82043661Y-54409003D01*
X82290680Y-53732510D01*
X82500503Y-53043571D01*
X82672509Y-52344232D01*
X82806187Y-51636565D01*
X82825123Y-51494195D01*
X82853932Y-51429308D01*
X82913249Y-51390295D01*
X82984242Y-51389544D01*
X83044370Y-51427295D01*
X83074544Y-51491560D01*
X83075416Y-51498459D01*
X83088975Y-51636132D01*
X83146185Y-51824725D01*
X83239089Y-51998537D01*
X83364116Y-52150883D01*
X83467760Y-52235941D01*
X83516462Y-52275910D01*
X83690273Y-52368814D01*
X83784570Y-52397419D01*
X83878867Y-52426024D01*
X84075000Y-52445341D01*
X84271132Y-52426024D01*
X84459727Y-52368814D01*
X84633538Y-52275910D01*
X84785883Y-52150883D01*
X84910910Y-51998538D01*
X85003814Y-51824727D01*
X85061024Y-51636132D01*
X85080341Y-51440000D01*
X85061024Y-51243868D01*
X85003814Y-51055273D01*
X84910910Y-50881462D01*
X84841542Y-50796937D01*
X84785883Y-50729116D01*
X84633537Y-50604089D01*
X84459725Y-50511185D01*
X84271132Y-50453975D01*
X84075000Y-50434658D01*
X83878867Y-50453975D01*
X83690274Y-50511185D01*
X83516462Y-50604089D01*
X83364116Y-50729116D01*
X83239089Y-50881462D01*
X83146185Y-51055273D01*
X83128138Y-51114766D01*
X83089222Y-51174147D01*
X83024381Y-51203062D01*
X82954200Y-51192330D01*
X82900962Y-51145360D01*
X82881569Y-51077063D01*
X82882663Y-51061584D01*
X82901140Y-50922670D01*
X82957087Y-50204664D01*
X82958040Y-50163575D01*
X82979619Y-50095937D01*
X83034339Y-50050702D01*
X83084007Y-50040500D01*
X86143230Y-50040500D01*
X86211351Y-50060502D01*
X86257844Y-50114158D01*
X86267948Y-50184432D01*
X86238454Y-50249012D01*
X86233476Y-50254101D01*
X86156275Y-50380305D01*
X86139318Y-50435303D01*
X86139315Y-50435314D01*
X86138328Y-50438516D01*
X86137687Y-50441810D01*
X86137686Y-50441817D01*
X85838879Y-51979041D01*
X85806246Y-52042094D01*
X85804289Y-52044094D01*
X84608995Y-53239388D01*
X84603455Y-53244604D01*
X84559634Y-53283427D01*
X84526385Y-53331596D01*
X84521876Y-53337724D01*
X84485776Y-53383803D01*
X84481903Y-53392408D01*
X84470710Y-53412254D01*
X84465346Y-53420025D01*
X84444588Y-53474759D01*
X84441677Y-53481787D01*
X84417656Y-53535159D01*
X84415956Y-53544439D01*
X84409834Y-53566398D01*
X84406487Y-53575223D01*
X84399430Y-53633336D01*
X84398285Y-53640857D01*
X84387735Y-53698426D01*
X84391270Y-53756850D01*
X84391500Y-53764458D01*
X84391500Y-56933365D01*
X84391270Y-56940975D01*
X84388414Y-56988176D01*
X84378032Y-57031178D01*
X84354752Y-57084252D01*
X84299483Y-57302505D01*
X84287501Y-57447102D01*
X84261941Y-57513338D01*
X84204629Y-57555241D01*
X84133761Y-57559507D01*
X84099798Y-57546311D01*
X83990023Y-57484087D01*
X83847794Y-57450776D01*
X83701938Y-57458884D01*
X83564277Y-57507755D01*
X83516543Y-57539787D01*
X83511165Y-57543830D01*
X83019963Y-57955996D01*
X83019963Y-57955997D01*
X83615938Y-58666253D01*
X83555979Y-58674874D01*
X83425194Y-58734602D01*
X83316533Y-58828756D01*
X83238801Y-58949710D01*
X83226317Y-58992226D01*
X82630813Y-58282533D01*
X82630812Y-58282533D01*
X82139615Y-58694697D01*
X82134689Y-58699301D01*
X82094860Y-58740744D01*
X82022827Y-58867825D01*
X81989516Y-59010053D01*
X81997624Y-59155909D01*
X82046495Y-59293570D01*
X82078527Y-59341304D01*
X82082570Y-59346682D01*
X82494736Y-59837883D01*
X82494737Y-59837883D01*
X83202083Y-59244349D01*
X83238801Y-59369398D01*
X83316533Y-59490352D01*
X83425194Y-59584506D01*
X83529977Y-59632359D01*
X82821273Y-60227033D01*
X82821273Y-60227034D01*
X83233437Y-60718232D01*
X83238041Y-60723158D01*
X83279484Y-60762987D01*
X83406565Y-60835020D01*
X83548793Y-60868331D01*
X83694649Y-60860223D01*
X83832310Y-60811352D01*
X83880044Y-60779320D01*
X83885422Y-60775277D01*
X84376623Y-60363110D01*
X84376623Y-60363109D01*
X83780649Y-59652854D01*
X83840609Y-59644234D01*
X83971394Y-59584506D01*
X84080055Y-59490352D01*
X84157787Y-59369398D01*
X84170271Y-59326880D01*
X84765773Y-60036573D01*
X84765774Y-60036573D01*
X85256972Y-59624410D01*
X85261898Y-59619806D01*
X85301727Y-59578363D01*
X85373760Y-59451282D01*
X85402820Y-59327207D01*
X85437829Y-59265442D01*
X85442104Y-59263194D01*
X85404604Y-59204843D01*
X85399694Y-59176339D01*
X85398963Y-59163199D01*
X85357367Y-59046029D01*
X85353427Y-58975141D01*
X85388437Y-58913377D01*
X85451281Y-58880345D01*
X85496846Y-58879594D01*
X85501347Y-58880345D01*
X85541777Y-58887092D01*
X85541333Y-58889749D01*
X85594549Y-58905375D01*
X85641042Y-58959031D01*
X85651146Y-59029305D01*
X85650364Y-59034084D01*
X85647735Y-59048426D01*
X85651270Y-59106850D01*
X85651500Y-59114458D01*
X85651500Y-59169345D01*
X85631498Y-59237466D01*
X85602459Y-59262627D01*
X85627553Y-59282041D01*
X85651306Y-59348946D01*
X85651500Y-59355940D01*
X85651500Y-59654694D01*
X85631498Y-59722815D01*
X85614595Y-59743789D01*
X83502971Y-61855414D01*
X83440659Y-61889439D01*
X83413876Y-61892319D01*
X83093474Y-61892319D01*
X83025353Y-61872317D01*
X82994185Y-61843892D01*
X82320505Y-60981622D01*
X82318423Y-60978957D01*
X82316069Y-60976531D01*
X82316063Y-60976524D01*
X82276007Y-60935241D01*
X82151390Y-60858741D01*
X82010272Y-60820448D01*
X81864080Y-60823463D01*
X81724661Y-60867543D01*
X81675791Y-60897920D01*
X81675785Y-60897923D01*
X81672928Y-60899700D01*
X81670271Y-60901775D01*
X81670265Y-60901780D01*
X80416922Y-61880998D01*
X80416912Y-61881006D01*
X80414257Y-61883081D01*
X80411841Y-61885424D01*
X80411824Y-61885440D01*
X80370541Y-61925496D01*
X80294041Y-62050113D01*
X80255748Y-62191231D01*
X80258763Y-62337423D01*
X80302843Y-62476843D01*
X80302844Y-62476844D01*
X80335000Y-62528577D01*
X81475863Y-63988815D01*
X81946839Y-64591637D01*
X81995609Y-64654059D01*
X81997961Y-64656483D01*
X81997968Y-64656491D01*
X82038024Y-64697774D01*
X82038026Y-64697775D01*
X82138073Y-64759192D01*
X82185662Y-64811876D01*
X82197214Y-64881926D01*
X82169060Y-64947102D01*
X82151918Y-64964109D01*
X81970709Y-65112300D01*
X81966278Y-65115762D01*
X81878911Y-65180928D01*
X81812348Y-65205623D01*
X81743000Y-65190412D01*
X81692885Y-65140122D01*
X81683439Y-65117913D01*
X81647156Y-65003156D01*
X81630597Y-64976516D01*
X81615000Y-64951423D01*
X79954391Y-62825941D01*
X79952037Y-62823515D01*
X79952031Y-62823508D01*
X79911975Y-62782225D01*
X79787358Y-62705725D01*
X79646240Y-62667432D01*
X79500048Y-62670447D01*
X79360629Y-62714527D01*
X79311759Y-62744904D01*
X79311753Y-62744907D01*
X79308896Y-62746684D01*
X79306239Y-62748759D01*
X79306233Y-62748764D01*
X78052890Y-63727982D01*
X78052880Y-63727990D01*
X78050225Y-63730065D01*
X78047809Y-63732408D01*
X78047792Y-63732424D01*
X77995151Y-63783502D01*
X77992021Y-63780276D01*
X77961093Y-63808202D01*
X77906422Y-63820681D01*
X74785278Y-63820681D01*
X74777670Y-63820451D01*
X74719245Y-63816916D01*
X74661676Y-63827466D01*
X74654155Y-63828611D01*
X74596042Y-63835668D01*
X74587217Y-63839015D01*
X74565259Y-63845136D01*
X74563441Y-63845469D01*
X74555978Y-63846837D01*
X74502606Y-63870858D01*
X74495578Y-63873769D01*
X74440844Y-63894527D01*
X74433073Y-63899891D01*
X74413227Y-63911084D01*
X74404622Y-63914957D01*
X74358543Y-63951057D01*
X74352415Y-63955566D01*
X74304246Y-63988815D01*
X74265423Y-64032636D01*
X74260207Y-64038176D01*
X72703788Y-65594596D01*
X72641478Y-65628620D01*
X72614695Y-65631500D01*
X71776362Y-65631500D01*
X71773013Y-65631859D01*
X71773013Y-65631860D01*
X71715799Y-65638011D01*
X71578794Y-65689111D01*
X71461738Y-65776738D01*
X71374111Y-65893794D01*
X71329767Y-66012685D01*
X71323011Y-66030799D01*
X71316500Y-66091362D01*
X71316500Y-68788638D01*
X71322144Y-68841141D01*
X71323011Y-68849200D01*
X71374111Y-68986205D01*
X71415691Y-69041750D01*
X71440501Y-69108270D01*
X71425409Y-69177644D01*
X71375207Y-69227846D01*
X71322479Y-69243025D01*
X70819929Y-69273622D01*
X70750719Y-69257797D01*
X70701051Y-69207066D01*
X70686695Y-69137536D01*
X70711404Y-69072345D01*
X70715332Y-69067098D01*
X70775889Y-68986204D01*
X70826989Y-68849201D01*
X70833500Y-68788638D01*
X70833500Y-66091362D01*
X70826989Y-66030799D01*
X70775889Y-65893796D01*
X70775888Y-65893794D01*
X70688261Y-65776738D01*
X70571205Y-65689111D01*
X70502702Y-65663561D01*
X70434201Y-65638011D01*
X70373638Y-65631500D01*
X68776362Y-65631500D01*
X68773013Y-65631859D01*
X68773013Y-65631860D01*
X68715799Y-65638011D01*
X68661555Y-65658243D01*
X68590739Y-65663307D01*
X68528427Y-65629282D01*
X68510282Y-65606334D01*
X68498090Y-65586568D01*
X68464030Y-65531348D01*
X68464028Y-65531346D01*
X68464027Y-65531344D01*
X68338655Y-65405972D01*
X68314722Y-65391210D01*
X68187738Y-65312885D01*
X68019426Y-65257113D01*
X68019423Y-65257112D01*
X68019421Y-65257112D01*
X67918746Y-65246826D01*
X67918725Y-65246824D01*
X67915545Y-65246500D01*
X67912339Y-65246500D01*
X66917661Y-65246500D01*
X66917641Y-65246500D01*
X66914456Y-65246501D01*
X66911279Y-65246825D01*
X66911270Y-65246826D01*
X66810573Y-65257113D01*
X66642262Y-65312885D01*
X66491344Y-65405972D01*
X66365972Y-65531344D01*
X66326959Y-65594595D01*
X66272885Y-65682262D01*
X66217330Y-65849920D01*
X66217112Y-65850578D01*
X66206826Y-65951253D01*
X66206824Y-65951275D01*
X66206500Y-65954455D01*
X66206500Y-65957659D01*
X66206500Y-65957660D01*
X66206500Y-66577338D01*
X66206500Y-66577357D01*
X66206501Y-66580544D01*
X66206825Y-66583721D01*
X66206826Y-66583729D01*
X66210417Y-66618882D01*
X66217113Y-66684426D01*
X66272885Y-66852738D01*
X66365970Y-67003652D01*
X66453577Y-67091259D01*
X66487601Y-67153569D01*
X66482537Y-67224385D01*
X66453577Y-67269448D01*
X66366366Y-67356659D01*
X66273340Y-67507477D01*
X66217606Y-67675672D01*
X66207325Y-67776307D01*
X66207000Y-67782697D01*
X66207000Y-67838500D01*
X67543000Y-67838500D01*
X67611121Y-67858502D01*
X67657614Y-67912158D01*
X67669000Y-67964500D01*
X67669000Y-68220500D01*
X67648998Y-68288621D01*
X67595342Y-68335114D01*
X67543000Y-68346500D01*
X66207000Y-68346500D01*
X66207000Y-68402302D01*
X66207325Y-68408692D01*
X66217606Y-68509327D01*
X66273341Y-68677524D01*
X66339337Y-68784521D01*
X66358074Y-68853000D01*
X66336814Y-68920739D01*
X66282307Y-68966230D01*
X66211858Y-68975031D01*
X66211736Y-68975011D01*
X66173175Y-68968697D01*
X66167650Y-68967665D01*
X65310006Y-68787632D01*
X65304531Y-68786355D01*
X64455753Y-68568241D01*
X64450341Y-68566721D01*
X63937419Y-68410216D01*
X63878101Y-68371204D01*
X63849291Y-68306316D01*
X63860136Y-68236152D01*
X63900128Y-68187766D01*
X64036253Y-68088866D01*
X64164040Y-67946944D01*
X64259527Y-67781556D01*
X64318542Y-67599928D01*
X64338504Y-67410000D01*
X64318542Y-67220072D01*
X64259527Y-67038444D01*
X64259527Y-67038443D01*
X64164041Y-66873057D01*
X64100146Y-66802094D01*
X64036253Y-66731134D01*
X64036252Y-66731133D01*
X63979840Y-66690147D01*
X63936486Y-66633924D01*
X63930411Y-66563188D01*
X63949650Y-66517445D01*
X63953001Y-66512510D01*
X64016308Y-66353157D01*
X64041159Y-66183499D01*
X64040762Y-66178964D01*
X64054752Y-66109361D01*
X64104151Y-66058369D01*
X64155305Y-66042464D01*
X64159281Y-66042116D01*
X64321929Y-65988220D01*
X64467773Y-65898262D01*
X64537850Y-65830193D01*
X64542230Y-65825483D01*
X64552913Y-65812751D01*
X63994467Y-65344159D01*
X63530695Y-64955008D01*
X64321003Y-64955008D01*
X64879448Y-65423600D01*
X64879449Y-65423600D01*
X64890141Y-65410859D01*
X64894008Y-65405743D01*
X64948878Y-65324904D01*
X65012141Y-65165659D01*
X65036975Y-64996117D01*
X65022041Y-64825415D01*
X64968144Y-64662765D01*
X64878190Y-64516925D01*
X64810111Y-64446838D01*
X64805423Y-64442479D01*
X64773525Y-64415713D01*
X64773524Y-64415713D01*
X64321003Y-64955007D01*
X64321003Y-64955008D01*
X63530695Y-64955008D01*
X63046869Y-64549030D01*
X63036181Y-64561768D01*
X63032313Y-64566886D01*
X62977441Y-64647727D01*
X62914178Y-64806972D01*
X62889344Y-64976516D01*
X62889692Y-64980495D01*
X62875701Y-65050099D01*
X62826300Y-65101090D01*
X62775158Y-65116993D01*
X62770625Y-65117389D01*
X62694616Y-65142576D01*
X62607856Y-65171325D01*
X62607854Y-65171325D01*
X62607854Y-65171326D01*
X62461915Y-65261342D01*
X62391775Y-65329471D01*
X62391766Y-65329480D01*
X62389477Y-65331704D01*
X62387432Y-65334140D01*
X62387407Y-65334168D01*
X62171590Y-65591369D01*
X62112481Y-65630696D01*
X62041493Y-65631822D01*
X61985974Y-65599473D01*
X61840023Y-65453522D01*
X61805997Y-65391210D01*
X61811062Y-65320395D01*
X61832592Y-65283443D01*
X62255022Y-64780013D01*
X62288963Y-64729433D01*
X62337882Y-64591637D01*
X62345998Y-64445640D01*
X62312653Y-64303270D01*
X62240549Y-64176061D01*
X62224997Y-64159879D01*
X63373406Y-64159879D01*
X63931851Y-64628471D01*
X63931852Y-64628471D01*
X64384374Y-64089176D01*
X64352479Y-64062412D01*
X64347369Y-64058551D01*
X64266526Y-64003679D01*
X64107282Y-63940416D01*
X63937739Y-63915581D01*
X63767038Y-63930515D01*
X63604390Y-63984411D01*
X63458546Y-64074369D01*
X63388471Y-64142435D01*
X63384088Y-64147149D01*
X63373406Y-64159879D01*
X62224997Y-64159879D01*
X62200681Y-64134578D01*
X62200673Y-64134571D01*
X62198341Y-64132144D01*
X62129487Y-64074369D01*
X61431112Y-63488363D01*
X60974756Y-63105435D01*
X60924177Y-63071494D01*
X60786380Y-63022575D01*
X60640383Y-63014459D01*
X60640382Y-63014459D01*
X60640380Y-63014459D01*
X60498011Y-63047802D01*
X60370807Y-63119905D01*
X60329318Y-63159780D01*
X60329313Y-63159784D01*
X60326888Y-63162116D01*
X60324727Y-63164690D01*
X60324717Y-63164702D01*
X58595276Y-65225769D01*
X58595268Y-65225779D01*
X58593112Y-65228349D01*
X58591244Y-65231132D01*
X58591234Y-65231146D01*
X58559170Y-65278930D01*
X58510252Y-65416722D01*
X58510251Y-65416725D01*
X58510252Y-65416725D01*
X58505541Y-65501481D01*
X58504530Y-65519663D01*
X58480777Y-65586568D01*
X58424624Y-65630011D01*
X58353897Y-65636199D01*
X58306700Y-65616054D01*
X58142244Y-65501481D01*
X58137705Y-65498166D01*
X57863023Y-65287999D01*
X57821076Y-65230719D01*
X57816756Y-65159854D01*
X57851434Y-65097903D01*
X57910853Y-65065251D01*
X58051987Y-65032197D01*
X58179195Y-64960093D01*
X58223112Y-64917884D01*
X59956888Y-62851651D01*
X59990829Y-62801071D01*
X60039748Y-62663275D01*
X60047864Y-62517278D01*
X60014519Y-62374908D01*
X59942415Y-62247699D01*
X59940362Y-62245563D01*
X59902547Y-62206216D01*
X59902539Y-62206209D01*
X59900207Y-62203782D01*
X59885250Y-62191232D01*
X58854442Y-61326281D01*
X58815115Y-61267171D01*
X58809433Y-61229759D01*
X58809433Y-60976051D01*
X58809663Y-60968443D01*
X58813197Y-60910021D01*
X58805557Y-60868331D01*
X58802644Y-60852441D01*
X58801500Y-60844917D01*
X58794446Y-60786818D01*
X58791101Y-60777999D01*
X58784975Y-60756024D01*
X58783277Y-60746757D01*
X58772164Y-60722065D01*
X58759247Y-60693366D01*
X58756343Y-60686353D01*
X58735587Y-60631621D01*
X58730231Y-60623862D01*
X58719025Y-60603993D01*
X58715156Y-60595396D01*
X58679055Y-60549316D01*
X58674558Y-60543206D01*
X58641298Y-60495020D01*
X58597476Y-60456197D01*
X58591935Y-60450980D01*
X54902989Y-56762034D01*
X54868963Y-56699722D01*
X54874028Y-56628907D01*
X54891696Y-56596793D01*
X54894141Y-56593571D01*
X54946110Y-56456895D01*
X54957467Y-56311115D01*
X54947032Y-56251103D01*
X54506763Y-54715703D01*
X54505492Y-54712579D01*
X54505487Y-54712564D01*
X54483812Y-54659283D01*
X54465474Y-54634460D01*
X54396927Y-54541670D01*
X54396928Y-54541670D01*
X54396926Y-54541668D01*
X54280430Y-54453302D01*
X54280429Y-54453301D01*
X54163925Y-54409003D01*
X54143751Y-54401332D01*
X53997972Y-54389974D01*
X53941289Y-54399831D01*
X53941286Y-54399831D01*
X53937960Y-54400410D01*
X53934718Y-54401339D01*
X53934712Y-54401341D01*
X51348416Y-55142949D01*
X51348402Y-55142953D01*
X51345172Y-55143880D01*
X51342064Y-55145144D01*
X51342033Y-55145155D01*
X51288752Y-55166830D01*
X51171137Y-55253716D01*
X51113123Y-55330199D01*
X51056019Y-55372385D01*
X50985172Y-55377000D01*
X50923077Y-55342580D01*
X50892107Y-55290446D01*
X50751626Y-54824793D01*
X50750127Y-54819390D01*
X50742859Y-54790733D01*
X50745500Y-54719786D01*
X50786080Y-54661529D01*
X50851713Y-54634460D01*
X50909769Y-54641983D01*
X51006247Y-54678667D01*
X51078765Y-54684317D01*
X51152027Y-54690025D01*
X51152027Y-54690024D01*
X51152028Y-54690025D01*
X51212040Y-54679590D01*
X53804828Y-53936120D01*
X53807957Y-53934846D01*
X53807966Y-53934844D01*
X53845220Y-53919688D01*
X53861250Y-53913168D01*
X53978861Y-53826284D01*
X54067229Y-53709785D01*
X54119198Y-53573109D01*
X54130555Y-53427329D01*
X54120120Y-53367317D01*
X53679851Y-51831917D01*
X53678580Y-51828793D01*
X53678575Y-51828778D01*
X53656900Y-51775497D01*
X53633057Y-51743222D01*
X53570015Y-51657884D01*
X53570016Y-51657884D01*
X53570014Y-51657882D01*
X53453518Y-51569516D01*
X53453517Y-51569515D01*
X53354939Y-51532033D01*
X53316839Y-51517546D01*
X53171060Y-51506188D01*
X53114377Y-51516045D01*
X53114374Y-51516045D01*
X53111048Y-51516624D01*
X53107806Y-51517553D01*
X53107800Y-51517555D01*
X52319230Y-51743673D01*
X52248235Y-51743222D01*
X52188754Y-51704460D01*
X52159671Y-51639694D01*
X52158500Y-51622554D01*
X52158500Y-47498055D01*
X52178502Y-47429934D01*
X52232158Y-47383441D01*
X52302432Y-47373337D01*
X52321338Y-47377560D01*
X52958201Y-47572270D01*
X53018021Y-47583751D01*
X53018021Y-47583750D01*
X53018022Y-47583751D01*
X53026332Y-47583249D01*
X53163978Y-47574939D01*
X53301540Y-47525364D01*
X53419564Y-47439042D01*
X53508487Y-47322966D01*
X53532420Y-47266953D01*
X53999418Y-45739470D01*
X54010899Y-45679650D01*
X54002087Y-45533693D01*
X53952512Y-45396131D01*
X53866190Y-45278107D01*
X53750114Y-45189184D01*
X53750113Y-45189183D01*
X53697198Y-45166574D01*
X53697193Y-45166572D01*
X53694101Y-45165251D01*
X53690896Y-45164271D01*
X53690882Y-45164266D01*
X51117919Y-44377633D01*
X51117913Y-44377631D01*
X51114683Y-44376644D01*
X51111372Y-44376008D01*
X51111366Y-44376007D01*
X51054861Y-44365162D01*
X50914605Y-44373630D01*
X50908906Y-44373975D01*
X50908905Y-44373975D01*
X50892478Y-44374967D01*
X50823275Y-44359107D01*
X50773633Y-44308350D01*
X50759313Y-44238813D01*
X50764040Y-44213522D01*
X50870431Y-43853131D01*
X50908900Y-43793463D01*
X50973524Y-43764065D01*
X51043783Y-43774271D01*
X51067390Y-43793536D01*
X51069429Y-43790876D01*
X51083809Y-43801892D01*
X51083810Y-43801893D01*
X51199886Y-43890816D01*
X51255899Y-43914749D01*
X51259114Y-43915732D01*
X51259117Y-43915733D01*
X52062560Y-44161370D01*
X53835317Y-44703356D01*
X53895137Y-44714837D01*
X53895137Y-44714836D01*
X53895138Y-44714837D01*
X53903448Y-44714335D01*
X54041094Y-44706025D01*
X54178656Y-44656450D01*
X54296680Y-44570128D01*
X54385603Y-44454052D01*
X54409536Y-44398039D01*
X54876534Y-42870556D01*
X54888015Y-42810736D01*
X54879203Y-42664779D01*
X54829628Y-42527217D01*
X54829627Y-42527216D01*
X54823486Y-42510174D01*
X54826327Y-42509149D01*
X54811886Y-42469082D01*
X54827745Y-42399879D01*
X54848558Y-42372395D01*
X56580365Y-40640588D01*
X56585872Y-40635404D01*
X56629705Y-40596573D01*
X56662961Y-40548391D01*
X56667452Y-40542288D01*
X56703563Y-40496197D01*
X56707434Y-40487594D01*
X56718636Y-40467732D01*
X56723994Y-40459971D01*
X56744755Y-40405224D01*
X56747650Y-40398234D01*
X56771684Y-40344837D01*
X56773382Y-40335567D01*
X56779510Y-40313587D01*
X56782852Y-40304776D01*
X56782851Y-40304776D01*
X56782853Y-40304774D01*
X56789911Y-40246639D01*
X56791052Y-40239148D01*
X56801604Y-40181572D01*
X56798069Y-40123147D01*
X56797839Y-40115537D01*
X56797839Y-39726951D01*
X56817841Y-39658834D01*
X56834739Y-39637865D01*
X57857865Y-38614740D01*
X57896085Y-38567312D01*
X57956828Y-38434303D01*
X57977638Y-38289569D01*
X57976022Y-38278333D01*
X57964020Y-38194855D01*
X57956828Y-38144835D01*
X57896085Y-38011826D01*
X57857865Y-37964397D01*
X55950603Y-36057135D01*
X55903174Y-36018915D01*
X55770165Y-35958172D01*
X55770163Y-35958171D01*
X55770162Y-35958171D01*
X55721633Y-35951193D01*
X55657053Y-35921699D01*
X55618670Y-35861972D01*
X55618672Y-35790975D01*
X55649802Y-35738056D01*
X55971104Y-35411885D01*
X56033156Y-35377394D01*
X56104007Y-35381927D01*
X56161162Y-35424045D01*
X56185581Y-35482376D01*
X56193171Y-35535162D01*
X56193171Y-35535163D01*
X56193172Y-35535165D01*
X56253915Y-35668174D01*
X56292135Y-35715603D01*
X58199397Y-37622865D01*
X58246826Y-37661085D01*
X58379835Y-37721828D01*
X58524569Y-37742638D01*
X58669303Y-37721828D01*
X58802312Y-37661085D01*
X58849740Y-37622865D01*
X59979185Y-36493420D01*
X60017405Y-36445992D01*
X60078148Y-36312983D01*
X60078148Y-36312980D01*
X60085673Y-36296504D01*
X60086611Y-36296932D01*
X60107119Y-36252027D01*
X60166844Y-36213642D01*
X60237841Y-36213641D01*
X60258892Y-36221940D01*
X60426638Y-36306184D01*
X60599052Y-36347049D01*
X60776253Y-36347049D01*
X60948666Y-36306184D01*
X61107016Y-36226659D01*
X61185433Y-36162780D01*
X61190197Y-36158477D01*
X61893477Y-35455197D01*
X61897780Y-35450433D01*
X61961659Y-35372016D01*
X62041184Y-35213666D01*
X62082048Y-35041252D01*
X62082048Y-34864052D01*
X62041184Y-34691638D01*
X61961659Y-34533288D01*
X61897783Y-34454875D01*
X61893479Y-34450108D01*
X61854025Y-34410654D01*
X61854024Y-34410654D01*
X60909329Y-35355349D01*
X60847017Y-35389375D01*
X60776202Y-35384310D01*
X60731139Y-35355349D01*
X60550120Y-35174330D01*
X60516094Y-35112018D01*
X60521159Y-35041203D01*
X60550120Y-34996140D01*
X61494815Y-34051445D01*
X61455352Y-34011983D01*
X61450598Y-34007689D01*
X61372181Y-33943810D01*
X61213831Y-33864285D01*
X61041418Y-33823421D01*
X60918079Y-33823421D01*
X60849958Y-33803419D01*
X60803465Y-33749763D01*
X60792079Y-33697421D01*
X60792079Y-33573529D01*
X60776479Y-33507707D01*
X60751188Y-33400993D01*
X60671610Y-33242542D01*
X60605660Y-33161583D01*
X60162947Y-32718872D01*
X60081988Y-32652920D01*
X59987764Y-32605598D01*
X59935867Y-32557151D01*
X59918400Y-32488336D01*
X59940911Y-32421003D01*
X59981137Y-32383985D01*
X60093021Y-32319150D01*
X60161987Y-32302302D01*
X60229116Y-32325416D01*
G37*
G04 #@! TD.AperFunction*
G04 #@! TA.AperFunction,Conductor*
G36*
X75834121Y-65207683D02*
G01*
X75880614Y-65261339D01*
X75891254Y-65310255D01*
X75891999Y-65311000D01*
X77858001Y-65311000D01*
X77859114Y-65309886D01*
X77878002Y-65245560D01*
X77931658Y-65199067D01*
X77984000Y-65187681D01*
X78544012Y-65187681D01*
X78612133Y-65207683D01*
X78643301Y-65236108D01*
X79629495Y-66498379D01*
X79629501Y-66498386D01*
X79631577Y-66501043D01*
X79633926Y-66503464D01*
X79635553Y-66505331D01*
X79665223Y-66569831D01*
X79655312Y-66640132D01*
X79608966Y-66693915D01*
X79601736Y-66698253D01*
X79259379Y-66888411D01*
X79190116Y-66904003D01*
X79123418Y-66879672D01*
X79080463Y-66823144D01*
X79072889Y-66791439D01*
X79068542Y-66750072D01*
X79026766Y-66621500D01*
X79009527Y-66568443D01*
X78914041Y-66403057D01*
X78786252Y-66261133D01*
X78631753Y-66148883D01*
X78631752Y-66148882D01*
X78457288Y-66071206D01*
X78270487Y-66031500D01*
X78079513Y-66031500D01*
X78039296Y-66040048D01*
X78002079Y-66047959D01*
X77931289Y-66042557D01*
X77874656Y-65999740D01*
X77850163Y-65933102D01*
X77850536Y-65911905D01*
X77857673Y-65842045D01*
X77858000Y-65835638D01*
X77858000Y-65819000D01*
X75892000Y-65819000D01*
X75892000Y-65835638D01*
X75892325Y-65842028D01*
X75902256Y-65939238D01*
X75956152Y-66101884D01*
X76038201Y-66234906D01*
X76056938Y-66303386D01*
X76035679Y-66371124D01*
X75981172Y-66416616D01*
X75952870Y-66421671D01*
X75953476Y-66424978D01*
X75880857Y-66438285D01*
X75873336Y-66439430D01*
X75815223Y-66446487D01*
X75806398Y-66449834D01*
X75784440Y-66455955D01*
X75782622Y-66456288D01*
X75775159Y-66457656D01*
X75721787Y-66481677D01*
X75714759Y-66484588D01*
X75660025Y-66505346D01*
X75652254Y-66510710D01*
X75632408Y-66521903D01*
X75623803Y-66525776D01*
X75577724Y-66561876D01*
X75571595Y-66566386D01*
X75522379Y-66600357D01*
X75477001Y-66619907D01*
X75282715Y-66661205D01*
X75282713Y-66661205D01*
X75282712Y-66661206D01*
X75108248Y-66738882D01*
X75108246Y-66738883D01*
X74953747Y-66851133D01*
X74825958Y-66993057D01*
X74730472Y-67158443D01*
X74671458Y-67340070D01*
X74651496Y-67530000D01*
X74671458Y-67719929D01*
X74730472Y-67901556D01*
X74825958Y-68066942D01*
X74855669Y-68099939D01*
X74953747Y-68208866D01*
X75108248Y-68321118D01*
X75137544Y-68334161D01*
X75191640Y-68380141D01*
X75212290Y-68448068D01*
X75192938Y-68516376D01*
X75139728Y-68563378D01*
X75121590Y-68570224D01*
X74914089Y-68630771D01*
X74908658Y-68632225D01*
X74057274Y-68839931D01*
X74051785Y-68841141D01*
X73983874Y-68854531D01*
X73913171Y-68848084D01*
X73857177Y-68804436D01*
X73833669Y-68737444D01*
X73833500Y-68730911D01*
X73833500Y-66450305D01*
X73853502Y-66382184D01*
X73870405Y-66361210D01*
X75007029Y-65224586D01*
X75069341Y-65190560D01*
X75096124Y-65187681D01*
X75766000Y-65187681D01*
X75834121Y-65207683D01*
G37*
G04 #@! TD.AperFunction*
G04 #@! TA.AperFunction,Conductor*
G36*
X53384750Y-57198282D02*
G01*
X53437580Y-57229855D01*
X55229458Y-59021733D01*
X55252015Y-59063043D01*
X55275105Y-59070500D01*
X55293266Y-59085541D01*
X57405528Y-61197802D01*
X57439553Y-61260114D01*
X57442433Y-61286897D01*
X57442433Y-61886642D01*
X57422431Y-61954763D01*
X57412955Y-61967633D01*
X56297142Y-63297407D01*
X56297134Y-63297417D01*
X56294978Y-63299987D01*
X56293110Y-63302770D01*
X56293100Y-63302784D01*
X56261036Y-63350568D01*
X56212118Y-63488360D01*
X56206130Y-63596078D01*
X56182377Y-63662984D01*
X56126223Y-63706426D01*
X56055497Y-63712614D01*
X55992653Y-63679581D01*
X55991088Y-63678039D01*
X55493020Y-63178400D01*
X55489141Y-63174331D01*
X54898737Y-62526696D01*
X54895044Y-62522458D01*
X54334135Y-61849155D01*
X54330634Y-61844757D01*
X54014311Y-61428623D01*
X53800303Y-61147088D01*
X53797008Y-61142547D01*
X53679404Y-60972601D01*
X53657088Y-60905203D01*
X53674753Y-60836439D01*
X53726791Y-60788142D01*
X53796679Y-60775645D01*
X53842410Y-60789779D01*
X53990273Y-60868814D01*
X54084570Y-60897418D01*
X54178867Y-60926024D01*
X54375000Y-60945341D01*
X54571132Y-60926024D01*
X54759727Y-60868814D01*
X54933538Y-60775910D01*
X55085883Y-60650883D01*
X55210910Y-60498538D01*
X55303814Y-60324727D01*
X55361024Y-60136132D01*
X55380341Y-59940000D01*
X55361024Y-59743868D01*
X55335447Y-59659554D01*
X55303814Y-59555274D01*
X55303814Y-59555273D01*
X55210910Y-59381462D01*
X55115694Y-59265442D01*
X55106772Y-59254570D01*
X55093985Y-59224462D01*
X55079978Y-59221416D01*
X55060429Y-59208227D01*
X54933537Y-59104089D01*
X54759725Y-59011185D01*
X54571132Y-58953975D01*
X54375000Y-58934658D01*
X54178867Y-58953975D01*
X53990274Y-59011185D01*
X53816462Y-59104089D01*
X53664116Y-59229116D01*
X53539089Y-59381462D01*
X53446185Y-59555274D01*
X53388975Y-59743867D01*
X53369658Y-59940000D01*
X53386804Y-60114088D01*
X53373575Y-60183841D01*
X53324735Y-60235369D01*
X53255790Y-60252313D01*
X53188629Y-60229291D01*
X53154705Y-60193445D01*
X53104872Y-60114088D01*
X52829160Y-59675027D01*
X52826288Y-59670216D01*
X52393811Y-58908005D01*
X52391182Y-58903122D01*
X51993103Y-58122320D01*
X51990684Y-58117302D01*
X51823243Y-57749163D01*
X51813248Y-57678875D01*
X51842841Y-57614339D01*
X51902626Y-57576047D01*
X51947726Y-57571379D01*
X51978940Y-57573811D01*
X52038952Y-57563376D01*
X53313757Y-57197831D01*
X53384750Y-57198282D01*
G37*
G04 #@! TD.AperFunction*
G04 #@! TA.AperFunction,Conductor*
G36*
X87310664Y-52762036D02*
G01*
X88841621Y-53059624D01*
X88841623Y-53059624D01*
X88844940Y-53060269D01*
X88905632Y-53065434D01*
X89049868Y-53041414D01*
X89049868Y-53041413D01*
X89067738Y-53038438D01*
X89067917Y-53039518D01*
X89116389Y-53031443D01*
X89181611Y-53059489D01*
X89221317Y-53118344D01*
X89225396Y-53178017D01*
X89197625Y-53338471D01*
X89196543Y-53343989D01*
X89147781Y-53566208D01*
X89113643Y-53628458D01*
X89051269Y-53662371D01*
X88980463Y-53657178D01*
X88951529Y-53637522D01*
X88951177Y-53638099D01*
X88935724Y-53628646D01*
X88935723Y-53628645D01*
X88810988Y-53552343D01*
X88810987Y-53552342D01*
X88810986Y-53552342D01*
X88756002Y-53535388D01*
X88755993Y-53535385D01*
X88752780Y-53534395D01*
X88749485Y-53533754D01*
X88749471Y-53533751D01*
X86887604Y-53171842D01*
X86824551Y-53139209D01*
X86789151Y-53077668D01*
X86792641Y-53006758D01*
X86822549Y-52959064D01*
X87019579Y-52762034D01*
X87081889Y-52728010D01*
X87132714Y-52727446D01*
X87310664Y-52762036D01*
G37*
G04 #@! TD.AperFunction*
G04 #@! TA.AperFunction,Conductor*
G36*
X50372694Y-46781444D02*
G01*
X50376833Y-46782829D01*
X50378783Y-46783663D01*
X50702342Y-46882585D01*
X50761635Y-46921627D01*
X50790409Y-46986531D01*
X50791500Y-47003077D01*
X50791500Y-52086795D01*
X50771498Y-52154916D01*
X50717842Y-52201409D01*
X50700231Y-52207914D01*
X50521500Y-52259164D01*
X50521484Y-52259169D01*
X50518260Y-52260094D01*
X50515146Y-52261360D01*
X50515122Y-52261369D01*
X50461840Y-52283044D01*
X50415548Y-52317242D01*
X50348871Y-52341630D01*
X50279595Y-52326098D01*
X50229712Y-52275578D01*
X50216286Y-52235941D01*
X50216218Y-52235519D01*
X50215438Y-52229872D01*
X50206352Y-52150883D01*
X50115290Y-51359215D01*
X50114778Y-51353673D01*
X50053568Y-50479457D01*
X50053301Y-50473847D01*
X50031145Y-49597720D01*
X50031130Y-49592159D01*
X50048077Y-48715930D01*
X50048308Y-48710371D01*
X50104323Y-47835758D01*
X50104800Y-47830227D01*
X50199773Y-46958972D01*
X50200498Y-46953465D01*
X50211419Y-46882733D01*
X50241580Y-46818468D01*
X50301701Y-46780707D01*
X50372694Y-46781444D01*
G37*
G04 #@! TD.AperFunction*
G04 #@! TA.AperFunction,Conductor*
G36*
X54109236Y-37757320D02*
G01*
X54125055Y-37780138D01*
X54132595Y-37789494D01*
X54170815Y-37836923D01*
X55393936Y-39060044D01*
X55427960Y-39122354D01*
X55430840Y-39149137D01*
X55430840Y-39804694D01*
X55410838Y-39872815D01*
X55393935Y-39893789D01*
X53414830Y-41872893D01*
X53352518Y-41906919D01*
X53288896Y-41904292D01*
X52847592Y-41769372D01*
X51995035Y-41508719D01*
X51995029Y-41508717D01*
X51991799Y-41507730D01*
X51988488Y-41507094D01*
X51988482Y-41507093D01*
X51947776Y-41499281D01*
X51931979Y-41496249D01*
X51931978Y-41496249D01*
X51916435Y-41493266D01*
X51917369Y-41488396D01*
X51878184Y-41479352D01*
X51828621Y-41428519D01*
X51814408Y-41358960D01*
X51824959Y-41318056D01*
X51939996Y-41061093D01*
X51942374Y-41056084D01*
X52335803Y-40272931D01*
X52338399Y-40268039D01*
X52766362Y-39503228D01*
X52769213Y-39498392D01*
X52804792Y-39440979D01*
X53230856Y-38753446D01*
X53233874Y-38748809D01*
X53728300Y-38025175D01*
X53731541Y-38020651D01*
X53919256Y-37770634D01*
X53976149Y-37728171D01*
X54046972Y-37723207D01*
X54109236Y-37757320D01*
G37*
G04 #@! TD.AperFunction*
G04 #@! TD*
M02*
