G04 #@! TF.GenerationSoftware,KiCad,Pcbnew,7.0.2-6a45011f42~172~ubuntu22.04.1*
G04 #@! TF.CreationDate,2023-05-20T12:50:21-04:00*
G04 #@! TF.ProjectId,T36VAIllumination,54333656-4149-46c6-9c75-6d696e617469,1.3*
G04 #@! TF.SameCoordinates,Original*
G04 #@! TF.FileFunction,Copper,L2,Bot*
G04 #@! TF.FilePolarity,Positive*
%FSLAX46Y46*%
G04 Gerber Fmt 4.6, Leading zero omitted, Abs format (unit mm)*
G04 Created by KiCad (PCBNEW 7.0.2-6a45011f42~172~ubuntu22.04.1) date 2023-05-20 12:50:21*
%MOMM*%
%LPD*%
G01*
G04 APERTURE LIST*
G04 Aperture macros list*
%AMHorizOval*
0 Thick line with rounded ends*
0 $1 width*
0 $2 $3 position (X,Y) of the first rounded end (center of the circle)*
0 $4 $5 position (X,Y) of the second rounded end (center of the circle)*
0 Add line between two ends*
20,1,$1,$2,$3,$4,$5,0*
0 Add two circle primitives to create the rounded ends*
1,1,$1,$2,$3*
1,1,$1,$4,$5*%
%AMRotRect*
0 Rectangle, with rotation*
0 The origin of the aperture is its center*
0 $1 length*
0 $2 width*
0 $3 Rotation angle, in degrees counterclockwise*
0 Add horizontal line*
21,1,$1,$2,0,0,$3*%
G04 Aperture macros list end*
G04 #@! TA.AperFunction,ComponentPad*
%ADD10C,0.820000*%
G04 #@! TD*
G04 #@! TA.AperFunction,ComponentPad*
%ADD11RotRect,1.700000X1.700000X310.000000*%
G04 #@! TD*
G04 #@! TA.AperFunction,ComponentPad*
%ADD12HorizOval,1.700000X0.000000X0.000000X0.000000X0.000000X0*%
G04 #@! TD*
G04 #@! TA.AperFunction,ViaPad*
%ADD13C,0.800000*%
G04 #@! TD*
G04 #@! TA.AperFunction,Conductor*
%ADD14C,0.350000*%
G04 #@! TD*
G04 APERTURE END LIST*
D10*
G04 #@! TO.P,REF\u002A\u002A,1*
G04 #@! TO.N,GND*
X74275000Y-68240000D03*
G04 #@! TD*
G04 #@! TO.P,REF\u002A\u002A,1*
G04 #@! TO.N,GND*
X59775000Y-59040000D03*
G04 #@! TD*
G04 #@! TO.P,REF\u002A\u002A,1*
G04 #@! TO.N,GND*
X69025000Y-63290000D03*
G04 #@! TD*
G04 #@! TO.P,REF\u002A\u002A,1*
G04 #@! TO.N,GND*
X52475000Y-49640000D03*
G04 #@! TD*
G04 #@! TO.P,REF\u002A\u002A,1*
G04 #@! TO.N,GND*
X62675000Y-34840000D03*
G04 #@! TD*
G04 #@! TO.P,REF\u002A\u002A,1*
G04 #@! TO.N,GND*
X63775000Y-62040000D03*
G04 #@! TD*
G04 #@! TO.P,REF\u002A\u002A,1*
G04 #@! TO.N,GND*
X62775000Y-63940000D03*
G04 #@! TD*
G04 #@! TO.P,REF\u002A\u002A,1*
G04 #@! TO.N,GND*
X52575000Y-54540000D03*
G04 #@! TD*
G04 #@! TO.P,REF\u002A\u002A,1*
G04 #@! TO.N,GND*
X50575000Y-47440000D03*
G04 #@! TD*
G04 #@! TO.P,REF\u002A\u002A,1*
G04 #@! TO.N,GND*
X57075000Y-36840000D03*
G04 #@! TD*
G04 #@! TO.P,REF\u002A\u002A,1*
G04 #@! TO.N,GND*
X50575000Y-50840000D03*
G04 #@! TD*
G04 #@! TO.P,REF\u002A\u002A,1*
G04 #@! TO.N,GND*
X57275000Y-55040000D03*
G04 #@! TD*
G04 #@! TO.P,REF\u002A\u002A,1*
G04 #@! TO.N,GND*
X58275000Y-42040000D03*
G04 #@! TD*
G04 #@! TO.P,REF\u002A\u002A,1*
G04 #@! TO.N,GND*
X76825000Y-63640000D03*
G04 #@! TD*
G04 #@! TO.P,REF\u002A\u002A,1*
G04 #@! TO.N,GND*
X83275000Y-61640000D03*
G04 #@! TD*
G04 #@! TO.P,REF\u002A\u002A,1*
G04 #@! TO.N,GND*
X64785000Y-36440000D03*
G04 #@! TD*
G04 #@! TO.P,REF\u002A\u002A,1*
G04 #@! TO.N,GND*
X78275000Y-60290000D03*
G04 #@! TD*
G04 #@! TO.P,REF\u002A\u002A,1*
G04 #@! TO.N,GND*
X81525000Y-56540000D03*
G04 #@! TD*
G04 #@! TO.P,REF\u002A\u002A,1*
G04 #@! TO.N,GND*
X80975000Y-63740000D03*
G04 #@! TD*
G04 #@! TO.P,REF\u002A\u002A,1*
G04 #@! TO.N,GND*
X60775000Y-39040000D03*
G04 #@! TD*
G04 #@! TO.P,REF\u002A\u002A,1*
G04 #@! TO.N,GND*
X56275000Y-57940000D03*
G04 #@! TD*
G04 #@! TO.P,REF\u002A\u002A,1*
G04 #@! TO.N,GND*
X53525000Y-44840000D03*
G04 #@! TD*
G04 #@! TO.P,REF\u002A\u002A,1*
G04 #@! TO.N,GND*
X56025000Y-50040000D03*
G04 #@! TD*
G04 #@! TO.P,REF\u002A\u002A,1*
G04 #@! TO.N,GND*
X54175000Y-38340000D03*
G04 #@! TD*
G04 #@! TO.P,REF\u002A\u002A,1*
G04 #@! TO.N,GND*
X74025000Y-62540000D03*
G04 #@! TD*
G04 #@! TO.P,REF\u002A\u002A,1*
G04 #@! TO.N,GND*
X52675000Y-58140000D03*
G04 #@! TD*
G04 #@! TO.P,REF\u002A\u002A,1*
G04 #@! TO.N,GND*
X55275000Y-61840000D03*
G04 #@! TD*
G04 #@! TO.P,REF\u002A\u002A,1*
G04 #@! TO.N,GND*
X59275000Y-64040000D03*
G04 #@! TD*
G04 #@! TO.P,REF\u002A\u002A,1*
G04 #@! TO.N,GND*
X65565000Y-67410000D03*
G04 #@! TD*
G04 #@! TO.P,REF\u002A\u002A,1*
G04 #@! TO.N,GND*
X67375000Y-64590000D03*
G04 #@! TD*
G04 #@! TO.P,REF\u002A\u002A,1*
G04 #@! TO.N,GND*
X71075000Y-67440000D03*
G04 #@! TD*
G04 #@! TO.P,REF\u002A\u002A,1*
G04 #@! TO.N,GND*
X52475000Y-41240000D03*
G04 #@! TD*
G04 #@! TO.P,REF\u002A\u002A,1*
G04 #@! TO.N,GND*
X83035000Y-53180000D03*
G04 #@! TD*
G04 #@! TO.P,REF\u002A\u002A,1*
G04 #@! TO.N,GND*
X87475000Y-53040000D03*
G04 #@! TD*
G04 #@! TO.P,REF\u002A\u002A,1*
G04 #@! TO.N,GND*
X56775000Y-45290000D03*
G04 #@! TD*
D11*
G04 #@! TO.P,J1,1,Pin_1*
G04 #@! TO.N,GND*
X83698294Y-59159554D03*
D12*
G04 #@! TO.P,J1,2,Pin_2*
G04 #@! TO.N,VCC*
X85644047Y-57526873D03*
G04 #@! TD*
D13*
G04 #@! TO.N,VCC*
X63425000Y-67410000D03*
X78175000Y-66940000D03*
X62395000Y-67110000D03*
X75565000Y-67530000D03*
G04 #@! TO.N,GND*
X78275000Y-65740000D03*
X75415000Y-65730000D03*
G04 #@! TD*
D14*
G04 #@! TO.N,VCC*
X62685000Y-67400000D02*
X63415000Y-67400000D01*
X85644047Y-60770953D02*
X80375000Y-66040000D01*
X77585000Y-67530000D02*
X75565000Y-67530000D01*
X75565000Y-67530000D02*
X75375000Y-67340000D01*
X78575000Y-66940000D02*
X78175000Y-66940000D01*
X67225000Y-68290000D02*
X64305000Y-68290000D01*
X72065000Y-69000000D02*
X67935000Y-69000000D01*
X78175000Y-66940000D02*
X77585000Y-67530000D01*
X79475000Y-66040000D02*
X78575000Y-66940000D01*
X80375000Y-66040000D02*
X79475000Y-66040000D01*
X62395000Y-67110000D02*
X62685000Y-67400000D01*
X85644047Y-57526873D02*
X85644047Y-60770953D01*
X67935000Y-69000000D02*
X67225000Y-68290000D01*
X73725000Y-67340000D02*
X72065000Y-69000000D01*
X75375000Y-67340000D02*
X73725000Y-67340000D01*
X64305000Y-68290000D02*
X63425000Y-67410000D01*
X63415000Y-67400000D02*
X63425000Y-67410000D01*
G04 #@! TD*
G04 #@! TA.AperFunction,Conductor*
G04 #@! TO.N,GND*
G36*
X60229116Y-32325416D02*
G01*
X60229574Y-32325742D01*
X66187871Y-36594372D01*
X66231598Y-36650304D01*
X66238144Y-36720999D01*
X66205431Y-36784010D01*
X66148968Y-36817990D01*
X65814205Y-36913228D01*
X65786816Y-36921020D01*
X65785184Y-36921581D01*
X65785168Y-36921587D01*
X65107517Y-37154940D01*
X65107508Y-37154943D01*
X65105877Y-37155505D01*
X65104298Y-37156146D01*
X65104271Y-37156157D01*
X64440289Y-37426072D01*
X64440259Y-37426084D01*
X64438712Y-37426714D01*
X64437208Y-37427422D01*
X64437174Y-37427438D01*
X63788856Y-37733108D01*
X63788846Y-37733112D01*
X63787302Y-37733841D01*
X63785812Y-37734645D01*
X63785795Y-37734654D01*
X63155084Y-38075164D01*
X63155070Y-38075171D01*
X63153579Y-38075977D01*
X63152136Y-38076860D01*
X63152106Y-38076878D01*
X62540896Y-38451202D01*
X62540862Y-38451223D01*
X62539422Y-38452106D01*
X62538019Y-38453073D01*
X62537996Y-38453089D01*
X61948091Y-38860119D01*
X61948064Y-38860138D01*
X61946652Y-38861113D01*
X61945304Y-38862155D01*
X61945275Y-38862177D01*
X61378387Y-39300732D01*
X61378355Y-39300758D01*
X61377029Y-39301784D01*
X61375746Y-39302892D01*
X61375728Y-39302908D01*
X60833528Y-39771699D01*
X60833502Y-39771722D01*
X60832241Y-39772813D01*
X60831046Y-39773965D01*
X60831015Y-39773994D01*
X60315136Y-40271612D01*
X60315106Y-40271642D01*
X60313904Y-40272802D01*
X60312762Y-40274030D01*
X60312732Y-40274061D01*
X59824741Y-40798992D01*
X59824719Y-40799016D01*
X59823556Y-40800268D01*
X59822454Y-40801590D01*
X59822447Y-40801599D01*
X59363746Y-41352332D01*
X59363727Y-41352355D01*
X59362651Y-41353648D01*
X59361643Y-41355001D01*
X59361620Y-41355031D01*
X58933603Y-41929892D01*
X58933576Y-41929930D01*
X58932557Y-41931299D01*
X58931608Y-41932729D01*
X58931594Y-41932750D01*
X58535491Y-42530084D01*
X58535470Y-42530116D01*
X58534548Y-42531508D01*
X58533685Y-42532975D01*
X58533682Y-42532982D01*
X58170674Y-43151016D01*
X58170654Y-43151051D01*
X58169806Y-43152496D01*
X58169033Y-43153992D01*
X58169016Y-43154024D01*
X57840214Y-43790864D01*
X57840201Y-43790889D01*
X57839412Y-43792419D01*
X57838710Y-43793980D01*
X57838695Y-43794013D01*
X57584082Y-44360909D01*
X57544346Y-44449381D01*
X57543736Y-44450964D01*
X57543725Y-44450991D01*
X57303498Y-45074664D01*
X57285484Y-45121432D01*
X57284953Y-45123069D01*
X57284945Y-45123094D01*
X57064126Y-45804931D01*
X57064118Y-45804955D01*
X57063593Y-45806579D01*
X56879331Y-46502790D01*
X56878996Y-46504406D01*
X56878988Y-46504441D01*
X56752668Y-47114237D01*
X56733245Y-47208000D01*
X56732992Y-47209670D01*
X56732991Y-47209681D01*
X56638495Y-47835793D01*
X56625768Y-47920117D01*
X56625607Y-47921795D01*
X56625603Y-47921832D01*
X56557383Y-48635319D01*
X56557381Y-48635337D01*
X56557220Y-48637029D01*
X56557151Y-48638706D01*
X56557149Y-48638742D01*
X56527871Y-49354912D01*
X56527802Y-49356610D01*
X56527825Y-49358308D01*
X56527825Y-49358317D01*
X56537579Y-50075000D01*
X56537579Y-50075019D01*
X56537603Y-50076725D01*
X56537719Y-50078439D01*
X56537720Y-50078442D01*
X56581538Y-50721098D01*
X56586594Y-50795239D01*
X56586802Y-50796932D01*
X56586803Y-50796937D01*
X56674416Y-51508298D01*
X56674420Y-51508330D01*
X56674629Y-51510020D01*
X56674933Y-51511719D01*
X56674934Y-51511726D01*
X56801144Y-52217259D01*
X56801148Y-52217283D01*
X56801447Y-52218949D01*
X56801835Y-52220595D01*
X56801841Y-52220624D01*
X56966274Y-52918239D01*
X56966278Y-52918257D01*
X56966671Y-52919921D01*
X56967145Y-52921535D01*
X56967154Y-52921567D01*
X57107700Y-53399598D01*
X57169813Y-53610860D01*
X57170382Y-53612466D01*
X57170389Y-53612488D01*
X57331490Y-54067306D01*
X57410269Y-54289714D01*
X57410934Y-54291311D01*
X57410935Y-54291312D01*
X57459313Y-54407389D01*
X57687326Y-54954471D01*
X58000162Y-55603158D01*
X58000988Y-55604657D01*
X58000992Y-55604664D01*
X58183840Y-55936345D01*
X58347850Y-56233853D01*
X58729357Y-56844683D01*
X58805137Y-56952473D01*
X59059585Y-57314401D01*
X59143554Y-57433838D01*
X59144618Y-57435189D01*
X59144622Y-57435194D01*
X59565514Y-57969489D01*
X59589211Y-57999570D01*
X59590343Y-58000857D01*
X59590347Y-58000861D01*
X60063868Y-58538909D01*
X60063883Y-58538925D01*
X60065005Y-58540200D01*
X60066196Y-58541413D01*
X60066207Y-58541425D01*
X60358427Y-58839091D01*
X60569527Y-59054126D01*
X60570791Y-59055281D01*
X60570805Y-59055294D01*
X61047118Y-59490352D01*
X61101280Y-59539823D01*
X61102606Y-59540908D01*
X61102612Y-59540913D01*
X61228902Y-59644234D01*
X61658685Y-59995851D01*
X62240091Y-60420856D01*
X62843773Y-60813578D01*
X63467939Y-61172853D01*
X63817324Y-61349373D01*
X64109232Y-61496854D01*
X64109243Y-61496859D01*
X64110739Y-61497615D01*
X64770267Y-61786900D01*
X65444565Y-62039850D01*
X66131634Y-62255716D01*
X66829436Y-62433857D01*
X67535902Y-62573744D01*
X68248936Y-62674963D01*
X68966422Y-62737213D01*
X69686234Y-62760310D01*
X70406235Y-62744185D01*
X71124291Y-62688887D01*
X71838272Y-62594578D01*
X72546059Y-62461540D01*
X73245554Y-62290166D01*
X73934681Y-62080964D01*
X74611398Y-61834556D01*
X75273696Y-61551672D01*
X75919611Y-61233151D01*
X76547228Y-60879938D01*
X77154685Y-60493081D01*
X77740179Y-60073727D01*
X78301976Y-59623119D01*
X78838407Y-59142595D01*
X79347883Y-58633579D01*
X79828891Y-58097582D01*
X80280006Y-57536193D01*
X80699889Y-56951078D01*
X81087295Y-56343971D01*
X81441074Y-55716673D01*
X81760178Y-55071046D01*
X82043661Y-54409003D01*
X82290680Y-53732510D01*
X82500503Y-53043571D01*
X82672509Y-52344232D01*
X82806187Y-51636565D01*
X82901140Y-50922670D01*
X82957087Y-50204664D01*
X82958040Y-50163575D01*
X82979619Y-50095937D01*
X83034339Y-50050702D01*
X83084007Y-50040500D01*
X89426062Y-50040500D01*
X89494183Y-50060502D01*
X89540676Y-50114158D01*
X89551973Y-50171227D01*
X89531540Y-50715486D01*
X89531204Y-50721098D01*
X89459297Y-51594494D01*
X89458711Y-51600085D01*
X89347918Y-52469409D01*
X89347083Y-52474968D01*
X89197624Y-53338477D01*
X89196542Y-53343993D01*
X89008716Y-54199974D01*
X89007389Y-54205437D01*
X88781563Y-55052208D01*
X88779993Y-55057606D01*
X88516635Y-55893417D01*
X88514827Y-55898740D01*
X88214430Y-56722026D01*
X88212385Y-56727263D01*
X87875584Y-57536280D01*
X87873309Y-57541420D01*
X87500742Y-58334645D01*
X87498239Y-58339679D01*
X87090664Y-59115485D01*
X87087939Y-59120402D01*
X86646165Y-59877257D01*
X86643224Y-59882047D01*
X86603494Y-59943630D01*
X86570513Y-59994751D01*
X86559425Y-60011937D01*
X86505687Y-60058336D01*
X86435396Y-60068316D01*
X86370867Y-60038709D01*
X86332589Y-59978915D01*
X86327547Y-59943630D01*
X86327547Y-58776735D01*
X86347549Y-58708614D01*
X86382630Y-58676078D01*
X86381383Y-58674476D01*
X86567284Y-58529781D01*
X86567287Y-58529779D01*
X86719769Y-58364141D01*
X86842907Y-58175664D01*
X86933343Y-57969489D01*
X86988611Y-57751241D01*
X87007203Y-57526873D01*
X86988611Y-57302505D01*
X86933343Y-57084257D01*
X86842907Y-56878082D01*
X86719769Y-56689605D01*
X86567287Y-56523967D01*
X86567286Y-56523966D01*
X86567284Y-56523964D01*
X86389625Y-56385685D01*
X86191620Y-56278530D01*
X86047474Y-56229045D01*
X85978682Y-56205429D01*
X85756616Y-56168373D01*
X85531478Y-56168373D01*
X85309412Y-56205429D01*
X85309409Y-56205429D01*
X85309409Y-56205430D01*
X85096473Y-56278530D01*
X84898468Y-56385685D01*
X84720809Y-56523964D01*
X84568325Y-56689604D01*
X84445186Y-56878082D01*
X84354749Y-57084261D01*
X84335501Y-57160272D01*
X84299483Y-57302505D01*
X84289725Y-57420260D01*
X84287501Y-57447102D01*
X84261941Y-57513338D01*
X84204629Y-57555241D01*
X84133761Y-57559507D01*
X84099798Y-57546311D01*
X83990023Y-57484087D01*
X83847794Y-57450776D01*
X83701938Y-57458884D01*
X83564277Y-57507755D01*
X83516543Y-57539787D01*
X83511165Y-57543830D01*
X83019963Y-57955996D01*
X83019963Y-57955997D01*
X83615938Y-58666253D01*
X83555979Y-58674874D01*
X83425194Y-58734602D01*
X83316533Y-58828756D01*
X83238801Y-58949710D01*
X83226317Y-58992226D01*
X82630813Y-58282533D01*
X82630812Y-58282533D01*
X82139615Y-58694697D01*
X82134689Y-58699301D01*
X82094860Y-58740744D01*
X82022827Y-58867825D01*
X81989516Y-59010053D01*
X81997624Y-59155909D01*
X82046495Y-59293570D01*
X82078527Y-59341304D01*
X82082570Y-59346682D01*
X82494736Y-59837883D01*
X82494737Y-59837883D01*
X83202083Y-59244349D01*
X83238801Y-59369398D01*
X83316533Y-59490352D01*
X83425194Y-59584506D01*
X83529977Y-59632359D01*
X82821273Y-60227033D01*
X82821273Y-60227034D01*
X83233437Y-60718232D01*
X83238041Y-60723158D01*
X83279484Y-60762987D01*
X83406565Y-60835020D01*
X83548793Y-60868331D01*
X83694649Y-60860223D01*
X83832310Y-60811352D01*
X83880044Y-60779320D01*
X83885422Y-60775277D01*
X84376623Y-60363110D01*
X84376623Y-60363109D01*
X83780649Y-59652854D01*
X83840609Y-59644234D01*
X83971394Y-59584506D01*
X84080055Y-59490352D01*
X84157787Y-59369398D01*
X84170271Y-59326880D01*
X84765773Y-60036573D01*
X84775114Y-60037390D01*
X84818594Y-60018361D01*
X84888699Y-60029577D01*
X84941611Y-60076915D01*
X84960547Y-60143347D01*
X84960547Y-60435648D01*
X84940545Y-60503769D01*
X84923642Y-60524743D01*
X80128790Y-65319595D01*
X80066478Y-65353621D01*
X80039695Y-65356500D01*
X79499459Y-65356500D01*
X79491851Y-65356270D01*
X79433426Y-65352735D01*
X79375857Y-65363285D01*
X79368336Y-65364430D01*
X79310223Y-65371487D01*
X79301398Y-65374834D01*
X79279440Y-65380955D01*
X79277622Y-65381288D01*
X79270159Y-65382656D01*
X79216787Y-65406677D01*
X79209759Y-65409588D01*
X79155025Y-65430346D01*
X79147254Y-65435710D01*
X79127408Y-65446903D01*
X79118803Y-65450776D01*
X79072724Y-65486876D01*
X79066596Y-65491385D01*
X79018427Y-65524634D01*
X78979604Y-65568455D01*
X78974388Y-65573995D01*
X78522066Y-66026317D01*
X78459754Y-66060343D01*
X78406774Y-66060468D01*
X78270487Y-66031500D01*
X78079513Y-66031500D01*
X77954978Y-66057970D01*
X77892711Y-66071206D01*
X77718246Y-66148883D01*
X77563747Y-66261133D01*
X77435958Y-66403057D01*
X77340472Y-66568443D01*
X77297368Y-66701107D01*
X77285237Y-66738444D01*
X77278416Y-66759436D01*
X77238343Y-66818042D01*
X77172946Y-66845679D01*
X77158583Y-66846500D01*
X76210815Y-66846500D01*
X76142694Y-66826498D01*
X76136754Y-66822436D01*
X76038124Y-66750777D01*
X76021752Y-66738882D01*
X75847288Y-66661206D01*
X75660487Y-66621500D01*
X75469513Y-66621500D01*
X75337060Y-66649654D01*
X75317804Y-66653747D01*
X75291607Y-66656500D01*
X73749460Y-66656500D01*
X73741852Y-66656270D01*
X73683426Y-66652735D01*
X73625858Y-66663285D01*
X73618337Y-66664430D01*
X73560226Y-66671487D01*
X73551394Y-66674836D01*
X73529444Y-66680954D01*
X73520167Y-66682654D01*
X73466802Y-66706671D01*
X73459776Y-66709581D01*
X73405028Y-66730345D01*
X73397257Y-66735709D01*
X73377408Y-66746903D01*
X73368803Y-66750776D01*
X73322724Y-66786876D01*
X73316596Y-66791385D01*
X73268427Y-66824634D01*
X73229604Y-66868455D01*
X73224388Y-66873995D01*
X71818788Y-68279596D01*
X71756478Y-68313620D01*
X71729695Y-68316500D01*
X68270305Y-68316500D01*
X68202184Y-68296498D01*
X68181210Y-68279595D01*
X67725604Y-67823989D01*
X67720403Y-67818465D01*
X67681573Y-67774635D01*
X67633398Y-67741382D01*
X67627281Y-67736881D01*
X67581197Y-67700777D01*
X67581196Y-67700776D01*
X67572596Y-67696906D01*
X67552738Y-67685706D01*
X67544973Y-67680347D01*
X67544971Y-67680346D01*
X67490238Y-67659588D01*
X67483217Y-67656680D01*
X67461972Y-67647119D01*
X67429834Y-67632654D01*
X67420556Y-67630954D01*
X67398599Y-67624833D01*
X67389775Y-67621487D01*
X67331662Y-67614430D01*
X67324139Y-67613285D01*
X67266572Y-67602735D01*
X67208149Y-67606270D01*
X67200541Y-67606500D01*
X64640305Y-67606500D01*
X64572184Y-67586498D01*
X64551210Y-67569595D01*
X64363817Y-67382202D01*
X64329791Y-67319890D01*
X64327602Y-67306277D01*
X64318542Y-67220071D01*
X64259526Y-67038442D01*
X64164041Y-66873057D01*
X64090503Y-66791385D01*
X64036253Y-66731134D01*
X64035168Y-66730346D01*
X63940006Y-66661206D01*
X63881752Y-66618882D01*
X63707288Y-66541206D01*
X63520487Y-66501500D01*
X63329513Y-66501500D01*
X63182518Y-66532745D01*
X63111727Y-66527343D01*
X63062686Y-66493809D01*
X63006253Y-66431134D01*
X63006252Y-66431133D01*
X63006251Y-66431132D01*
X62851753Y-66318883D01*
X62851752Y-66318882D01*
X62677288Y-66241206D01*
X62490487Y-66201500D01*
X62299513Y-66201500D01*
X62174979Y-66227970D01*
X62112711Y-66241206D01*
X61938246Y-66318883D01*
X61783747Y-66431133D01*
X61655958Y-66573057D01*
X61560472Y-66738443D01*
X61501458Y-66920070D01*
X61481496Y-67110000D01*
X61497473Y-67262013D01*
X61484701Y-67331851D01*
X61436199Y-67383698D01*
X61367366Y-67401092D01*
X61319636Y-67389712D01*
X61306523Y-67383698D01*
X61277943Y-67370590D01*
X61161784Y-67317315D01*
X61156728Y-67314858D01*
X60377257Y-66914361D01*
X60372315Y-66911681D01*
X59957939Y-66674836D01*
X59611459Y-66476798D01*
X59606650Y-66473905D01*
X59539012Y-66431134D01*
X59092664Y-66148883D01*
X58865977Y-66005536D01*
X58861293Y-66002426D01*
X58142234Y-65501474D01*
X58137695Y-65498159D01*
X57441705Y-64965637D01*
X57437317Y-64962122D01*
X56826824Y-64450274D01*
X56765747Y-64399066D01*
X56761551Y-64395385D01*
X56115771Y-63802938D01*
X56111719Y-63799051D01*
X55493020Y-63178400D01*
X55489141Y-63174331D01*
X54898737Y-62526696D01*
X54895044Y-62522458D01*
X54334135Y-61849155D01*
X54330634Y-61844757D01*
X54014311Y-61428623D01*
X53800303Y-61147088D01*
X53797008Y-61142548D01*
X53298305Y-60421888D01*
X53295233Y-60417230D01*
X52829160Y-59675027D01*
X52826288Y-59670216D01*
X52393811Y-58908005D01*
X52391182Y-58903122D01*
X51993103Y-58122320D01*
X51990684Y-58117302D01*
X51627839Y-57319541D01*
X51625650Y-57314429D01*
X51298747Y-56501270D01*
X51296787Y-56496061D01*
X51006479Y-55669126D01*
X51004750Y-55663824D01*
X50751626Y-54824793D01*
X50750127Y-54819390D01*
X50534690Y-53969940D01*
X50533430Y-53964462D01*
X50503246Y-53818386D01*
X50356091Y-53106219D01*
X50355087Y-53100751D01*
X50216203Y-52235432D01*
X50215438Y-52229872D01*
X50213987Y-52217259D01*
X50115290Y-51359215D01*
X50114778Y-51353673D01*
X50053568Y-50479457D01*
X50053301Y-50473847D01*
X50046451Y-50202952D01*
X50031145Y-49597720D01*
X50031130Y-49592159D01*
X50048077Y-48715930D01*
X50048308Y-48710371D01*
X50104323Y-47835758D01*
X50104800Y-47830227D01*
X50199773Y-46958972D01*
X50200506Y-46953413D01*
X50334236Y-46087325D01*
X50335208Y-46081841D01*
X50507453Y-45222505D01*
X50508670Y-45217070D01*
X50719067Y-44366298D01*
X50720518Y-44360946D01*
X50968655Y-43520410D01*
X50970362Y-43515070D01*
X51093711Y-43156917D01*
X51255733Y-42686468D01*
X51257679Y-42681204D01*
X51579724Y-41866163D01*
X51581906Y-41860983D01*
X51939992Y-41061102D01*
X51942370Y-41056091D01*
X52335803Y-40272931D01*
X52338399Y-40268039D01*
X52766362Y-39503228D01*
X52769213Y-39498392D01*
X52804792Y-39440979D01*
X53230856Y-38753446D01*
X53233874Y-38748809D01*
X53728300Y-38025175D01*
X53731540Y-38020651D01*
X54257758Y-37319784D01*
X54261192Y-37315418D01*
X54818123Y-36638750D01*
X54821766Y-36634520D01*
X55408347Y-35983346D01*
X55412155Y-35979303D01*
X56027196Y-35354942D01*
X56031192Y-35351063D01*
X56673449Y-34754778D01*
X56677630Y-34751067D01*
X57345859Y-34184013D01*
X57350155Y-34180529D01*
X58043041Y-33643822D01*
X58047519Y-33640511D01*
X58763617Y-33135273D01*
X58768237Y-33132166D01*
X59506190Y-32659351D01*
X59510920Y-32656468D01*
X60093021Y-32319150D01*
X60161987Y-32302302D01*
X60229116Y-32325416D01*
G37*
G04 #@! TD.AperFunction*
G04 #@! TA.AperFunction,Conductor*
G36*
X74798865Y-68043502D02*
G01*
X74824380Y-68065190D01*
X74944425Y-68198513D01*
X74953747Y-68208866D01*
X75108248Y-68321118D01*
X75137544Y-68334161D01*
X75191640Y-68380141D01*
X75212290Y-68448068D01*
X75192938Y-68516376D01*
X75139728Y-68563378D01*
X75121590Y-68570224D01*
X74914089Y-68630771D01*
X74908658Y-68632225D01*
X74057278Y-68839930D01*
X74051789Y-68841140D01*
X73385234Y-68972563D01*
X73314531Y-68966116D01*
X73258537Y-68922468D01*
X73235029Y-68855476D01*
X73251473Y-68786410D01*
X73271757Y-68759856D01*
X73971212Y-68060402D01*
X74033522Y-68026379D01*
X74060305Y-68023500D01*
X74730744Y-68023500D01*
X74798865Y-68043502D01*
G37*
G04 #@! TD.AperFunction*
G04 #@! TD*
M02*
