G04 #@! TF.GenerationSoftware,KiCad,Pcbnew,7.0.2-6a45011f42~172~ubuntu22.04.1*
G04 #@! TF.CreationDate,2023-05-20T12:50:21-04:00*
G04 #@! TF.ProjectId,T36VAIllumination,54333656-4149-46c6-9c75-6d696e617469,1.3*
G04 #@! TF.SameCoordinates,Original*
G04 #@! TF.FileFunction,Legend,Bot*
G04 #@! TF.FilePolarity,Positive*
%FSLAX46Y46*%
G04 Gerber Fmt 4.6, Leading zero omitted, Abs format (unit mm)*
G04 Created by KiCad (PCBNEW 7.0.2-6a45011f42~172~ubuntu22.04.1) date 2023-05-20 12:50:21*
%MOMM*%
%LPD*%
G01*
G04 APERTURE LIST*
%ADD10C,0.150000*%
%ADD11C,0.120000*%
G04 APERTURE END LIST*
D10*
X88143707Y-56515970D02*
X87163400Y-56903409D01*
X87163400Y-56903409D02*
X87715182Y-56005274D01*
X86440524Y-55893755D02*
X86434655Y-55960843D01*
X86434655Y-55960843D02*
X86490003Y-56100887D01*
X86490003Y-56100887D02*
X86551221Y-56173843D01*
X86551221Y-56173843D02*
X86679526Y-56252669D01*
X86679526Y-56252669D02*
X86813701Y-56264408D01*
X86813701Y-56264408D02*
X86917266Y-56239668D01*
X86917266Y-56239668D02*
X87093789Y-56153711D01*
X87093789Y-56153711D02*
X87203224Y-56061884D01*
X87203224Y-56061884D02*
X87318528Y-55902970D01*
X87318528Y-55902970D02*
X87360876Y-55805274D01*
X87360876Y-55805274D02*
X87372614Y-55671099D01*
X87372614Y-55671099D02*
X87317266Y-55531056D01*
X87317266Y-55531056D02*
X87256048Y-55458099D01*
X87256048Y-55458099D02*
X87127743Y-55379273D01*
X87127743Y-55379273D02*
X87060656Y-55373404D01*
X85797737Y-55127711D02*
X85791867Y-55194798D01*
X85791867Y-55194798D02*
X85847216Y-55334842D01*
X85847216Y-55334842D02*
X85908434Y-55407799D01*
X85908434Y-55407799D02*
X86036739Y-55486625D01*
X86036739Y-55486625D02*
X86170913Y-55498363D01*
X86170913Y-55498363D02*
X86274479Y-55473624D01*
X86274479Y-55473624D02*
X86451001Y-55387666D01*
X86451001Y-55387666D02*
X86560436Y-55295840D01*
X86560436Y-55295840D02*
X86675740Y-55136926D01*
X86675740Y-55136926D02*
X86718088Y-55039229D01*
X86718088Y-55039229D02*
X86729827Y-54905055D01*
X86729827Y-54905055D02*
X86674478Y-54765011D01*
X86674478Y-54765011D02*
X86613260Y-54692054D01*
X86613260Y-54692054D02*
X86484955Y-54613229D01*
X86484955Y-54613229D02*
X86417868Y-54607359D01*
X82739921Y-60508839D02*
X82837618Y-60551187D01*
X82837618Y-60551187D02*
X82929444Y-60660622D01*
X82929444Y-60660622D02*
X82984793Y-60800666D01*
X82984793Y-60800666D02*
X82973054Y-60934840D01*
X82973054Y-60934840D02*
X82930707Y-61032536D01*
X82930707Y-61032536D02*
X82815402Y-61191450D01*
X82815402Y-61191450D02*
X82705967Y-61283277D01*
X82705967Y-61283277D02*
X82529445Y-61369235D01*
X82529445Y-61369235D02*
X82425880Y-61393974D01*
X82425880Y-61393974D02*
X82291705Y-61382235D01*
X82291705Y-61382235D02*
X82163400Y-61303409D01*
X82163400Y-61303409D02*
X82102182Y-61230453D01*
X82102182Y-61230453D02*
X82046834Y-61090409D01*
X82046834Y-61090409D02*
X82052703Y-61023322D01*
X82052703Y-61023322D02*
X82308051Y-60809059D01*
X82308051Y-60809059D02*
X82430487Y-60954972D01*
X81704266Y-60756235D02*
X82470310Y-60113447D01*
X82470310Y-60113447D02*
X81336959Y-60318495D01*
X81336959Y-60318495D02*
X82103003Y-59675707D01*
X81030870Y-59953712D02*
X81796914Y-59310924D01*
X81796914Y-59310924D02*
X81643869Y-59128533D01*
X81643869Y-59128533D02*
X81515564Y-59049707D01*
X81515564Y-59049707D02*
X81381390Y-59037968D01*
X81381390Y-59037968D02*
X81277824Y-59062708D01*
X81277824Y-59062708D02*
X81101302Y-59148665D01*
X81101302Y-59148665D02*
X80991867Y-59240492D01*
X80991867Y-59240492D02*
X80876563Y-59399406D01*
X80876563Y-59399406D02*
X80834215Y-59497102D01*
X80834215Y-59497102D02*
X80822476Y-59631277D01*
X80822476Y-59631277D02*
X80877825Y-59771320D01*
X80877825Y-59771320D02*
X81030870Y-59953712D01*
D11*
G04 #@! TO.C,J1*
X85807978Y-55653127D02*
X87517794Y-57690805D01*
X83816263Y-57324375D02*
X85807978Y-55653127D01*
X83816263Y-57324375D02*
X85526078Y-59362053D01*
X82843386Y-58140715D02*
X81824547Y-58995622D01*
X81824547Y-58995622D02*
X82679455Y-60014462D01*
X85526078Y-59362053D02*
X87517794Y-57690805D01*
G04 #@! TD*
M02*
